<?xml version="1.0" encoding="utf-8"?>
<!-- Generator: Adobe Illustrator 27.3.0, SVG Export Plug-In . SVG Version: 6.00 Build 0)  -->
<svg version="1.1" id="Layer_1" xmlns="http://www.w3.org/2000/svg" xmlns:xlink="http://www.w3.org/1999/xlink" x="0px" y="0px"
	 viewBox="0 0 350 350" style="enable-background:new 0 0 350 350;" xml:space="preserve">
<style type="text/css">
	.st0{opacity:0.1;fill:#2B2B2B;enable-background:new    ;}
	.st1{fill:#446125;}
	.st2{fill:#3F8F6F;}
	.st3{fill:#54B08B;}
	.st4{fill:#35785D;}
	.st5{fill:#B8C745;}
	.st6{fill:#E8F078;}
	.st7{fill:#5A753D;}
	.st8{fill:#709D53;}
	.st9{fill:#99C26D;}
	.st10{fill:#738D57;}
	.st11{fill:#2B2B2B;}
	.st12{fill:#DFBDA5;}
	.st13{fill:#C3987B;}
	.st14{fill:#8B6651;}
	.st15{fill:#E8CAB6;}
	.st16{fill:#474747;}
	.st17{fill:#4F5253;}
	.st18{fill:#6F7173;}
	.st19{fill:none;stroke:#8B6651;stroke-width:4;stroke-miterlimit:10;}
	.st20{fill:#A3A3A3;}
	.st21{fill:#ECECEB;}
	.st22{fill:#DDDDDC;}
	.st23{fill:#9DA1A2;}
	.st24{opacity:0.2;enable-background:new    ;}
</style>
<polygon class="st0" points="253.4,310.2 235.5,306.8 163.2,294.8 95.3,306.7 77.1,312.4 193,320.2 "/>
<polygon class="st1" points="219.3,285.4 216.5,209.9 212.2,184.3 173,168.4 122.5,196.2 104,294.8 121.1,309.8 220,310 
	235.5,306.7 "/>
<polygon class="st2" points="204.3,273.9 182.2,282.9 185.5,299.1 196.8,299.1 204.3,292.7 "/>
<polygon class="st3" points="204.3,292.7 218.4,306.7 204.8,309.8 185.1,306.7 185.5,299.1 "/>
<polygon class="st2" points="218.4,312.9 185.1,312.9 185.1,306.7 213.2,306.7 224.2,302.5 "/>
<polygon class="st4" points="204.3,273.9 184,291.2 182.2,282.9 193.2,273.9 "/>
<polygon class="st5" points="125.9,121.1 103,136.9 101.5,155.6 117.1,183.4 224.9,173.8 221.6,132 210.2,125.1 "/>
<polygon class="st6" points="210.2,125.1 125.9,121.1 103,136.9 101.5,155.6 114.6,146.5 212.2,138.4 221.6,132 "/>
<polygon class="st2" points="153.1,283.9 149.6,297.7 138.3,299.1 128.1,294.8 129.8,278.8 "/>
<polygon class="st3" points="128.1,294.8 121.1,309.8 150.1,309.8 149.6,297.7 "/>
<polygon class="st2" points="150.1,315 121.1,315 121.1,309.8 135.6,305.3 150.1,309.8 "/>
<polygon class="st4" points="129.8,278.8 151.3,291.2 153.1,283.9 146,277.6 "/>
<polygon class="st7" points="169.7,221.5 153.1,273.9 170.5,287.8 204.3,273.9 204.2,222.8 191,217 "/>
<polygon class="st8" points="134.6,233.8 129.8,278.8 170.5,287.8 169.7,221.5 "/>
<polygon class="st7" points="204.2,154.1 212.2,138.4 229.3,176.5 204.3,205.3 200.4,188.1 "/>
<polygon class="st7" points="132.6,140 158.8,153.8 182.5,172.1 169.7,221.5 135.4,221.5 135.4,209.9 121.1,173.1 "/>
<polygon class="st8" points="173,168.4 169.7,209.9 169.7,221.5 204.2,221.5 204.3,205.3 212.2,138.4 195.4,136.9 194.8,143.9 
	194.8,143.9 187.7,143.5 183.9,159.7 "/>
<polygon class="st7" points="122.5,196.2 114.6,146.5 95.3,306.7 106.7,299.2 112.5,288.6 "/>
<polygon class="st8" points="121.1,309.8 95.3,306.7 112.5,288.6 "/>
<polygon class="st9" points="135.4,221.5 204.2,221.5 204.2,234.4 134.6,233.8 "/>
<polygon class="st10" points="112,211.7 114.6,146.5 135.2,138.5 141.1,137.6 134.5,161.1 136.9,189 "/>
<polygon class="st4" points="172.7,162.1 182.2,152.3 187.7,143.5 197.7,145 196.8,159.7 173,168.4 167.4,163.3 "/>
<polygon class="st3" points="172.7,162.1 173,168.4 134.5,161.1 132.6,140 141.1,137.6 150.7,148.1 "/>
<polygon class="st11" points="138.5,138.4 136.3,101.2 131.7,91.6 123,95.7 121.1,144 "/>
<polygon class="st11" points="209.6,91.1 212.2,138.4 198.4,137.2 196.1,86.5 "/>
<polygon class="st12" points="197.7,145 153.1,142.9 140.5,133.9 134.5,65.4 204.2,62.4 "/>
<polygon class="st13" points="191,144.7 145.4,138.7 139.9,72.1 131.7,59 138.9,142.4 140.5,152.8 172.7,162.1 189.5,153.9 "/>
<polygon class="st14" points="165.8,116.8 172.3,121.3 178.9,116.8 "/>
<polygon class="st13" points="145.3,99.7 159,103.9 165.8,116.8 169.6,99 150.2,94.1 "/>
<polygon class="st13" points="178.9,116.8 188.6,103.9 199.3,99.7 194.5,96.6 185.6,95.7 175,99 175,108.9 "/>
<polygon class="st15" points="178.9,116.8 172.3,118.5 165.8,116.8 169.6,99 175,99 "/>
<polygon class="st16" points="175,99 194.5,96.6 199.3,99.7 194.5,91.6 "/>
<polygon class="st16" points="169.6,99 150.2,96.6 145.3,99.7 150.2,91.6 "/>
<polygon class="st14" points="174.6,156.8 191,144.7 138.9,142.4 "/>
<polygon class="st17" points="123,95.7 124.4,61 138.9,57.3 150.2,48.7 189.1,48.7 197.7,59 212.5,65.4 209.6,91.1 201.8,92.5 
	203.6,68.3 173.5,78.2 141,63.5 135.5,105.5 "/>
<polygon class="st18" points="173.5,78.2 150.2,48.7 124.4,61 139.9,72.1 "/>
<polygon class="st13" points="144,121.9 199.3,125.2 197.7,145 145.3,142.7 "/>
<polygon class="st16" points="189.1,48.7 173.5,78.2 203.4,71.8 212.5,65.4 "/>
<line class="st19" x1="158" y1="132.3" x2="179.8" y2="132.3"/>
<polygon class="st14" points="144,121.9 136.9,119.1 138.9,142.4 145.3,142.7 "/>
<ellipse transform="matrix(0.1602 -0.9871 0.9871 0.1602 55.0742 272.5112)" class="st11" cx="187.7" cy="103.9" rx="3.3" ry="3.3"/>
<circle class="st11" cx="158" cy="103.9" r="3.3"/>
<polygon class="st3" points="136.9,189 112,211.7 152.2,227.6 161.8,204 "/>
<path class="st13" d="M161.8,204l10.4-2.6l5,8.1l-9.6-0.6L161.8,204z"/>
<path class="st12" d="M161.8,204l15.4,5.4l-3.5,10.3l-11.4,13l-10.1-5L161.8,204L161.8,204z"/>
<path class="st13" d="M177.2,209.4l6,5.2l-7.8,17.5l-13.2,0.6L177.2,209.4L177.2,209.4z"/>
<path class="st3" d="M229.3,176.5l22.9,9.8l-2,10.2l-7.9,12l-38-3.2L229.3,176.5z"/>
<path class="st20" d="M238.8,234.1l62.9-156.2l11.2,4.5L250,238.7L238.8,234.1z"/>
<path class="st21" d="M251.3,237.9c1.4-3.6-0.3-7.7-3.9-9.1c-3.6-1.4-7.7,0.3-9.1,3.9c-1.4,3.6,0.3,7.7,3.9,9.1c0,0,0,0,0,0
	C245.8,243.2,249.9,241.5,251.3,237.9z"/>
<path class="st22" d="M296.7,73.3l13.7-1.9l8.4,11.4l-23.7,49L274,194.2l-22.3-9L296.7,73.3z"/>
<path class="st23" d="M274,194.2l-10.8-4.4l47.3-118.4l8.6,10.9L274,194.2L274,194.2z"/>
<path class="st21" d="M288.3,191.5l4.5,9.1l-9.1,5.2l-4.9-8.8l-11.2-4.5l-6.6,2.9l-2.8-6.8l-10.2-4.1l-8.8,3.8l-5-9.7l10.7-4.6
	l1.9,5.7l12.8,5.2l6.7-2.9l2.9,6.6l13.8,5.5L288.3,191.5z"/>
<path class="st24" d="M248.2,210.7l8.4,11.4l3.1-7.7l-3.9-3.8H248.2z"/>
<path class="st13" d="M252.1,186.3l25.3,10.2l-11,18.5l-24.2-6.4L252.1,186.3z"/>
<path class="st12" d="M266,216.8l-17.9-6.2l9.9-22l19.4,7.9L266,216.8L266,216.8z"/>
<path class="st15" d="M246.7,198.5h6.9l-3.1,6.7l7,2.1l8.8-15.3l-14.3-5.7L246.7,198.5z"/>
<path class="st13" d="M277.5,196.5l-17.9,17.9l6.4,2.4L277.5,196.5z"/>
<path class="st14" d="M252.1,186.3l23.2,14l2.1-3.8L252.1,186.3z"/>
</svg>
