<?xml version="1.0" encoding="utf-8"?>
<!-- Generator: Adobe Illustrator 27.3.0, SVG Export Plug-In . SVG Version: 6.00 Build 0)  -->
<svg version="1.1" id="Layer_1" xmlns="http://www.w3.org/2000/svg" xmlns:xlink="http://www.w3.org/1999/xlink" x="0px" y="0px"
	 viewBox="0 0 350 350" style="enable-background:new 0 0 350 350;" xml:space="preserve">
<style type="text/css">
	.st0{opacity:0.1;fill-rule:evenodd;clip-rule:evenodd;enable-background:new    ;}
	.st1{fill-rule:evenodd;clip-rule:evenodd;fill:#4F5253;}
	.st2{opacity:0.2;fill-rule:evenodd;clip-rule:evenodd;enable-background:new    ;}
	.st3{fill-rule:evenodd;clip-rule:evenodd;fill:#6F7173;}
	.st4{fill-rule:evenodd;clip-rule:evenodd;fill:#54B08B;}
	.st5{fill-rule:evenodd;clip-rule:evenodd;fill:#3F8F6F;}
	.st6{fill-rule:evenodd;clip-rule:evenodd;fill:#35785D;}
	.st7{fill-rule:evenodd;clip-rule:evenodd;fill:#DFBDA5;}
	.st8{fill-rule:evenodd;clip-rule:evenodd;fill:#C3987B;}
	.st9{fill-rule:evenodd;clip-rule:evenodd;fill:#C4C4C4;}
	.st10{fill-rule:evenodd;clip-rule:evenodd;fill:#9DA1A2;}
	.st11{fill-rule:evenodd;clip-rule:evenodd;fill:#738D57;}
	.st12{fill-rule:evenodd;clip-rule:evenodd;fill:#474747;}
	.st13{fill-rule:evenodd;clip-rule:evenodd;fill:#5A753D;}
	.st14{fill-rule:evenodd;clip-rule:evenodd;fill:#99C26D;}
	.st15{fill-rule:evenodd;clip-rule:evenodd;fill:#8B6651;}
	.st16{fill-rule:evenodd;clip-rule:evenodd;fill:#E8CAB6;}
	.st17{fill-rule:evenodd;clip-rule:evenodd;fill:#FFFFFF;}
	.st18{fill-rule:evenodd;clip-rule:evenodd;fill:#446125;}
	.st19{fill-rule:evenodd;clip-rule:evenodd;fill:#72C9A6;}
	.st20{fill-rule:evenodd;clip-rule:evenodd;fill:#2B2B2B;}
</style>
<polygon class="st0" points="253.2,294.4 167.2,287.8 91.4,295.2 167.4,303.8 "/>
<polygon class="st1" points="145.2,288.8 128.8,295.2 126,288.9 128.2,278.3 133.3,276.5 140.8,278.8 "/>
<polygon class="st1" points="207.2,280.3 200.8,292.1 188,285.5 187,278.2 198.4,272.8 "/>
<polygon class="st2" points="198.9,273.2 188,285.5 187,278.2 190.7,274.1 "/>
<polygon class="st2" points="128.2,278.3 134.9,276.5 140.8,278.8 126.9,284.6 "/>
<polygon class="st3" points="198.9,290.2 188,285.5 188.8,294.3 223.1,294.6 222.9,285.1 207.2,280.3 "/>
<polygon class="st3" points="151.6,298.7 151.4,288.5 136.4,286.9 129.8,293.6 126,288.9 125.5,298.7 "/>
<polygon class="st4" points="190.1,215.5 205.2,261.5 194.2,271.5 181.7,270.3 176,253.3 165.4,246.4 150.5,270.3 140.8,276.5 
	125,269.2 125.2,223.2 133.5,200.6 "/>
<polygon class="st5" points="185.6,219 201.6,264.3 195.6,267.3 177.9,227.4 "/>
<polygon class="st5" points="174.5,237.9 189.1,269.6 181.7,270.3 165.4,246.4 166.6,227.2 "/>
<polygon class="st5" points="156.6,239.4 144.7,271.6 138.4,270.9 148.4,227.9 "/>
<polygon class="st5" points="142.4,219.4 133.6,271.8 128.1,269.4 130.1,230.3 "/>
<polygon class="st6" points="205.2,261.5 181.7,270.3 187,278.2 208.2,270.6 "/>
<polygon class="st6" points="150.5,270.3 125,269.2 125,278.2 145,279.1 "/>
<polygon class="st6" points="174.5,237.9 165.4,246.4 156.6,239.4 166.6,222.8 "/>
<polygon class="st7" points="226.3,169.5 231.6,155.5 239.9,158.4 247.3,165.1 232.5,178.3 "/>
<polygon class="st8" points="234.9,164.9 229.8,150.9 225.4,151 226.3,169.5 230.4,174.1 "/>
<polygon class="st8" points="231.6,155.5 244.6,141.9 252.8,149.6 247.3,165.1 "/>
<polygon class="st1" points="93.3,201.3 118.2,218.1 125,204.6 "/>
<polygon class="st9" points="101.6,134.4 155.2,134.9 146.5,146.1 126,146.9 "/>
<polygon class="st3" points="126.5,142.8 101.6,134.4 99.4,152.1 99.3,165.5 96.4,176.1 93.3,201.3 134.1,207.2 "/>
<polygon class="st1" points="147.8,140.1 126.5,142.8 125.5,152.1 121.9,205.8 159.6,197.5 "/>
<polygon class="st10" points="99.4,152.1 105.6,156.1 114.6,157.7 110.9,182.8 96.4,176.1 97.8,164.9 99.7,160.2 "/>
<polygon class="st9" points="114.6,157.7 97.8,164.9 99.4,152.1 "/>
<polygon class="st11" points="182.2,156.6 191.1,184.4 190.1,215.5 174.5,237.9 166.6,227.2 156.6,239.4 138.4,213.9 125,211.8 
	127.4,186.1 146.5,146.1 "/>
<polygon class="st1" points="168.4,183.5 157.5,213.2 166.6,220.2 176.3,213.5 "/>
<polygon class="st12" points="176.3,213.5 157.5,213.2 166.6,227.2 "/>
<polygon class="st12" points="178,172.9 168.4,183.5 159.3,171.5 169.3,169.8 "/>
<polygon class="st13" points="132.9,181 132.9,162 125.5,152.1 107.2,193.9 120,193.3 127.4,189.2 "/>
<polygon class="st5" points="188.8,155.2 202.1,166.8 199.3,174.8 191.1,184.4 "/>
<polygon class="st14" points="202.1,166.8 219.8,181.1 216.6,187.7 200,190.6 191.1,184.4 "/>
<polygon class="st11" points="200,190.6 226.4,169.2 240,183.5 214.9,201.1 "/>
<polygon class="st14" points="169.3,169.8 160,153.3 146.5,146.1 144,182.2 "/>
<polygon class="st14" points="188.8,155.2 173.1,158.5 169.3,169.8 191.1,184.4 "/>
<polygon class="st5" points="146.5,146.1 125.5,152.1 132.9,181 "/>
<polygon class="st13" points="186,141.8 176,149.9 176,164.9 188.8,155.2 "/>
<polygon class="st13" points="150.5,127.3 146.5,146.1 158.3,158.3 157.5,143.1 "/>
<polygon class="st6" points="127.4,131.8 150.5,127.3 151.8,120.6 147.8,113.3 138.5,119.1 "/>
<polygon class="st5" points="225.6,87.4 215.9,107.8 212.9,133.4 219.2,128.8 225.1,127.4 231,124.5 230.1,92.3 229.4,88.2 "/>
<polygon class="st14" points="219.3,107.2 225.1,127.4 212.9,133.4 214.6,125.5 218.8,123.4 217.3,117.6 "/>
<polygon class="st7" points="225.6,87.4 209.4,145.8 186,141.8 174.1,160.4 169.3,169.8 164.4,153.4 147.8,113.3 178.1,85.6 
	210.1,70.4 "/>
<polygon class="st15" points="203.9,73.3 225.7,87.5 218,75.6 210.1,67.9 204.8,69.4 "/>
<polygon class="st8" points="198.1,113.8 194.1,95.7 189.4,86.5 201.5,86.2 201.9,91.7 "/>
<polygon class="st8" points="207,92.7 210.1,88.1 220.4,93.2 204.4,107.4 "/>
<polygon class="st15" points="203,114.8 199.9,117.7 198.1,113.8 "/>
<polygon class="st8" points="178.1,85.6 167,137.8 176.5,145.8 181,153.4 176,164.9 169.3,169.8 158.3,158.3 150.5,127.3 
	151.8,120.6 147.8,113.3 "/>
<polygon class="st16" points="207,92.7 203,114.8 198.1,113.8 201.9,91.7 "/>
<polygon class="st15" points="178.1,85.6 167,103.8 156,110.9 167.5,115.4 150.5,127.3 147.8,113.3 158.8,101.2 "/>
<polygon class="st5" points="210.1,88.1 217,86.8 220.4,93.2 "/>
<polygon class="st5" points="201.5,86.2 196.4,82.9 189.4,86.5 "/>
<polygon class="st11" points="211.5,126.6 196.2,136 182,121.4 "/>
<polygon class="st17" points="207.7,126.9 198.1,127.2 185.7,122.9 193.8,130.4 199.6,131.4 "/>
<polygon class="st18" points="211.5,126.6 199,122.5 182,121.4 198.1,127.7 "/>
<polygon class="st14" points="166.7,96 167.5,115.4 143,117.6 149,110.9 162.3,110.2 161.5,99.6 "/>
<polygon class="st15" points="186,141.8 158.5,136 181,153.4 "/>
<polygon class="st5" points="178.1,85.6 143,97.7 119.2,113.6 127.4,131.8 "/>
<polygon class="st5" points="176,79.2 154.4,52.8 117.1,86.5 "/>
<polygon class="st5" points="117.1,86.5 101.6,101.1 119.2,113.6 120.7,97.7 "/>
<polygon class="st19" points="210.1,70.4 210.1,65.1 203.1,53.1 154.4,52.8 169.9,77.4 "/>
<polygon class="st4" points="210.1,70.4 230.1,92.3 241,78.9 203.1,53.1 "/>
<polygon class="st4" points="210.1,70.4 119.2,113.6 117.1,86.5 "/>
<polygon class="st8" points="138.4,213.9 142.4,219.4 130.1,230.3 125.2,223.2 128.1,215.1 "/>
<polygon class="st14" points="107.2,193.9 121.6,225.7 138.4,213.9 127.4,189.2 "/>
<path class="st20" d="M216.4,101.7c0,1.7-1.4,3.2-3.1,3.2c-1.7,0-3.2-1.4-3.2-3.1c0-1.7,1.4-3.2,3.1-3.2c0,0,0,0,0,0
	C215,98.6,216.4,100,216.4,101.7C216.4,101.7,216.4,101.7,216.4,101.7z"/>
<path class="st20" d="M196,97.2c0,1.7-1.4,3.2-3.1,3.2c-1.7,0-3.2-1.4-3.2-3.1c0-1.7,1.4-3.2,3.1-3.2c0,0,0,0,0,0
	C194.6,94,196,95.4,196,97.2z"/>
</svg>
