<?xml version="1.0" encoding="utf-8"?>
<!-- Generator: Adobe Illustrator 27.3.0, SVG Export Plug-In . SVG Version: 6.00 Build 0)  -->
<svg version="1.1" id="Layer_1" xmlns="http://www.w3.org/2000/svg" xmlns:xlink="http://www.w3.org/1999/xlink" x="0px" y="0px"
	 viewBox="0 0 350 350" style="enable-background:new 0 0 350 350;" xml:space="preserve">
<style type="text/css">
	.st0{fill:#FFFFFF;}
	.st1{fill:#C3987B;}
	.st2{fill:#8B6651;}
	.st3{fill:#734D60;}
	.st4{fill:#DFBDA5;}
	.st5{fill:#B3889D;}
	.st6{fill:#96637C;}
	.st7{fill:#543042;}
	.st8{fill:#A3A3A3;}
	.st9{fill:#2B2B2B;}
	.st10{fill:#4F5253;}
	.st11{fill:#474747;}
	.st12{fill:#E8CAB6;}
	.st13{fill:#737373;}
	.st14{fill:#D1A1B8;}
</style>
<path class="st0" d="M328.1,125.4l10.9-10.9l10.9,10.9L339,136.3L328.1,125.4z"/>
<polygon class="st1" points="156.8,281.6 151.5,301.2 144.6,308.1 141.2,303.7 139.2,275.3 141.5,257.6 "/>
<polygon class="st2" points="143.1,270.4 158.4,275.5 156.8,281.6 139.2,275.3 "/>
<polygon class="st1" points="189.7,245.6 190.7,275.8 189.6,300.4 182.9,309.9 178.3,302.4 173.6,281.6 "/>
<polygon class="st2" points="178.9,266.8 190.7,275.8 173.6,281.6 171.9,275.6 "/>
<polygon class="st3" points="181.7,324.2 178.4,324.2 176.3,311.2 178.3,302.4 186,307.6 184.4,312.8 "/>
<polygon class="st3" points="141.2,303.7 136.1,314.8 139.9,324.5 "/>
<polygon class="st4" points="151.5,301.2 155.4,308.8 150.3,315.1 140.1,317.1 141.2,303.7 "/>
<polygon class="st5" points="140.1,317.1 155.4,308.8 157.2,312.2 154,317.1 139.9,320.6 "/>
<polygon class="st6" points="139.9,320.6 157.2,312.2 162.6,320.6 154.1,322.2 "/>
<polygon class="st4" points="189.6,300.2 198.4,309.7 193.8,314.6 186.9,317.1 178.3,302.4 "/>
<polygon class="st5" points="186.9,317.1 198.4,309.7 201,312.3 196.9,316.9 188.7,319.5 "/>
<polygon class="st6" points="188.7,320.2 201,312.3 209.3,320.2 198.4,321.9 "/>
<polygon class="st3" points="139.9,320.6 139.9,324.5 162.6,324.5 162.6,320.6 "/>
<polygon class="st3" points="184.4,312.8 182.6,314.4 183.4,316 191.4,324.4 209.3,324.4 209.3,320.2 194.5,320.2 "/>
<path class="st7" d="M123.6,263.2l39-8.8l42.5,9.9l-10.6-36.7L172.3,202l-35.4,32.8l-3,2.7L123.6,263.2L123.6,263.2z"/>
<path class="st6" d="M146.3,275l-9-40.6l4.7-11.7l30.6-25.9l20.2,25.3l-2.2,53.8l-24.8,2.6L146.3,275z"/>
<path class="st3" d="M139.2,275.3l-1.8-40.9l4.7-11.7l30.6-25.9l13.8,17.3l-20.5,64.3L139.2,275.3z"/>
<path class="st2" d="M283.9,168.8l-4.9,6.6l-3.9-2l-0.7-6.6L283.9,168.8z"/>
<path class="st1" d="M266.8,159.6l17.7-2l0.6,13.4l-18.9-2.9L266.8,159.6L266.8,159.6z"/>
<path class="st8" d="M268.4,171.9l55.9-38l2.6,3.7l-56.2,37.8L268.4,171.9z"/>
<path class="st4" d="M265.1,161.4l16.2,3.3l-1.7,3.9l-15.3,0.6L265.1,161.4z"/>
<path class="st6" d="M268.1,158l-16.9,2l-6,7l1.9,8l18.9,4L268.1,158z"/>
<path class="st3" d="M123.5,168.7l-6.1,38.6L134,215l6.7-0.6l1.6-8l1.2-15.9l-4.7-33.3l-14.1,3.8L123.5,168.7L123.5,168.7z"/>
<path class="st3" d="M123.5,168.7l-1.7,10.9l17.1,8.5l3.7-3.7l-3.8-27.2l-14,3.5L123.5,168.7z"/>
<path class="st3" d="M117.4,207.3l16.5,10.2l6.8-3.1l1.6-8L117.4,207.3L117.4,207.3z"/>
<path class="st9" d="M64.8,125.3l22.8,30.9l6.4,0.2l5.8-19.2l-3.4-7.6L64.8,125.3z"/>
<path class="st10" d="M185.9,103.1l-72.7,60.8l-25.6-7.7l28.5-85.9L185.9,103.1L185.9,103.1z"/>
<path class="st9" d="M185.9,103.1l-8.3,27.5l-64.4,33.3l33.3-79.3L185.9,103.1z"/>
<path class="st11" d="M195.6,45.3l18.2,28.6l-15.6,38.6L183,47.3L195.6,45.3z"/>
<path class="st9" d="M195.6,45.3l18.2,28.6L183,47.3L195.6,45.3L195.6,45.3z"/>
<path class="st1" d="M151.9,159.8L118.6,82l19-13.5L157.4,92l21.2,49.6l-7.2,33.7L151.9,159.8z"/>
<path class="st4" d="M191.7,54.8l11.4,84.3l-46.3,8.2l-20-78.6L191.7,54.8z"/>
<path class="st0" d="M174.6,131.3l-7.3-2.7l7.8-2.3l5.8,1.2l6.2-0.9l2.3,0.3l-10.3,4.7L174.6,131.3z"/>
<path class="st2" d="M178.4,143.3l-7,32.2l-19.7-27.7L178.4,143.3z"/>
<path class="st11" d="M132,77.7l14.3,69.1l-36.6-57.2L132,77.7L132,77.7z"/>
<path class="st12" d="M141.7,104.4l-11.4,2.6l5.9,14.6l9.6-3.9L141.7,104.4L141.7,104.4z"/>
<path class="st2" d="M139.3,107.8l-5.3,1.5l2.3,4.2L139.3,107.8z"/>
<path class="st3" d="M142,115.6l2.7,8.4l-4.3,1.2l-2.2-8.3L142,115.6L142,115.6z"/>
<path class="st12" d="M178.7,91.1l5.4,22.7l-8.1,1.1l-3.4-23L178.7,91.1z"/>
<path class="st2" d="M179.6,118.7l4.5-4.9l-8.1,1.1L179.6,118.7L179.6,118.7z"/>
<path class="st1" d="M157,94l15.6-2.1l3.4,23L157,94z"/>
<path class="st1" d="M182.9,108.6l7.9-20.5l-12.1,3L182.9,108.6z"/>
<path class="st9" d="M155.1,89l17.5,2.9l-21.9,2.6L155.1,89z"/>
<path class="st3" d="M189.4,126.9l-10.4-3.4l-11.7,5.1L189.4,126.9L189.4,126.9z"/>
<path class="st5" d="M178.5,134.1l10.9-7.2l-10.3,2.8l-11.8-1.1L178.5,134.1L178.5,134.1z"/>
<path class="st9" d="M194.2,87.1l-15.5,4l12.3-9.4L194.2,87.1z"/>
<path class="st10" d="M206.2,54.8l-61.3,45.7l-43.5-13.4l14.7-16.8l72.4-38.5L206.2,54.8L206.2,54.8z"/>
<path class="st9" d="M101.4,87.1l11-20l76.1-35.3L101.4,87.1z"/>
<path class="st13" d="M214.4,54l-69.5,46.5l43.6-68.7L214.4,54z"/>
<path class="st3" d="M184.5,164.1l7.5-1.8l3.4-4.2l55.8,1.9l-4.1,15l-58.9,12.6L184.5,164.1L184.5,164.1z"/>
<path class="st6" d="M133.1,164.8l5.7-7.6l2.8-1l14.5,8.3l15.6,7.5l5.3,9.4l-4.6,24.6l-3.9,6.4l-6.9,6.3l-34.5,35.8l-1-19.7
	l16.2-28.4L133.1,164.8L133.1,164.8z"/>
<path class="st5" d="M161.6,218.7l-38,44.5l-1.1-30.7l19.8-26.1L161.6,218.7z"/>
<path class="st5" d="M192.5,207.5l10.6,33.5l-1.3,13.5l-22.7-36.4l-5.5-6.1l-1.2-6l-0.7-34l12.9-9.5l-3-6.2l11.5,2.9l2,3.3
	L192.5,207.5L192.5,207.5z"/>
<path class="st14" d="M192.5,207.5l15.8,33.1l-3.2,23.7l-19.5-34.8l-6.5-11.4L192.5,207.5z"/>
<path class="st3" d="M177.3,147.3l4.3,9l2.6,3.8l0.4,2.4l-5.4,8.1l-7.5,1.4L177.3,147.3z"/>
<path class="st3" d="M141.6,156.2l4.5-9.7l25.6,25.5l-19.1-0.1L141.6,156.2z"/>
<path class="st5" d="M141.6,156.2l-16.8,4.5l-1.3,7.9v0.1l21.8-7.3L141.6,156.2z"/>
<path class="st14" d="M181.6,156.3l13.8,1.8l-0.3,4.4h-10.5l-1-2.2L181.6,156.3z"/>
<path class="st14" d="M179.1,218.1l-17.5,0.6l10.8-12.7L179.1,218.1L179.1,218.1z"/>
<path class="st10" d="M324.3,133.9l1.7-2.7l3.9,5.5l-3,0.9L324.3,133.9z"/>
<path class="st10" d="M266.6,172.6l1.8-0.7l2.3,3.5l-1.2,1.4L266.6,172.6L266.6,172.6z"/>
<path class="st14" d="M168.3,186.1l3.7-3.6l3.1,3.8l-3,3.7L168.3,186.1L168.3,186.1z"/>
<path class="st14" d="M168.5,199.9l3.7-3.6l3.1,3.7l-3,3.6L168.5,199.9L168.5,199.9z"/>
<circle class="st9" cx="163.1" cy="101" r="3.2"/>
<circle class="st9" cx="188.5" cy="96.7" r="3.2"/>
</svg>
