<?xml version="1.0" encoding="utf-8"?>
<!-- Generator: Adobe Illustrator 27.3.0, SVG Export Plug-In . SVG Version: 6.00 Build 0)  -->
<svg version="1.1" id="Layer_1" xmlns="http://www.w3.org/2000/svg" xmlns:xlink="http://www.w3.org/1999/xlink" x="0px" y="0px"
	 viewBox="0 0 350 350" style="enable-background:new 0 0 350 350;" xml:space="preserve">
<style type="text/css">
	.st0{opacity:0.1;fill-rule:evenodd;clip-rule:evenodd;enable-background:new    ;}
	.st1{fill-rule:evenodd;clip-rule:evenodd;fill:#785D88;}
	.st2{fill-rule:evenodd;clip-rule:evenodd;fill:#594165;}
	.st3{fill-rule:evenodd;clip-rule:evenodd;fill:#9075A0;}
	.st4{fill-rule:evenodd;clip-rule:evenodd;fill:#A688BA;}
	.st5{fill-rule:evenodd;clip-rule:evenodd;fill:#96637C;}
	.st6{fill:#543042;}
	.st7{fill-rule:evenodd;clip-rule:evenodd;fill:#FEFEFE;}
	.st8{fill-rule:evenodd;clip-rule:evenodd;fill:#DFBDA5;}
	.st9{fill-rule:evenodd;clip-rule:evenodd;fill:#C3987B;}
	.st10{fill-rule:evenodd;clip-rule:evenodd;fill:#474747;}
	.st11{fill-rule:evenodd;clip-rule:evenodd;fill:#B3889D;}
	.st12{fill-rule:evenodd;clip-rule:evenodd;fill:#734D60;}
	.st13{fill-rule:evenodd;clip-rule:evenodd;fill:#E8CAB6;}
	.st14{fill-rule:evenodd;clip-rule:evenodd;fill:#8B6651;}
	.st15{fill-rule:evenodd;clip-rule:evenodd;fill:#6F7173;}
	.st16{fill-rule:evenodd;clip-rule:evenodd;fill:#8F8F8F;}
	.st17{fill-rule:evenodd;clip-rule:evenodd;fill:#543042;}
	.st18{fill:#2B2B2B;}
</style>
<polygon class="st0" points="117,308.9 194.5,299.8 251.2,306.4 195.2,313.9 "/>
<polygon class="st1" points="173.6,264.9 183,277.7 196.1,274.4 205.7,266.6 195.2,226.6 177,254.3 "/>
<polygon class="st2" points="183,277.7 194.5,294.1 208.8,290.7 211.1,287.1 205.7,266.6 "/>
<polygon class="st3" points="144.5,227.2 195.2,226.6 177,254.3 161.3,247.1 "/>
<polygon class="st4" points="177,254.3 172.3,274.4 159.1,279.8 145.8,275 140.4,248.4 139.3,237.5 144.5,227.2 "/>
<polygon class="st1" points="172.3,274.4 168,292.4 160.1,296.5 149.7,295.8 145.8,275 "/>
<polygon class="st5" points="168,292.4 173.8,306 161.8,307.3 149.4,306 149.7,295.8 "/>
<polygon class="st5" points="211.1,287.1 227.7,302.7 208.5,304 194.8,302.7 194.5,294.1 "/>
<rect x="149.4" y="306" class="st6" width="24.4" height="4.3"/>
<rect x="194.8" y="302.7" class="st6" width="32.8" height="4.3"/>
<polygon class="st7" points="140.1,156.1 169.8,186.8 178.1,154.7 158.5,151.6 "/>
<polygon class="st8" points="177.4,80.4 184.5,72.9 192.4,71.4 204,134.9 183.1,140.3 158.1,142 146,98.8 143.6,78.4 160.9,76.3 "/>
<polygon class="st9" points="173.1,144.8 204,134.9 158.1,143.3 148.8,96.8 143.6,78.4 133.4,90.9 136.3,100.6 143.4,112.5 
	140.2,113.3 138.4,116.8 134.6,114.1 131.6,107.5 128.2,112.7 124.1,115 130.2,120 132.9,126.1 134.7,129.9 135.6,137.6 140,156.5 
	178.1,154.7 "/>
<polygon class="st10" points="195.8,89.8 198.8,67.7 187.5,69.6 "/>
<polygon class="st11" points="198.4,161.3 205,181.2 203.1,199.6 190.8,208.1 190.2,178.3 "/>
<polygon class="st5" points="200.6,196.1 203.1,199.6 217.1,201.2 214.4,215.6 192.8,216.7 191.4,200.7 "/>
<polygon class="st12" points="200,198.1 199.2,205.6 209.1,215 217.1,201.2 209.7,200.1 "/>
<polygon class="st9" points="207.6,191.8 204,187.9 217.3,170.6 220.6,173.7 215.2,183 213,189.7 "/>
<polygon class="st9" points="207.6,188.6 218.6,199.8 210.7,207.6 204.7,202.4 "/>
<polygon class="st8" points="205,181.2 201.4,181.3 200,198.1 204.7,202.4 207.6,191.8 "/>
<polygon class="st13" points="207.6,191.8 215.2,183 222.9,195.7 217.1,201.2 "/>
<polygon class="st9" points="154.3,94.1 168.2,101.3 176.3,115.4 175.3,102.3 173.1,95.2 "/>
<polygon class="st9" points="181.8,89.3 179.7,94.3 179.4,99.5 182,105.8 193.6,87 188.1,80.9 "/>
<polygon class="st10" points="173.1,95.2 155.4,89.7 154.3,94.1 169.9,99.1 "/>
<polygon class="st10" points="179.7,86.6 188.1,80.9 193.6,87 190.4,89.5 186.6,85.2 181.8,89.3 "/>
<polygon class="st13" points="179.7,94.3 183.6,113.6 180.5,115.7 176.3,115.4 173.1,95.2 "/>
<polygon class="st14" points="190.8,125.7 177.1,126.7 166.4,123.4 168.1,119.1 162.2,122.9 163.8,130.3 165.8,126.3 177.1,129.6 
	"/>
<polygon class="st8" points="138.4,116.8 140,120.4 132.9,126.1 124.1,115 131.6,107.5 "/>
<polygon class="st15" points="177.4,80.4 198.8,67.7 176.1,53.4 174.3,68.2 "/>
<polygon class="st16" points="177.4,80.4 176.1,53.4 117,75.7 129.8,79.6 143.6,78.4 "/>
<polygon class="st15" points="117,75.7 114.8,110.2 125.1,101.5 133.4,90.9 143.6,78.4 "/>
<polygon class="st10" points="133.4,90.9 143.4,112.5 138.4,116.8 131.6,107.5 124.1,115 114.8,110.2 "/>
<polygon class="st14" points="128.2,115.4 130.9,112.7 134.3,118.4 "/>
<polygon class="st14" points="132.9,126.1 137.9,122 135.7,138 "/>
<polygon class="st14" points="183.6,113.6 180.4,118.8 176.3,115.4 "/>
<polygon class="st5" points="140.1,156.1 168.1,176.9 152,189.8 132.1,202 125.4,186.6 120.8,166.6 "/>
<polygon class="st5" points="178.1,154.7 198.4,161.3 192.2,181.9 180.8,184.3 168.1,176.9 "/>
<polygon class="st12" points="132.1,202 137.7,221.4 144.5,227.2 173.7,230.2 173.8,201.2 168.1,176.9 "/>
<polygon class="st17" points="168.1,176.9 192.2,181.9 195.2,226.6 173.7,230.2 "/>
<path class="st18" d="M190.2,96.3c0,1.5-1.2,2.8-2.8,2.8c-1.5,0-2.8-1.2-2.8-2.8c0-1.5,1.2-2.8,2.8-2.8S190.2,94.7,190.2,96.3
	C190.2,96.3,190.2,96.3,190.2,96.3z"/>
<path class="st18" d="M168.2,101.3c0,1.5-1.2,2.8-2.7,2.8c-1.5,0-2.8-1.2-2.8-2.7c0-1.5,1.2-2.8,2.7-2.8c0,0,0,0,0,0
	C167,98.5,168.2,99.7,168.2,101.3z"/>
<polygon class="st14" points="150.3,143 204,134.9 178.1,146.3 178.1,154.7 "/>
<polygon class="st5" points="127.7,204.7 144.5,227.2 134.1,239.6 116.9,224.7 "/>
<polygon class="st8" points="140.4,248.4 134.1,239.6 144.5,227.2 "/>
<polygon class="st11" points="120.8,166.6 105.9,215.2 116.9,224.7 132.1,202 "/>
</svg>
