<?xml version="1.0" encoding="utf-8"?>
<!-- Generator: Adobe Illustrator 27.3.0, SVG Export Plug-In . SVG Version: 6.00 Build 0)  -->
<svg version="1.1" id="Layer_1" xmlns="http://www.w3.org/2000/svg" xmlns:xlink="http://www.w3.org/1999/xlink" x="0px" y="0px"
	 viewBox="0 0 350 350" style="enable-background:new 0 0 350 350;" xml:space="preserve">
<style type="text/css">
	.st0{opacity:0.1;fill:#2B2B2B;enable-background:new    ;}
	.st1{fill:#1C7678;}
	.st2{fill:#27788C;}
	.st3{fill:#3AA0BA;}
	.st4{fill:#318FA6;}
	.st5{fill:#5EC0D9;}
	.st6{fill:#369496;}
	.st7{fill:#165E60;}
	.st8{fill:#50A9AA;}
	.st9{fill:#72CBCC;}
	.st10{fill:#C3987B;}
	.st11{fill:#C4C4C4;}
	.st12{fill:#8F8F8F;}
	.st13{fill:#DFBDA5;}
	.st14{fill:#8B6651;}
	.st15{fill:#474747;}
	.st16{fill:#FFFFFF;}
	.st17{fill:#E5C828;}
	.st18{fill:#6F7173;}
	.st19{fill:#DDDDDC;}
	.st20{fill:#2B2B2B;}
	.st21{fill:#E8CAB6;}
</style>
<polygon class="st0" points="106.3,309.3 212.2,303.6 312.7,309.5 216.7,317 "/>
<polygon class="st1" points="299.6,235.1 307,221.2 312.7,220.2 314.6,274.3 310,274.4 "/>
<polygon class="st2" points="138.5,45.6 190.3,78.7 200.8,68.8 206.7,59 200.7,54.7 "/>
<polygon class="st3" points="231,69.4 239.3,71 289.6,106.3 228.8,94.1 228.4,79.5 "/>
<polygon class="st4" points="228.8,94.1 190.3,78.7 206.7,59 219.2,62.3 231,69.4 "/>
<polygon class="st5" points="209.8,77.5 222.6,57.4 216.3,83.3 206,106 198.1,104.8 "/>
<polygon class="st3" points="216,62.8 224.1,66.4 216.3,83.3 209.8,77.5 "/>
<polygon class="st5" points="201.6,56.9 238.1,72.3 238.6,57.3 235.2,36.3 231.4,33.3 227.4,33.5 210.8,45.6 "/>
<polygon class="st3" points="227.4,33.5 138.5,45.6 201.6,56.9 "/>
<polygon class="st4" points="235.2,36.3 289.6,106.3 238.1,72.3 "/>
<polygon class="st3" points="227.4,33.5 229.6,28 237.2,30.7 235.2,36.3 "/>
<polygon class="st1" points="273.3,178.2 268.1,217.7 268.9,223.2 266.1,232.2 257.2,204.4 254.1,186.9 262.3,181.3 "/>
<polygon class="st6" points="268.1,217.7 291.7,224.1 286,240.1 273.7,261 267.3,244.1 266.1,232.2 "/>
<polygon class="st1" points="291.7,224.1 296,238.9 295.9,252.4 273.7,261 "/>
<polygon class="st7" points="295.9,252.4 310,274.4 307,221.2 291.7,224.1 "/>
<polygon class="st1" points="262.1,264.7 258.7,288.5 238.4,285.4 217.6,278.5 240.1,269.8 "/>
<polygon class="st6" points="258.7,288.5 243.9,293 235.4,294.1 217.6,278.5 "/>
<polygon class="st7" points="235.4,294.1 215.5,308 238.8,309.2 260,308 258.7,288.5 "/>
<polygon class="st8" points="119.9,157.7 139.8,177.8 149.4,198.5 122.2,215.2 113.5,194 114.4,177 "/>
<polygon class="st9" points="114.4,177 106.1,177 89.7,172.8 82.6,177 81.3,183.6 83.8,195.7 122.2,215.2 "/>
<polygon class="st10" points="84.7,177 71,175.9 51.5,177 83.8,195.7 "/>
<polygon class="st1" points="119.9,158.2 150.5,210.5 193.3,195.1 265.4,164.7 233.1,109.7 162.4,129.5 "/>
<polygon class="st11" points="194.1,104.1 189.7,141.3 190.2,163.1 171.6,166.8 165.4,169.5 154.4,170.9 145,174.8 132.1,154.6 
	119.9,158.2 147.7,205.9 171,293 273.7,261 254.1,186.9 273.3,178.2 265.4,164.7 249.8,170.8 204.9,172.2 208,146.9 206,106 "/>
<polygon class="st12" points="254.1,186.9 214.7,217.8 227.8,240 196.2,276 163.4,264.4 151.6,220.2 234.5,181 "/>
<polygon class="st13" points="138.3,51 114.1,68.7 89.7,65.9 119.9,158.2 149.4,151.8 165.4,169.5 178.1,147.6 194.1,104.1 
	188.2,104.6 184.9,102.9 187.1,84.9 170.4,79.7 168,99.6 159.4,97.5 166.3,53.5 "/>
<polygon class="st10" points="138.3,51 166.8,143.9 149.9,149.3 158.3,158.1 165.4,169.5 168.8,157.1 174.8,148 194.1,104.1 
	184.9,102.9 174.4,101.9 169.2,101 158.8,99 164.7,53.2 "/>
<polygon class="st14" points="174.6,96.2 175.4,88 182.5,88.7 "/>
<polygon class="st14" points="184.9,102.9 169.2,101 184,109.7 "/>
<polygon class="st14" points="123.2,114.1 129.4,116.9 132.6,111.2 "/>
<polygon class="st10" points="138,84.7 131.4,89.9 132.6,111.2 125.8,96.2 124.5,84.6 "/>
<polygon class="st10" points="115.1,87.7 121.5,96.2 120.7,106 110.6,94.3 103.5,93.5 "/>
<polygon class="st14" points="167.3,143.7 174.8,148 171.9,158.7 165.4,169.5 157.1,160.4 149.9,149.3 "/>
<polygon class="st15" points="114,84.1 102.2,89.4 103.5,93.5 115.1,87.7 "/>
<polygon class="st15" points="123.4,81 137.4,80.5 138,84.7 124.5,84.6 "/>
<polygon class="st10" points="152.2,115.1 114.4,127 133.9,131.8 "/>
<polygon class="st16" points="143.1,120.4 122.7,126.8 133.6,130 "/>
<polygon class="st4" points="32.8,126.4 101,126.4 101,138.6 55.4,140.2 32.8,138.6 "/>
<polygon class="st5" points="32.8,148.2 62.8,149.6 101,148.2 101,138.6 32.8,138.6 "/>
<polygon class="st3" points="32.8,148.2 101,148.2 101,157.9 65.7,158.7 32.8,157.9 "/>
<polygon class="st5" points="32.8,162.7 66.6,163.1 101,162.7 101,157.9 32.8,157.9 "/>
<polygon class="st4" points="32.8,162.7 101,162.7 101,167.4 63.6,168.1 32.8,167.4 "/>
<polygon class="st5" points="32.8,172.2 65.2,173.2 101,172.2 101,167.4 32.8,167.4 "/>
<polygon class="st2" points="27.7,172.2 106.1,172.2 106.1,177 27.7,177 "/>
<polygon class="st17" points="36.6,103.1 39.7,98.1 42.7,103.1 39.7,108.2 "/>
<polygon class="st4" points="37.7,106.4 41.6,106.4 41.6,126.9 37.7,126.9 "/>
<polygon class="st17" points="50.4,103.1 53.4,98.1 56.4,103.1 53.4,108.2 "/>
<polygon class="st4" points="51.5,106.4 55.3,106.4 55.3,126.9 51.5,126.9 "/>
<polygon class="st17" points="77.6,103.1 80.7,98.1 83.7,103.1 80.7,108.2 "/>
<polygon class="st4" points="78.8,106.4 82.6,106.4 82.6,126.9 78.8,126.9 "/>
<polygon class="st17" points="91.5,103.1 94.4,98.1 97.5,103.1 94.4,108.2 "/>
<polygon class="st4" points="92.6,106.4 96.4,106.4 96.4,126.9 92.6,126.9 "/>
<polygon class="st2" points="59,118.6 74.8,118.6 66.9,126.6 "/>
<polygon class="st5" points="59,118.6 66.9,110.7 74.8,118.6 "/>
<polygon class="st5" points="87.4,126.4 101,126.4 94.2,133.2 87.4,126.4 73.8,126.4 66.9,133.2 60.1,126.4 46.5,126.4 39.6,133.2 
	32.8,126.4 46.5,126.4 53.3,133.2 60.1,126.4 73.8,126.4 80.6,133.2 "/>
<polygon class="st15" points="123.2,33.8 154,36.8 146.9,47.3 138.3,51 114.3,71.4 116.1,53.1 "/>
<polygon class="st18" points="154,36.8 179.3,40 170.4,50.7 163.2,54.7 138.3,51 "/>
<polygon class="st15" points="179.3,40 187.1,84.9 171.4,82.7 169.2,101 157.6,99.7 163.2,54.7 "/>
<polygon class="st12" points="114.3,71.4 123.2,33.8 89.7,65.9 "/>
<polygon class="st2" points="167.4,190 153.9,195.6 132.4,231.7 193.1,265.9 197.8,257.5 145,227.6 "/>
<polygon class="st2" points="157.8,197.9 153.9,195.6 167.4,190 164.2,195.3 161.2,197.6 "/>
<polygon class="st19" points="164.2,195.3 157.8,197.9 139,230.1 143.7,229.6 145,227.6 156.2,212.1 "/>
<polygon class="st11" points="145,227.6 139,230.1 192.3,260 197.8,257.5 168.4,238.5 "/>
<polygon class="st3" points="167.4,190 224.9,223.8 205.4,261.9 145,227.6 "/>
<polygon class="st2" points="185.1,224.5 204.1,228.5 214.7,217.8 207.2,213.2 "/>
<polygon class="st13" points="192.8,192.9 204.6,197.6 211.3,203.5 203,222.8 191.2,217.6 180.6,209.5 "/>
<polygon class="st14" points="180.6,209.5 185.1,224.5 203,222.8 "/>
<polygon class="st10" points="192.8,192.9 180.2,197.5 186.6,201.3 "/>
<polygon class="st9" points="206,106 233.1,109.7 254.1,186.9 228.1,181.5 204.9,172.2 203.9,140.5 "/>
<polygon class="st8" points="254.1,186.9 211.3,203.5 192.8,192.9 204.9,172.2 "/>
<polygon class="st8" points="194.1,104.1 193.1,141.3 190.2,163.1 165.4,169.5 174.8,148 "/>
<polygon class="st9" points="149.9,149.3 165.4,169.5 154.6,172.3 145,174.8 137.4,165.4 132.1,154.6 "/>
<polygon class="st19" points="204.9,172.2 190.2,163.1 194.1,104.1 206,106 "/>
<polygon class="st19" points="145,174.8 136.4,186.5 119.9,158.2 132.1,154.6 "/>
<path class="st20" d="M111.5,94.7c1.7-0.1,3,1.2,3.1,2.9c0,0.1,0,0.1,0,0.2c0.1,1.7-1.2,3.2-2.9,3.3c-1.7,0.1-3.2-1.2-3.3-2.9
	c0-0.1,0-0.2,0-0.4c-0.1-1.7,1.3-3,2.9-3.1C111.4,94.7,111.5,94.7,111.5,94.7z"/>
<path class="st20" d="M133.8,88.6c1.7,0,3.1,1.4,3.1,3.1c0,0,0,0,0,0.1c0,1.7-1.4,3.1-3.1,3.1c-1.7,0-3.1-1.4-3.1-3.1c0,0,0,0,0,0
	C130.7,90,132,88.6,133.8,88.6C133.7,88.6,133.8,88.6,133.8,88.6z"/>
<polygon class="st21" points="124.5,84.6 115.1,87.7 123.2,114.1 132.6,111.2 "/>
<rect x="215.5" y="308" class="st1" width="44.5" height="4.7"/>
</svg>
