<?xml version="1.0" encoding="utf-8"?>
<!-- Generator: Adobe Illustrator 27.3.0, SVG Export Plug-In . SVG Version: 6.00 Build 0)  -->
<svg version="1.1" id="Layer_1" xmlns="http://www.w3.org/2000/svg" xmlns:xlink="http://www.w3.org/1999/xlink" x="0px" y="0px"
	 viewBox="0 0 350 350" style="enable-background:new 0 0 350 350;" xml:space="preserve">
<style type="text/css">
	.st0{opacity:0.1;fill-rule:evenodd;clip-rule:evenodd;enable-background:new    ;}
	.st1{fill-rule:evenodd;clip-rule:evenodd;fill:#DFBDA5;}
	.st2{fill-rule:evenodd;clip-rule:evenodd;fill:#C3987B;}
	.st3{fill-rule:evenodd;clip-rule:evenodd;fill:#8B6651;}
	.st4{fill-rule:evenodd;clip-rule:evenodd;fill:#2B2B2B;}
	.st5{fill-rule:evenodd;clip-rule:evenodd;fill:#6F7173;}
	.st6{fill-rule:evenodd;clip-rule:evenodd;fill:#755800;}
	.st7{fill-rule:evenodd;clip-rule:evenodd;fill:#856400;}
	.st8{fill-rule:evenodd;clip-rule:evenodd;fill:#9E7700;}
	.st9{fill-rule:evenodd;clip-rule:evenodd;fill:#E5C828;}
	.st10{fill-rule:evenodd;clip-rule:evenodd;fill:#CCAD14;}
	.st11{fill-rule:evenodd;clip-rule:evenodd;fill:#4F5253;}
	.st12{fill-rule:evenodd;clip-rule:evenodd;fill:#474747;}
	.st13{fill-rule:evenodd;clip-rule:evenodd;fill:#E8CAB6;}
	.st14{fill-rule:evenodd;clip-rule:evenodd;fill:#FFFFFF;}
	.st15{fill:#2B2B2B;}
	.st16{fill-rule:evenodd;clip-rule:evenodd;fill:#8F8F8F;}
	.st17{fill-rule:evenodd;clip-rule:evenodd;fill:#F4D75D;}
</style>
<polygon class="st0" points="93.1,320.9 178.7,311.1 248.8,319.3 177,326 "/>
<polygon class="st1" points="189.3,152.5 222,186.8 218.9,193.3 200.1,186.1 189.8,177.3 191,162.3 "/>
<polygon class="st2" points="200.1,186.1 236.7,177.3 239.6,180 240.3,187.8 217.3,198.8 "/>
<polygon class="st3" points="240.3,178.7 249.4,170.4 253.2,176.9 252.7,185.5 240.3,187.8 238.7,183.2 "/>
<polygon class="st2" points="248.9,167.7 255.3,166.6 260.9,180.4 252.7,185.5 249,178.1 "/>
<polygon class="st1" points="236.7,177.3 238.7,183.2 244.1,180.1 245.5,175.5 249.8,179.6 253.1,178.5 248.9,167.7 243.5,170.1 "/>
<polygon class="st4" points="131.8,138.5 158.2,139.8 158.2,117.3 "/>
<polygon class="st5" points="124.1,78.5 106.7,105 132.5,98.6 "/>
<polygon class="st6" points="164.2,320.9 139.3,320.4 138.3,313 150.1,313 "/>
<polygon class="st1" points="148,159.4 127.4,188.2 134.7,192.9 148.7,188.2 150.3,167.3 "/>
<polygon class="st2" points="148.7,188.2 110.3,176.8 107.3,179.3 106.2,187.1 131.3,199.5 "/>
<polygon class="st6" points="199.1,302.9 176.9,290.2 180.1,283.4 191.1,293 "/>
<polygon class="st7" points="163.1,273.9 182.6,266.1 194.7,240.3 156,250 "/>
<polygon class="st1" points="194.4,277.4 201.2,300.4 198.1,299.7 194.6,297.9 184.9,288.4 183.2,282.6 185.6,277.9 189.8,270.2 "/>
<polygon class="st2" points="199.1,241 194.4,277.4 185.6,277.9 182.6,266.1 190.5,239.5 "/>
<polygon class="st1" points="150.3,293.2 149.1,303.2 165.1,317.8 161.4,319 146.6,315.5 140.7,311.2 139.4,304.8 "/>
<polygon class="st2" points="156.7,287.4 149.1,303.2 139.4,304.8 142.3,282.3 146.1,275.7 "/>
<polygon class="st3" points="142.5,282.2 156.7,287.4 163.1,273.9 150.8,270.2 "/>
<polygon class="st3" points="180.5,257.8 182.6,266.1 199.1,241 186.1,236 "/>
<polygon class="st1" points="147.9,159.1 189.3,152.5 176.4,173.4 "/>
<polygon class="st8" points="147.9,159.1 148.7,188.2 168.6,178.6 176.2,170.4 "/>
<polygon class="st8" points="176.2,170.4 189.3,152.5 200.1,186.1 182.7,181 "/>
<polygon class="st6" points="148.7,188.2 149.3,207 176.3,233 200.1,186.1 176.2,170.4 "/>
<polygon class="st9" points="151.2,216.5 199.1,241 162.1,274.4 153.4,272.9 132.1,227.6 "/>
<polygon class="st10" points="132.1,227.6 163.1,273.9 142.3,282.3 "/>
<polygon class="st3" points="106.7,178 98,169.3 93.9,175.5 93.8,184.1 106.2,187.1 108,182.5 "/>
<polygon class="st2" points="98.6,166.6 92.3,165.1 85.9,178.5 93.8,184.1 97.9,176.9 "/>
<polygon class="st1" points="110.3,176.8 108,182.5 102.7,179.2 101.6,174.5 97.1,178.4 93.9,177.1 98.6,166.6 103.9,169.3 "/>
<polygon class="st4" points="242.1,101.3 241.4,113.9 223.7,113.1 227.6,92.8 "/>
<polygon class="st11" points="236.4,74.2 249.7,96.4 235,100.6 229.1,96.6 226.8,79.4 "/>
<polygon class="st12" points="249.7,96.4 229.1,96.6 218.7,102.7 223.7,113.1 "/>
<polygon class="st12" points="106.7,105 139.7,120.4 156.1,122.2 156.7,102.8 147.9,87.8 "/>
<polygon class="st7" points="223.8,101.2 229.4,121.2 215.8,125.8 218.1,118.7 221.7,117.5 220.3,112.1 219.3,107.9 "/>
<polygon class="st1" points="154.1,105.4 158.2,129.1 165.9,150.9 179.6,151.8 187.7,142.1 211.8,149.7 236.4,74.2 178.1,88.3 "/>
<polygon class="st2" points="179.3,105 171.5,138.3 187.7,142.1 178.2,153.4 177.3,161.5 160,157.1 156.1,122.2 157.5,116.3 
	154.1,105.4 173.2,89.6 "/>
<polygon class="st2" points="217.1,91.9 214.7,93.8 209.6,109.3 220.8,99.5 225.2,95.8 "/>
<polygon class="st2" points="209.5,92.1 205.8,87.9 193.8,87.6 201.1,101.3 202,112.8 "/>
<polygon class="st3" points="168,116 156.1,122.2 154.1,105.4 165.3,93.9 175.7,103.1 "/>
<polygon class="st13" points="209.5,92.1 214.7,93.8 207.9,114.7 202,112.8 "/>
<polygon class="st3" points="202,112.8 203.9,117.3 207.9,114.7 "/>
<polygon class="st3" points="234.8,79.1 178.7,107.9 168.7,107.2 172.4,98.3 205.8,87.9 236.4,74.2 "/>
<polygon class="st11" points="143.6,75.7 140.4,68 109.6,60.2 133.5,114.3 149,100.6 151,89.5 "/>
<polygon class="st5" points="133.5,79.8 109.6,60.2 154.1,55.7 148.7,71.3 "/>
<polygon class="st11" points="208.4,49.6 171,36 133.5,79.8 179.1,67 "/>
<polygon class="st4" points="219.7,86.4 225.2,95.8 217.1,91.9 "/>
<polygon class="st7" points="182.7,115.5 203.4,118.8 215,127.1 196.3,139.4 "/>
<polygon class="st12" points="191.7,125.1 199,122.7 205.4,130 200.6,133.3 195.4,131.5 "/>
<polygon class="st14" points="191.7,125.1 205.4,130 210.3,126.7 188,118.7 "/>
<polygon class="st7" points="172.9,101.5 168,116 148.1,109.7 149.2,106.3 154.1,105.4 164.4,108.4 166.2,102.9 "/>
<polygon class="st3" points="187.7,142.1 166.3,135.2 177.3,161.5 "/>
<polygon class="st4" points="151,89.5 133.5,114.3 172.9,101.5 "/>
<path class="st15" d="M221.9,102.7c0,1.8-1.4,3.2-3.2,3.2c-1.8,0-3.2-1.4-3.2-3.2c0-1.8,1.4-3.2,3.2-3.2S221.9,101,221.9,102.7
	C221.9,102.7,221.9,102.7,221.9,102.7z"/>
<path class="st15" d="M202.9,96.4c0,1.8-1.4,3.2-3.2,3.2s-3.2-1.4-3.2-3.2s1.4-3.2,3.2-3.2l0,0C201.5,93.2,202.9,94.6,202.9,96.4z"
	/>
<polygon class="st12" points="245.9,69.1 179.3,105 133.5,79.8 186.7,72.7 "/>
<polygon class="st16" points="245.9,69.1 225,42.9 133.5,79.8 "/>
<polygon class="st12" points="106.7,105 156.1,122.2 131.8,138.5 "/>
<polygon class="st2" points="139.4,304.8 146.6,315.5 168.4,317.1 164.2,320.9 138.3,313 "/>
<polygon class="st8" points="157.4,310.8 153.4,317.6 156.7,318.6 160.1,313.2 "/>
<polygon class="st2" points="185.6,277.9 184.9,288.4 204.5,301 199.1,302.9 180.1,283.4 "/>
<polygon class="st8" points="198,289.6 190.9,294.5 193,296.7 199,293.1 "/>
<polygon class="st17" points="199.1,241 132.1,227.6 149.3,207 "/>
</svg>
