<?xml version="1.0" encoding="utf-8"?>
<!-- Generator: Adobe Illustrator 27.3.0, SVG Export Plug-In . SVG Version: 6.00 Build 0)  -->
<svg version="1.1" id="Layer_1" xmlns="http://www.w3.org/2000/svg" xmlns:xlink="http://www.w3.org/1999/xlink" x="0px" y="0px"
	 viewBox="0 0 350 350" style="enable-background:new 0 0 350 350;" xml:space="preserve">
<style type="text/css">
	.st0{fill-rule:evenodd;clip-rule:evenodd;fill:#9DA1A2;}
	.st1{fill-rule:evenodd;clip-rule:evenodd;fill:#DDDDDC;}
	.st2{opacity:0.1;fill-rule:evenodd;clip-rule:evenodd;enable-background:new    ;}
	.st3{fill-rule:evenodd;clip-rule:evenodd;fill:#ECECEB;}
	.st4{fill:#474747;}
	.st5{fill:#8F8F8F;}
	.st6{opacity:0.1;fill:#2B2B2B;enable-background:new    ;}
	.st7{fill:#C3987B;}
	.st8{fill:#6F7173;}
	.st9{fill:#1C7678;}
	.st10{fill:#DFBDA5;}
	.st11{fill:#8B6651;}
	.st12{fill:#2B2B2B;}
	.st13{fill:#E8CAB6;}
	.st14{fill:#27788C;}
	.st15{fill:#3AA0BA;}
	.st16{fill:#72CBCC;}
	.st17{fill:#369496;}
	.st18{fill:#50A9AA;}
	.st19{fill:#318FA6;}
</style>
<path class="st0" d="M133.7,84.3l-20.7-35l5.1-3l20.7,34.8L133.7,84.3z"/>
<path class="st1" d="M130.3,54.3l-5.3,3.8l-1.6,1.4l9,15.4l2-1.1l4.2-3.3L130.3,54.3L130.3,54.3z"/>
<path class="st2" d="M113.2,67.3l11.9,2.6l2.2-3.5l2.1-3.6l-1.9-1.3l-7.1,0.3L113.2,67.3z"/>
<path class="st3" d="M113.2,67.3l14.1-0.9l2.2-6.3l-6.1-0.6L113.2,67.3z"/>
<polygon class="st4" points="206.5,214.3 192.2,211.6 195.5,202.6 204.9,185.1 214.6,184.1 220.8,194.1 "/>
<polygon class="st5" points="193.3,153.1 214.6,184.1 202.8,207 202.8,197.2 205.7,184.3 200.7,175.3 "/>
<polygon class="st6" points="127.2,320.2 190.9,311.3 250.8,321 190.6,329 "/>
<polygon class="st4" points="158.2,303.8 153.4,314.2 156.9,323.4 "/>
<polygon class="st7" points="172.1,308.3 170.1,302 158.2,303.8 157.1,316.4 156.9,319.6 170.3,316.4 173.3,311.8 "/>
<polygon class="st8" points="156.9,319.6 173.3,311.8 178.5,319.6 170.4,321.2 "/>
<polygon class="st4" points="156.9,319.6 156.9,323.4 178.5,323.4 178.5,319.6 "/>
<polygon class="st9" points="161.8,258.2 157.7,304.7 171.1,305 173.3,255.3 "/>
<polygon class="st4" points="204.8,319 201.8,318.9 199.8,306.7 202.7,298.4 209,303.3 207.4,308.1 "/>
<polygon class="st7" points="219.8,304 216.7,298.2 202.7,298.4 209.7,312.2 211.5,314.5 219.3,312.1 221.6,307 "/>
<polygon class="st8" points="211.5,315.2 221.6,307 231,315.2 220.7,316.8 "/>
<polygon class="st4" points="207.5,307.8 205.8,309.6 205.5,313.7 214.1,319.1 231,319.1 231,315.2 216.9,315.2 "/>
<polygon class="st10" points="209.3,49.3 177.1,57.3 148.2,67.9 150.6,81.2 158.2,96.7 154.8,96.6 152.4,100.5 148.7,93.5 
	145.7,90.5 140.9,92.8 135.7,98.7 137.2,102.2 141.5,107.2 145.3,112.8 160.7,146.9 187.6,152.1 187.4,136.4 189.9,126 201.5,121.7 
	218.8,116.7 217,84.5 "/>
<polygon class="st7" points="174.7,90.3 179.5,79.1 192.2,78.8 199.7,97.6 194.1,71.9 180.9,72.7 173.1,78.8 169.9,84.5 "/>
<polygon class="st7" points="213.7,69.6 205.2,75.7 204.7,87.1 196.9,69.5 "/>
<polygon class="st7" points="171.7,95.5 198.5,94.7 198.2,90.9 "/>
<polygon class="st7" points="217,85.7 206.1,93 205.1,89 "/>
<polygon class="st7" points="156.8,65.3 168.3,75.3 171.7,95.5 174,125.8 187.6,152.1 175.2,150.9 160.7,146.9 145.3,112.8 
	153.7,107.8 152.4,100.5 158.2,96.7 148.2,67.9 "/>
<polygon class="st11" points="145.3,112.8 153.7,107.8 151.2,125.8 "/>
<polygon class="st11" points="218.8,116.7 166.2,127 179.9,150.5 183.1,152.6 187.6,152.1 189.9,126 "/>
<polygon class="st12" points="173.1,68.2 181.8,73.1 193.7,69.9 "/>
<polygon class="st12" points="198.2,65 204.5,58 209.8,59.1 "/>
<polygon class="st13" points="193.7,69.9 199.7,97.6 207,96.6 200.2,69 "/>
<polygon class="st11" points="199.7,97.6 203.6,101.5 207,96.6 "/>
<polygon class="st14" points="179,106.4 195.3,106.3 203.2,109.6 193,110.1 186.8,109.5 185.1,109.2 183.1,108 "/>
<polygon class="st15" points="182.9,108 186.9,112.4 203.2,109.6 186.8,109.5 "/>
<polygon class="st11" points="141.1,100.7 144.8,96.9 148.7,102.8 "/>
<polygon class="st4" points="209.3,49.3 179.2,29 180.2,44.3 184.4,56.9 "/>
<polygon class="st4" points="141.5,183.6 149.6,207.4 144.8,211.8 139.2,212.5 123.6,198.6 "/>
<polygon class="st10" points="139.2,212.5 147.9,230.3 154.5,228.1 165.6,219.5 149.6,207.4 "/>
<polygon class="st11" points="164.1,218.6 147.9,230.3 155.2,236.2 "/>
<polygon class="st7" points="194.9,224.9 196.1,232.9 200,232 200.6,226.9 198.2,224.8 "/>
<polygon class="st8" points="179.2,29 130.3,45.8 126.7,54.3 127,61.5 137.3,65.7 148.2,67.9 156.8,65.3 184.4,56.9 "/>
<polygon class="st4" points="127,61.5 124.9,66.7 125.5,70.6 121.6,93.5 138.6,90.8 154.1,85 148.2,67.9 "/>
<polygon class="st11" points="194.9,224.9 190.8,211.4 195.5,202.6 201.4,204.1 203.3,215.1 "/>
<polygon class="st10" points="207.9,229.5 209.8,216 201.4,204.1 194.9,224.9 "/>
<polygon class="st12" points="121.6,93.5 154.1,85 158.2,96.7 152.4,100.5 145.7,90.5 135.7,98.7 141.5,107.2 "/>
<polygon class="st12" points="125.4,70.8 109.3,69.3 117.4,58.7 130.3,45.8 127,61.5 "/>
<polygon class="st8" points="130.3,45.8 110.2,35.3 96,83.6 109.3,69.3 "/>
<polygon class="st4" points="160.7,146.9 193.3,153.1 190,161.1 182.8,170.4 165.1,161.6 154.1,150.8 "/>
<polygon class="st16" points="154.1,150.8 143.2,156.4 147.6,171.6 154.8,187 161,189.5 183.1,191.8 205.7,184.3 193.3,153.1 
	182.8,170.4 "/>
<polygon class="st9" points="154.8,187 205.7,184.3 200.7,220.8 184.1,221.7 164.1,218.6 "/>
<polygon class="st16" points="164.1,218.6 181.1,238.9 191.4,245.5 200.2,237.2 200.7,220.8 "/>
<polygon class="st17" points="164.1,218.6 191.4,245.5 194.3,276.2 171.1,305 151.5,240.7 "/>
<polygon class="st18" points="200.7,220.8 209.7,263.5 202.1,258.9 191.4,245.5 "/>
<polygon class="st9" points="191.4,245.5 209.7,263.5 216.7,298.2 171.1,305 "/>
<polygon class="st5" points="143.2,156.4 123.6,198.6 154.7,186.9 "/>
<path class="st12" d="M213.1,76.3c0,1.5-1.2,2.8-2.8,2.8c-1.5,0-2.8-1.2-2.8-2.8c0-1.5,1.2-2.8,2.7-2.8
	C211.9,73.5,213.1,74.7,213.1,76.3C213.1,76.3,213.1,76.3,213.1,76.3z"/>
<path class="st12" d="M187.7,82.7c0,1.5-1.2,2.8-2.7,2.8c-1.5,0-2.8-1.2-2.8-2.7c0-1.5,1.2-2.8,2.7-2.8c0,0,0,0,0,0
	C186.4,79.9,187.6,81.2,187.7,82.7z"/>
<path class="st19" d="M223.8,62.5l-55.4,12.8l3.4,20.1l26.5-4.6l-3.7-17l6.5-1.5l4.1,16.6l22.5-6.3L223.8,62.5z M173.1,78.8l17.8-4
	l2.7,12.2l-18.8,3.2L173.1,78.8z M207.6,84l-3.3-12l16.1-4.1l2.1,11.4L207.6,84z"/>
</svg>
