<?xml version="1.0" encoding="utf-8"?>
<!-- Generator: Adobe Illustrator 27.3.0, SVG Export Plug-In . SVG Version: 6.00 Build 0)  -->
<svg version="1.1" id="Layer_1" xmlns="http://www.w3.org/2000/svg" xmlns:xlink="http://www.w3.org/1999/xlink" x="0px" y="0px"
	 viewBox="0 0 350 350" style="enable-background:new 0 0 350 350;" xml:space="preserve">
<style type="text/css">
	.st0{fill-rule:evenodd;clip-rule:evenodd;fill:#9DA1A2;}
	.st1{opacity:0.1;fill-rule:evenodd;clip-rule:evenodd;enable-background:new    ;}
	.st2{fill-rule:evenodd;clip-rule:evenodd;fill:#856400;}
	.st3{fill-rule:evenodd;clip-rule:evenodd;fill:#BF8F00;}
	.st4{fill-rule:evenodd;clip-rule:evenodd;fill:#755800;}
	.st5{fill-rule:evenodd;clip-rule:evenodd;fill:#B58B00;}
	.st6{fill-rule:evenodd;clip-rule:evenodd;fill:#E5C828;}
	.st7{fill:#E5C828;}
	.st8{fill-rule:evenodd;clip-rule:evenodd;fill:#9E7700;}
	.st9{fill:#BF8F00;}
	.st10{fill-rule:evenodd;clip-rule:evenodd;fill:#DFBDA5;}
	.st11{fill-rule:evenodd;clip-rule:evenodd;fill:#C3987B;}
	.st12{fill-rule:evenodd;clip-rule:evenodd;fill:#8B6651;}
	.st13{fill-rule:evenodd;clip-rule:evenodd;fill:#E8CAB6;}
	.st14{fill-rule:evenodd;clip-rule:evenodd;fill:#FFFFFF;}
	.st15{fill-rule:evenodd;clip-rule:evenodd;fill:#474747;}
	.st16{fill-rule:evenodd;clip-rule:evenodd;fill:#4F5253;}
	.st17{fill-rule:evenodd;clip-rule:evenodd;fill:#CCAD14;}
	.st18{fill-rule:evenodd;clip-rule:evenodd;fill:#6F7173;}
</style>
<path class="st0" d="M141.9,212.8h13v61.6h-13V212.8z"/>
<polygon class="st1" points="86.7,295.9 162.5,289.3 236.9,298.5 162.9,303.8 "/>
<polygon class="st2" points="212.9,174.6 193,208.8 208.4,214 223.2,194.7 "/>
<polygon class="st2" points="139.9,158.4 122,185.3 124.6,198.1 132,205.9 141.4,197.9 143.6,175.2 "/>
<polygon class="st3" points="122,185.3 106.2,183.9 103.7,192 106,201.6 132,205.9 "/>
<polygon class="st2" points="142.1,233 138.9,258.1 146.9,271.1 161.5,268.7 175.6,245.4 "/>
<polygon class="st4" points="161.5,268.7 138.9,258.1 136.4,277 143.9,284.1 152.6,283.2 "/>
<polygon class="st5" points="136,278.8 130.1,282.5 120.1,291.2 138.4,292.5 151.9,291.2 152.6,283.2 139.9,275.8 "/>
<polygon class="st6" points="140.5,278.6 134.4,284.1 130.1,282.5 136.4,277 138.9,275.8 "/>
<polygon class="st3" points="163.4,250.3 167.5,264.4 180.3,271.1 193,267.7 200.3,234 173.4,241.9 "/>
<polygon class="st2" points="193,267.7 167.5,264.4 172.8,282.8 181.3,287.1 189.4,285.9 "/>
<polygon class="st5" points="172.8,282.8 167.5,295.2 180.5,297 191,295.2 189.4,285.9 183.8,282.3 181,281.5 178.3,281.5 "/>
<rect x="167.5" y="295.2" class="st7" width="23.5" height="3.6"/>
<polygon class="st6" points="183.8,284.8 183,290.6 176.2,290.6 178.4,283.8 181,283.2 "/>
<rect x="120.1" y="291.1" class="st7" width="31.8" height="3.6"/>
<polygon class="st8" points="142.1,233 163.4,250.3 200.3,234 174.7,230.5 162.5,222.9 155,228.6 "/>
<polygon class="st6" points="145.9,162.3 155,158.2 161.3,166.8 166.3,178.8 182.8,173.2 199.2,169.6 206.8,178.1 201.8,208.8 
	199.2,216.7 200.3,234 169.3,239.3 162.5,223.8 154.2,237.6 142.1,233 141.4,197.9 "/>
<polygon class="st4" points="204.1,155.9 197.9,149.5 197,155.4 193.2,161.6 "/>
<polygon class="st4" points="161.6,142.3 149.3,148.7 155,158.2 166.3,178.8 165.7,157.9 "/>
<polygon class="st3" points="201.8,208.8 199.2,169.6 212.9,174.6 "/>
<polygon class="st3" points="139.9,158.4 141.4,197.9 155,158.2 "/>
<rect x="181.3" y="182.8" transform="matrix(0.1571 -0.9876 0.9876 0.1571 -38.0684 344.7351)" class="st9" width="3.3" height="23.8"/>
<polygon class="st10" points="203.6,91.2 168.1,87.5 157.1,82.1 145.2,137.2 161.6,142.3 163.8,149.4 166.1,154.1 181.2,162.3 
	193.5,154.5 212.3,133 219.9,121.3 222,109.2 "/>
<polygon class="st11" points="199.5,90.8 182.7,148.4 161.6,142.3 163.5,149.7 163.4,157 166.3,178.8 185.2,167.9 196.7,157.4 
	207.6,140.4 208,135.6 212.3,133 203,126.1 210.9,114.8 219.9,121.3 225.5,112.6 208.4,95.9 203.6,91.2 "/>
<polygon class="st11" points="165.7,118.8 176,104.1 189.1,99.8 174.1,95.2 170.3,99.9 164.8,109.7 "/>
<polygon class="st11" points="164.7,98.6 164.1,93.8 155.2,91.1 162.2,112.9 "/>
<polygon class="st12" points="203,126.1 212.3,133 207.6,140.4 "/>
<polygon class="st12" points="168.3,108 185.3,122.2 192.3,115.5 195.3,115.4 196.7,113.3 189.1,109.7 "/>
<polygon class="st12" points="162.6,106.9 150.9,110.7 151.4,108.4 153.7,104.3 "/>
<polygon class="st2" points="207.4,97.4 190.1,123.2 199.1,131.6 210.9,114.8 219.9,121.3 225.5,112.6 216.5,101.7 "/>
<polygon class="st13" points="164.7,98.6 170.3,99.9 165.7,118.8 160.1,117.4 "/>
<polygon class="st12" points="207.8,125.1 211.5,118.9 216.8,122.6 "/>
<polygon class="st2" points="189.1,99.8 178.7,92.8 174.1,95.2 "/>
<polygon class="st2" points="164.1,93.8 159.6,89.2 155.2,91.1 "/>
<polygon class="st11" points="151.2,120.4 182.7,128 170.8,134.1 157.1,130.9 "/>
<polygon class="st14" points="154.9,123.3 177,128.7 170.4,132.4 158.5,129.6 "/>
<polygon class="st12" points="160.1,117.4 162.5,121.4 165.7,118.8 "/>
<polygon class="st4" points="195.3,115.4 209.9,116.2 210.9,114.8 203.1,112.6 196.7,113.4 "/>
<polygon class="st12" points="161.6,142.3 189.2,150.3 163.4,157 "/>
<polygon class="st3" points="168.1,65.6 219.9,78.6 229.3,94.4 196.7,82.1 "/>
<polygon class="st8" points="199.5,90.8 225.5,112.6 229.3,94.4 206.1,83 "/>
<polygon class="st2" points="199.5,90.8 206.1,88.3 206.1,83 168.1,65.6 166.9,76.8 168.1,87.5 "/>
<polygon class="st3" points="168.1,65.6 143.2,59.6 157.1,82.1 168.1,87.5 "/>
<polygon class="st15" points="191.1,104.9 219.1,111.6 219.9,121.3 210.9,114.8 189.1,112.5 189.3,108.3 "/>
<polygon class="st15" points="164.7,98.6 170.3,99.9 170.6,102.3 169.1,104.8 163.5,103.4 162.9,101.3 "/>
<path class="st16" d="M147.2,94.4l17.5,4.2l-2,8.3l-19,2.6L147.2,94.4L147.2,94.4z M170.3,99.9l20.8,5l-4,15.3L168.3,108L170.3,99.9
	z"/>
<polygon class="st3" points="180.5,162.7 204.1,155.9 199.2,169.6 166.3,178.8 "/>
<polygon class="st17" points="199.2,216.7 166.1,202.1 162.5,202.1 141.7,212.8 162.5,222.9 "/>
<polygon class="st3" points="166.3,178.8 166.1,202.1 162.5,223.8 162.5,202.1 "/>
<polygon class="st3" points="223.2,194.7 193.5,214.2 195,222.9 200,228.6 232.9,212.5 "/>
<polygon class="st15" points="193.5,214.2 186.2,218.9 200,228.6 "/>
<polygon class="st8" points="191.6,274.8 170.4,274.7 172.8,282.8 189.4,285.9 "/>
<polygon class="st17" points="183.8,284.8 183.8,278.8 178.1,278.3 178.4,283.8 "/>
<polygon class="st8" points="156.8,276.3 137.7,267.3 136.4,277 152.6,283.2 "/>
<polygon class="st17" points="140.5,278.6 141.7,272.5 137.2,271.1 136.4,277 "/>
<polygon class="st15" points="106.2,183.9 96.8,183.2 93.4,191.2 95.4,201.7 106,201.6 "/>
<polygon class="st18" points="106.2,183.9 98.9,171.8 94.9,173 98,189.2 106.1,192.1 "/>
<polygon class="st16" points="96.8,183.2 77.9,182.1 77.9,186 98,189.2 "/>
<polygon class="st18" points="85.3,187.2 86.7,198.8 95.4,201.7 98,189.2 "/>
<path class="st17" d="M199.1,62.4l21,9.2l13.6,8.6l-7.6,29.4L185.6,70L199.1,62.4z"/>
<path class="st6" d="M199.1,62.4l21.4-3.2l7.9,10.8l5.3,10.2L199.1,62.4z"/>
<path class="st17" d="M220.5,59.1l7.3-4.6l10.1-3.5l3,25.3l-11.8-8.5L220.5,59.1z"/>
<path class="st5" d="M220.5,59.1l20.4,17.2l-7.2,3.8L220.5,59.1z"/>
<path class="st6" d="M220.5,59.1l17.4-8.1l-16.4-0.2L220.5,59.1z"/>
</svg>
