<?xml version="1.0" encoding="utf-8"?>
<!-- Generator: Adobe Illustrator 27.3.0, SVG Export Plug-In . SVG Version: 6.00 Build 0)  -->
<svg version="1.1" id="Layer_1" xmlns="http://www.w3.org/2000/svg" xmlns:xlink="http://www.w3.org/1999/xlink" x="0px" y="0px"
	 viewBox="0 0 350 350" style="enable-background:new 0 0 350 350;" xml:space="preserve">
<style type="text/css">
	.st0{fill:#C3987B;}
	.st1{fill:#DFBDA5;}
	.st2{fill:#8B6651;}
	.st3{fill:#99C26D;}
	.st4{fill:#738D57;}
	.st5{fill:#5A753D;}
	.st6{fill:#35785D;}
	.st7{opacity:0.1;fill:#2B2B2B;enable-background:new    ;}
	.st8{fill:#54B08B;}
	.st9{fill:#446125;}
	.st10{fill:none;}
	.st11{fill:#8F8F8F;}
	.st12{fill:#72C9A6;}
	.st13{fill:#ECECEB;}
	.st14{fill:#DDDDDC;}
	.st15{fill:#C4C4C4;}
	.st16{fill:#2B2B2B;}
	.st17{fill:#E8CAB6;}
</style>
<polygon class="st0" points="236.6,202.3 243.8,210.6 246.9,214.1 243,217.7 233.5,204.6 "/>
<polygon class="st1" points="243.8,188.8 253.1,192.3 256.8,200.5 252.1,211.7 246.9,214.1 246.9,214.1 239.5,206.6 "/>
<polygon class="st2" points="236.2,201.9 250,185.6 253.1,192.3 239.5,206.6 236.6,202.3 "/>
<polygon class="st0" points="246.9,214.1 256.8,200.5 260.7,213.7 254.4,222.8 246.9,214.1 "/>
<path class="st3" d="M197.2,132.7c6.5-1.2,13-2.3,19.5-3.5c11.4,15.6,22.8,31.2,34.2,46.8l-34.2,5.2c-4.5-11-9-21.9-13.5-32.9
	C201.3,143.1,199.3,137.9,197.2,132.7z"/>
<polyline class="st4" points="204.2,149.7 251,176 251,176 237.4,203.3 229.7,200.7 204.2,149.7 "/>
<polyline class="st5" points="203.3,148.4 237.4,200.5 225,199.5 217.9,195.3 196.3,155.2 "/>
<polygon class="st6" points="239.5,206.6 221.2,200.5 217.9,195.3 237.4,200.5 251,176 251,176 254.4,180.6 "/>
<polygon class="st7" points="100.1,319.1 166.6,317.9 251.3,310 154.9,302.5 "/>
<polygon class="st6" points="186.5,290.7 186.5,300.3 198.3,296.6 205.1,291.5 207.3,282.9 "/>
<polygon class="st6" points="135.6,282.1 132,300.3 142.3,300.3 152,294.1 154.2,289.5 "/>
<polygon class="st8" points="205.1,291.5 186.5,300.3 186.5,305.3 202.2,306.6 221.6,305.3 "/>
<rect x="186.5" y="305.3" class="st6" width="35.1" height="4.8"/>
<polygon class="st8" points="152,294.1 156.3,307.9 144.2,310.3 130.3,307.9 132,300.3 "/>
<rect x="130.3" y="307.9" class="st6" width="26" height="4.8"/>
<polygon class="st4" points="153.6,158.2 146.6,157.2 128.2,155.2 152.8,175.1 154.5,180.9 165.7,203.7 180.8,189 "/>
<polygon class="st9" points="144.2,184.4 152.3,198.6 160.8,202.5 166.9,193.7 154.5,172.1 "/>
<polygon class="st4" points="221.7,176.6 185.5,229.8 166.9,193.7 152.3,198.6 124.6,275.9 162,298.6 162.2,298.7 224.4,274.2 "/>
<polygon class="st3" points="208.6,180.6 196.3,202 190.1,196.4 180.8,189 166.9,193.7 162.7,293.4 218.1,176.2 209.1,179.3 "/>
<line class="st10" x1="147.5" y1="165.3" x2="128.2" y2="155.2"/>
<line class="st10" x1="154.5" y1="172.1" x2="147.5" y2="165.3"/>
<polygon class="st11" points="210.6,93 210.7,93.2 210.7,93 "/>
<line class="st10" x1="215.5" y1="140" x2="213.9" y2="155.5"/>
<polyline class="st5" points="218.1,155.9 197.5,134.6 218.1,176.2 "/>
<polygon class="st4" points="209.1,179.3 218.1,176.2 213.6,167.1 "/>
<polygon class="st8" points="180.8,189 182,189.7 180.8,189 "/>
<polygon class="st8" points="180.8,189 180.8,189 146.6,167.3 146.6,167.3 "/>
<polygon class="st6" points="210.4,167.2 205.8,179.6 205.4,180.6 209.1,179.3 213.6,167.1 211.9,163.5 "/>
<polygon class="st2" points="98.9,192.3 88.6,187.8 71.8,183.2 72.8,166.6 88.3,173.9 96.4,185.9 "/>
<polygon class="st0" points="63.5,164.2 60.5,177.2 71.8,183.2 86.2,168.6 "/>
<polygon class="st1" points="95.6,176.6 88.9,167.5 73.5,164 72.1,165.9 76.6,170.4 83.4,173 86,180.1 89.9,184.1 96.4,185.9 "/>
<polyline class="st4" points="138.5,188.8 100.3,199.7 95.1,170.3 112.7,175 138.5,188.8 "/>
<polyline class="st3" points="140.6,163.2 133.2,188.1 112.7,175 128.1,155.2 "/>
<polyline class="st5" points="154.5,172.1 130.3,203.2 112.2,203.5 101.8,196.1 133.2,188.1 140.6,163.2 "/>
<polygon class="st6" points="90.5,169.7 95.1,170.3 101.8,196.1 130.3,203.2 126.1,206.8 97.4,201 "/>
<path class="st8" d="M148.2,252.6l-1.7,1.5l3-0.5l8.1-20.8l-3.9,2.8L148.2,252.6L148.2,252.6z"/>
<path class="st6" d="M146.5,254.1l1.7-1.5l5.5-17l3.9-2.8l-1.8-9.4l7-5.7l-1.5-3.6l3.6-11.3l2.7,0.8l0.8-2.1l3.5-12.4l-7-0.4
	l-6.2,25.5l-7.4,7.5l1.5,11.8L146.5,254.1z"/>
<path class="st8" d="M164.9,202.8l-3.6,11.3l1.5,3.6l4.8-14.1L164.9,202.8z"/>
<polygon class="st8" points="175.4,146.4 173.1,155.9 152,165.3 184.1,187.5 184.3,187.8 205.4,180.6 "/>
<polygon class="st12" points="146.3,163.6 152,165.3 177,155.9 141.4,140.8 131.2,152 "/>
<polygon class="st6" points="196.3,131.9 196.3,131.8 196.2,131.9 "/>
<polygon class="st6" points="182,184.3 131.2,152 128.2,155.2 180.8,189 200.2,214.1 210.7,180.6 "/>
<polygon class="st6" points="175.4,146.4 163.7,138.4 142.3,133.5 141.4,140.8 177,155.9 "/>
<polygon class="st1" points="216.9,129.3 205.2,61.2 185.8,46.3 173.5,56.7 148,55 143.5,59 152.8,77.1 168.7,142.6 192,136.1 "/>
<polygon class="st13" points="185.8,50.1 205.2,61.2 193.7,45.8 184.2,43 182.2,46.3 "/>
<polygon class="st14" points="184.2,43 164.6,37.2 165.1,51.8 175.6,61.2 185.8,50.1 "/>
<polygon class="st15" points="146,51.8 146.2,54.1 147.8,55.4 175.6,61.2 175.6,61.2 164.6,37.2 "/>
<polygon class="st11" points="172.6,72 173.5,74.8 163.5,82.2 162.2,78.9 "/>
<polygon class="st11" points="187.3,69.5 188.5,72.9 199,74.5 199.7,72.2 "/>
<polygon class="st0" points="163.5,82.2 188.6,107.9 187.3,86 178.1,77 185.9,75.7 190,86.9 193.7,93.2 199,74.5 188.5,72.9 
	185.9,75.7 178.1,77 173.5,74.8 "/>
<polygon class="st0" points="154.9,66.9 148,55 136.5,74.5 142.3,81.2 143.5,98.7 138.3,92.8 134.6,98.6 128.2,100.9 133.4,116.1 
	138.8,114.8 142.3,115.5 140.7,125 142.3,133.5 165.1,142.4 169.3,142.7 "/>
<polygon class="st2" points="138.8,114.8 140.7,125 145.8,112.9 "/>
<polygon class="st2" points="180.2,139.4 165.1,142.4 176.6,146.8 "/>
<polygon class="st2" points="132.4,102.8 141.4,108.8 139,100.7 "/>
<polygon class="st6" points="162.7,293.4 124.6,275.9 122.9,281.2 162,298.6 162.2,298.7 224.5,280 224.4,274.2 "/>
<polygon class="st15" points="188.6,107.9 171.5,123.3 182,184.3 201.2,202 202.7,204.6 202,207.2 200.2,214.1 210.7,221.4 
	203.7,146.8 193.7,109 "/>
<polygon class="st13" points="212.7,200.2 221.7,176.6 211.4,115.8 196.6,106.2 193.7,109 210.7,221.4 216.5,210.2 213.5,205.4 
	211.9,203 "/>
<rect x="201.5" y="201.1" transform="matrix(0.9885 -0.1514 0.1514 0.9885 -28.4561 33.7495)" class="st9" width="11.7" height="5.2"/>
<polygon class="st2" points="201.5,117.8 195.2,120.9 185.5,120.6 184.8,117.3 194.7,117.6 200.8,114.6 "/>
<circle class="st16" cx="173.4" cy="90.6" r="3"/>
<circle class="st16" cx="196.6" cy="85.4" r="3"/>
<polygon class="st17" points="185.9,75.7 191.6,83.8 196.6,106.2 188.6,107.9 184.3,85.8 178.1,77 "/>
<polygon class="st11" points="125,68.4 134.6,98.6 137.6,97.5 144.1,101.2 145.9,77.5 138.5,73.1 148,55 146,51.8 "/>
<polygon class="st11" points="196.6,106.2 188.6,107.9 194,111.2 "/>
</svg>
