<?xml version="1.0" encoding="utf-8"?>
<!-- Generator: Adobe Illustrator 27.3.0, SVG Export Plug-In . SVG Version: 6.00 Build 0)  -->
<svg version="1.1" id="Layer_1" xmlns="http://www.w3.org/2000/svg" xmlns:xlink="http://www.w3.org/1999/xlink" x="0px" y="0px"
	 viewBox="0 0 350 350" style="enable-background:new 0 0 350 350;" xml:space="preserve">
<style type="text/css">
	.st0{opacity:0.1;fill:#2B2B2B;enable-background:new    ;}
	.st1{fill:#8F8F8F;}
	.st2{fill:#A3A3A3;}
	.st3{fill:#ECECEB;}
	.st4{fill:#3F8F6F;}
	.st5{fill:#709D53;}
	.st6{fill:#DFBDA5;}
	.st7{fill:#E8F078;}
	.st8{fill:#D9E354;}
	.st9{fill:#B8C745;}
	.st10{fill:#C3987B;}
	.st11{fill:#8B6651;}
	.st12{fill:#E8CAB6;}
	.st13{fill:#99C26D;}
	.st14{fill:#5A753D;}
	.st15{fill:#35785D;}
	.st16{fill:#54B08B;}
	.st17{fill:#738D57;}
	.st18{fill:#2B2B2B;}
</style>
<path class="st0" d="M241.5,259.1l-5.4-0.7l-4.9,1.1l5.8,0.9L241.5,259.1L241.5,259.1z"/>
<path class="st1" d="M235.5,255.7l1.3,4l1.2-4.4L235.5,255.7z"/>
<path class="st2" d="M242.1,253.2l-6.3-1.5l-5.7,2.7l6.8,2.4L242.1,253.2z"/>
<path class="st3" d="M238.6,253.7l-2.7-0.5l-1.8,0.8l2.9,0.6L238.6,253.7z"/>
<polygon class="st4" points="149.8,213.5 171.8,208.4 190.1,201.5 198.5,214.7 210.5,227.7 202.7,235.8 198.2,246 209.8,249.2 
	230.7,250.5 225.2,253.6 223.2,257.3 205.3,272.5 183.2,293.8 179.8,295.3 175.3,300.9 174.5,292.6 171.1,286.1 159.8,243 "/>
<polygon class="st5" points="116.9,175 130.8,181.2 151.1,184.8 153.4,173.9 152.1,162.6 161.6,164.3 169.8,162.9 176.2,163.1 
	183.9,161.7 196.1,159 209.9,150.3 214.9,163.7 227.4,186.5 223.1,194.8 218,216.5 215.1,195 209.8,181.5 205.9,178.9 199,178.5 
	193.9,187.3 192.7,194.7 190.5,197.6 190.1,201.5 172,205.6 149.8,213.5 132.3,196.9 112.5,181.8 115.8,178.8 "/>
<polygon class="st6" points="125.8,34.9 130.5,34.2 133.3,31.3 147.4,25.8 160.7,17.5 181.4,26.2 199.6,30.4 202.8,43 209.9,57.7 
	211.2,61.9 213.5,65.2 213.8,83.9 216.7,118.6 222.1,128.2 231.1,139.2 219.5,143.6 209.9,150.3 197.9,157.1 183.9,161.7 
	174.2,163.6 169.8,162.9 158.3,164 152.1,162.6 146.6,160.9 140,162.4 146.5,152.7 152.7,138.9 146.9,125.9 138.6,113.9 
	125.8,107.8 110.5,102.7 121.7,73.7 129.5,42.4 128.9,38 "/>
<polygon class="st0" points="119.2,324.6 182.9,314 260.3,322.2 200.3,332.5 "/>
<polygon class="st6" points="138.6,113.9 110.5,102.7 129.5,42.4 136.9,38.7 144.4,35.1 155.9,30.6 164.5,43.6 166.2,42.7 
	169.8,49.9 153.1,119 "/>
<polygon class="st7" points="129.4,42.4 133.3,31.3 160.7,17.5 162.4,30.8 155.9,30.6 144.4,35.1 136.9,38.7 "/>
<polygon class="st8" points="160.7,17.5 199.6,30.4 209.9,57.7 213.5,65.2 202.6,61.4 191.7,57.8 180.8,53.9 169.7,50 164.5,43.6 
	155.9,30.6 "/>
<polygon class="st9" points="169.7,50 180.5,53.8 191.7,57.8 202.6,61.4 213.5,65.2 216.7,118.6 173.3,57.5 "/>
<polygon class="st10" points="143.9,58 138.2,73.4 127.9,55 "/>
<polygon class="st10" points="147.7,58.7 161.2,68.7 149.7,70.2 139.2,82.5 "/>
<polygon class="st10" points="169.7,50 153.1,119 155.5,121.6 161.8,122.4 166.2,116.9 169.4,109 171.2,88.3 "/>
<polygon class="st11" points="135.3,81.4 136.2,85.5 139.2,82.5 "/>
<polygon class="st9" points="147.7,58.7 160.4,64.3 161.2,68.7 "/>
<polygon class="st9" points="143.9,58 129.2,52.7 127.9,55 "/>
<polygon class="st11" points="161.8,122.4 152.7,138.9 138.6,113.9 153.1,119 "/>
<polygon class="st12" points="147.7,58.7 139.2,82.5 135.3,81.4 143.9,58 "/>
<polygon class="st7" points="173.3,57.5 183.9,161.7 169.8,162.9 169.4,109 169.8,49.9 "/>
<polygon class="st8" points="175.2,76 209.9,150.3 231.1,139.2 216.7,118.6 173.3,57.5 "/>
<polygon class="st8" points="169.4,109 152.7,138.9 140,162.4 169.8,162.9 "/>
<polygon class="st9" points="175.2,76 209.9,150.3 183.9,161.7 180.9,132.4 175.9,110.1 "/>
<polygon class="st13" points="122.3,88 133.8,96 148.8,96.4 132.6,100.4 "/>
<polygon class="st14" points="122.3,88 127,89.7 133.5,90.8 137.7,92.2 142.6,95 148.8,96.4 133.8,96 "/>
<polygon class="st15" points="125.8,34.9 133.3,31.3 137,38.8 129.4,42.4 "/>
<polygon class="st16" points="136.9,38.7 144.4,35.1 148,42.6 140.4,46.2 "/>
<polygon class="st15" points="147.7,42.4 155.3,38.8 158.9,46.3 151.4,49.9 "/>
<polygon class="st16" points="158.7,46.3 166.2,42.7 169.9,50.2 162.4,53.8 "/>
<polygon class="st15" points="169.7,50 177.2,46.4 180.8,53.9 173.3,57.5 "/>
<polygon class="st16" points="180.5,53.8 188,50.2 191.7,57.8 184.1,61.3 "/>
<polygon class="st15" points="191.4,57.5 199,53.9 202.6,61.4 195.1,65.1 "/>
<polygon class="st16" points="202.4,61.3 209.9,57.7 213.5,65.2 206.1,68.9 "/>
<polygon class="st14" points="169.6,72.2 175.2,76 176.5,89.2 169.5,84.5 "/>
<polygon class="st13" points="169.5,84.5 176.5,89.2 177.5,98.9 169.5,94.5 "/>
<polygon class="st14" points="169.5,94.5 177.5,98.9 178.6,109.6 169.4,104.5 "/>
<polygon class="st13" points="169.4,104.5 178.6,109.6 179.8,121.5 169.4,115.5 "/>
<polygon class="st14" points="169.4,115.5 179.8,121.5 180.9,132.4 169.5,126.1 "/>
<polygon class="st17" points="152.1,162.6 149.8,213.5 183.9,161.7 169.8,162.9 "/>
<polygon class="st13" points="151.1,184.8 116.9,175 113.7,178 112.5,181.8 149.8,213.5 "/>
<polygon class="st6" points="116.9,175 111.5,169.5 104.6,174.6 97.1,162.4 95.1,162.4 98.6,178.6 112.5,181.8 "/>
<polygon class="st11" points="114.2,172.2 98.6,178.6 95.6,171.3 95.1,162.4 97.1,162.4 102.1,168.6 104.6,174.6 107.9,170.7 
	111.5,169.5 "/>
<polygon class="st14" points="209.9,150.3 192.7,194.7 182.2,197.9 160.8,196.9 183.9,161.7 "/>
<polygon class="st13" points="160.8,196.9 192.7,194.7 190.1,201.5 175,212.3 149.8,213.5 "/>
<polygon class="st17" points="209.9,150.3 227.4,186.5 199,178.5 "/>
<polygon class="st13" points="209.8,181.5 218,216.5 224.1,207 223.5,199 227.4,186.5 "/>
<polygon class="st6" points="218,216.5 225.1,217.2 233.6,214.8 223.5,199 "/>
<polygon class="st16" points="190.1,201.5 210.5,227.7 183.8,232.2 149.8,213.5 "/>
<polygon class="st4" points="210.5,227.7 198.2,246 204.7,265 171.1,286.1 149.8,213.5 "/>
<polygon class="st15" points="198.2,246 230.7,250.5 227.3,255.3 223.2,257.3 182.7,294.2 180.8,296.5 175.3,300.9 171.1,286.1 "/>
<polygon class="st6" points="230.7,250.5 241.1,246.8 246.7,277.7 223.2,257.3 "/>
<polygon class="st10" points="240,271.9 237.7,285 246.7,277.7 "/>
<polygon class="st6" points="182.7,294.2 194.6,303 182.9,326.1 175.3,300.9 "/>
<polygon class="st10" points="182.9,326.1 169.5,325.8 180.5,318.2 "/>
<polygon class="st11" points="230.7,250.5 228.2,261.7 223.2,257.3 "/>
<polygon class="st11" points="175.3,300.9 185.6,296.4 183.2,293.8 "/>
<polygon class="st10" points="225.1,217.2 240,204.9 242.5,214.6 235.9,218.4 "/>
<polygon class="st14" points="88,162.4 100,162.4 100,150.5 88,150.5 "/>
<polygon class="st17" points="92.3,178.9 92.1,193.5 95,193.5 94.8,178.9 "/>
<polygon class="st9" points="93.9,150.5 92.7,136.2 109.4,140.6 100,150.5 "/>
<polygon class="st9" points="100,153.1 115.7,145.9 121.3,160 100,157.5 "/>
<polygon class="st9" points="100,160 118.3,164.2 104.6,174.6 97.1,162.4 100,162.4 "/>
<polygon class="st9" points="95.1,162.4 98.6,178.6 84.2,178.9 90.8,162.4 "/>
<polygon class="st9" points="88,162.4 76.9,177.1 67.6,168.1 88,159 "/>
<polygon class="st9" points="88,157.1 66.5,162.2 64.4,150.1 88,154.3 "/>
<polygon class="st9" points="88,152.3 69.7,142.7 82.1,135.2 92,150.5 88,150.5 "/>
<polygon class="st8" points="93.9,150.5 100,156.5 93.9,162.4 88,156.5 "/>
<path class="st18" d="M131.7,62.1c1.7,0,3.1,1.3,3.2,3.1c0,0,0,0,0,0.1c0,1.8-1.4,3.2-3.2,3.2c0,0,0,0,0,0c-1.8,0-3.2-1.4-3.2-3.2
	C128.6,63.4,130,62,131.7,62.1C131.7,62.1,131.7,62.1,131.7,62.1z"/>
<path class="st18" d="M152.6,69.6c1.8,0,3.2,1.5,3.2,3.2c0,1.8-1.5,3.2-3.2,3.2c-1.8,0-3.2-1.4-3.2-3.2c0,0,0,0,0,0
	C149.4,71.1,150.9,69.6,152.6,69.6z"/>
</svg>
