<?xml version="1.0" encoding="utf-8"?>
<!-- Generator: Adobe Illustrator 27.3.0, SVG Export Plug-In . SVG Version: 6.00 Build 0)  -->
<svg version="1.1" id="Layer_1" xmlns="http://www.w3.org/2000/svg" xmlns:xlink="http://www.w3.org/1999/xlink" x="0px" y="0px"
	 viewBox="0 0 350 350" style="enable-background:new 0 0 350 350;" xml:space="preserve">
<style type="text/css">
	.st0{fill-rule:evenodd;clip-rule:evenodd;fill:#734D60;}
	.st1{fill-rule:evenodd;clip-rule:evenodd;fill:#543042;}
	.st2{fill-rule:evenodd;clip-rule:evenodd;fill:#96637C;}
	.st3{fill-rule:evenodd;clip-rule:evenodd;fill:#594165;}
	.st4{fill-rule:evenodd;clip-rule:evenodd;fill:#785D88;}
	.st5{fill:#594165;}
	.st6{fill-rule:evenodd;clip-rule:evenodd;fill:#9075A0;}
	.st7{fill-rule:evenodd;clip-rule:evenodd;fill:#B3889D;}
	.st8{opacity:0.1;fill-rule:evenodd;clip-rule:evenodd;enable-background:new    ;}
	.st9{fill-rule:evenodd;clip-rule:evenodd;fill:#DFBDA5;}
	.st10{fill-rule:evenodd;clip-rule:evenodd;fill:#C3987B;}
	.st11{fill-rule:evenodd;clip-rule:evenodd;fill:#8B6651;}
	.st12{fill-rule:evenodd;clip-rule:evenodd;fill:#E8CAB6;}
	.st13{fill-rule:evenodd;clip-rule:evenodd;fill:#A688BA;}
	.st14{fill:#2B2B2B;}
</style>
<polygon class="st0" points="127.3,222.8 135.2,168.4 117.6,158.2 103,197.4 "/>
<polygon class="st1" points="103,197.4 129.5,196.6 132.2,212.4 127,229.2 "/>
<polygon class="st0" points="215.5,167.3 226.1,201.9 224,215.5 208.9,228.7 197,190.5 200.6,157 "/>
<polygon class="st2" points="215.9,185.4 208.9,228.7 238.3,217 229.5,186.8 223.8,182.8 "/>
<polygon class="st2" points="172.3,175.1 187.1,153.7 204.3,159.2 208.9,228.7 166.5,233.5 127,229.2 131.9,169.5 140.9,162.3 
	145.3,150.2 "/>
<polygon class="st3" points="188.8,167.3 215.9,168.7 213.4,160 188.5,156.7 "/>
<polygon class="st0" points="209.7,244.7 166.5,261.7 166.5,286.3 177.2,291.5 192.2,278.9 "/>
<polygon class="st1" points="192.2,278.9 166.5,286.3 163.4,304.1 172.9,304.1 181.3,300.3 "/>
<polygon class="st2" points="166.5,286.3 170,265.9 155.6,253 126.6,240.1 134.9,282.2 151.5,292.8 "/>
<polygon class="st1" points="209.7,244.7 170,265.9 126.6,240.1 172.9,240.1 "/>
<polygon class="st0" points="134.9,282.2 166.5,286.3 163.4,304.1 151.5,307.3 139.6,306.3 "/>
<polygon class="st4" points="162.7,314.2 177.8,315.6 199.5,314.2 181.3,300.3 163.4,304.1 "/>
<rect x="162.7" y="314.2" class="st5" width="36.8" height="5.2"/>
<polygon class="st6" points="163.4,304.1 170.4,319.4 153.9,321 137.4,319.4 139.6,306.3 "/>
<rect x="137.4" y="319.4" class="st5" width="33.1" height="5.2"/>
<polygon class="st0" points="189.4,206.3 194.1,228.8 146.8,229.1 151,212.4 160.3,186.3 172.3,175.1 182.7,186.3 "/>
<polygon class="st3" points="157.1,161 124.8,171.9 117.6,158.2 147.9,149.3 "/>
<polygon class="st7" points="147.9,149.3 151,212.4 172.3,175.1 "/>
<polygon class="st7" points="172.3,175.1 189.4,206.3 188.5,156.7 "/>
<polygon class="st7" points="174.1,193.6 177.2,199.2 171.6,203 167.5,197.1 "/>
<polygon class="st7" points="173.9,210.9 168.3,214.4 172.6,220 177.4,216.5 "/>
<polygon class="st3" points="127,229.2 161.3,229 172.9,231.9 184.5,228.8 208.9,228.7 209.7,244.7 183.8,243.3 175.1,241.6 
	161.4,242 126.6,240.1 "/>
<path class="st7" d="M184.5,228.8l-23.2,0.1l0.1,13.1l22.4,1.2L184.5,228.8L184.5,228.8z M178.7,238.6h-12.5l0.3-5.1L179,233
	L178.7,238.6z"/>
<polygon class="st8" points="172.3,175.1 205.2,159.5 188.5,156.7 "/>
<polygon class="st3" points="136.9,112.4 145.3,110.1 158.8,120.4 150.2,128.5 128.1,130.7 "/>
<polygon class="st9" points="242.2,81.3 238,101.2 219,162.1 188.5,156.7 172.3,175.1 153.7,144.6 161.8,111.6 167.2,109.4 
	170.3,93.7 169.1,70.2 195.5,56.9 220.5,71.3 225.7,57.9 "/>
<polygon class="st10" points="170.1,70.6 185.3,99.6 181.8,158 172.3,175.1 147.9,149.3 150.2,128.5 152.2,124.1 152.2,119.6 
	143.5,118.4 143.6,97.9 156.8,97.9 161.8,109.7 166,110.1 169.5,93.9 "/>
<polygon class="st10" points="229.9,107.7 185.3,99.6 200.2,110.7 203.2,132.5 "/>
<polygon class="st11" points="182.7,142 204.6,149.3 220.3,147.6 205.6,140 "/>
<polygon class="st4" points="182.7,142 203.2,132.5 212.2,134.2 220.3,147.6 "/>
<polygon class="st12" points="209.7,104 203.2,132.5 212.2,134.2 216.9,105.3 "/>
<polygon class="st4" points="185.3,99.6 229.9,107.7 231.3,101.9 188.3,96.7 "/>
<polygon class="st3" points="212.2,134.1 206.9,136.9 203.2,132.5 "/>
<polygon class="st11" points="147.2,102.3 153.9,102.5 155.5,115.7 "/>
<polygon class="st11" points="188.5,156.7 167,152.8 172.3,175.1 "/>
<polygon class="st11" points="152.2,119.6 158,120.4 150.2,128.5 "/>
<polygon class="st13" points="240.6,81.1 245.9,72.6 256.9,65.3 238,101.2 "/>
<polygon class="st6" points="170.1,70.6 154.6,61.5 129.4,53.8 134.2,91.1 155.6,94.2 173.3,93.9 "/>
<polygon class="st4" points="240.6,81.1 225.8,62.8 216.9,54.5 207.8,40.7 256.9,65.3 "/>
<polygon class="st4" points="170.1,70.6 197,60.9 181.5,47.7 161.3,39.8 129.4,53.8 "/>
<polygon class="st6" points="207.8,40.7 178.3,25.9 161.3,39.8 197,60.9 222.4,75.5 225.8,62.8 "/>
<polygon class="st4" points="173.3,93.9 134.2,91.1 136.9,112.4 143.5,118.4 144.5,98.8 156.8,99.6 160,112.8 167.5,111.7 "/>
<circle class="st14" cx="223.8" cy="114.5" r="3.5"/>
<circle class="st14" cx="200.2" cy="110.7" r="3.5"/>
<polygon class="st11" points="210.7,179.7 215.9,185.4 220.9,186.1 226.1,169.6 210.8,171.9 "/>
<polygon class="st10" points="238.8,168.5 229.5,186.8 215.9,185.4 226.1,169.6 229.5,165.9 "/>
<polygon class="st12" points="208.9,160.3 221.4,154.4 238.8,168.5 226.1,169.6 215.5,167.3 "/>
<polygon class="st9" points="226.1,169.6 215.9,175.3 204.9,168.1 208.9,160.3 "/>
</svg>
