<?xml version="1.0" encoding="utf-8"?>
<!-- Generator: Adobe Illustrator 27.3.0, SVG Export Plug-In . SVG Version: 6.00 Build 0)  -->
<svg version="1.1" id="Layer_1" xmlns="http://www.w3.org/2000/svg" xmlns:xlink="http://www.w3.org/1999/xlink" x="0px" y="0px"
	 viewBox="0 0 350 350" style="enable-background:new 0 0 350 350;" xml:space="preserve">
<style type="text/css">
	.st0{fill-rule:evenodd;clip-rule:evenodd;fill:#594165;}
	.st1{fill-rule:evenodd;clip-rule:evenodd;fill:#ECECEB;}
	.st2{fill-rule:evenodd;clip-rule:evenodd;fill:#C4C4C4;}
	.st3{fill-rule:evenodd;clip-rule:evenodd;fill:#8F8F8F;}
	.st4{fill-rule:evenodd;clip-rule:evenodd;fill:#C3987B;}
	.st5{fill-rule:evenodd;clip-rule:evenodd;fill:#8B6651;}
	.st6{fill-rule:evenodd;clip-rule:evenodd;fill:#785D88;}
	.st7{fill:#8F8F8F;}
	.st8{fill-rule:evenodd;clip-rule:evenodd;fill:#B3889D;}
	.st9{fill-rule:evenodd;clip-rule:evenodd;fill:#96637C;}
	.st10{fill-rule:evenodd;clip-rule:evenodd;fill:#543042;}
	.st11{fill-rule:evenodd;clip-rule:evenodd;fill:#734D60;}
	.st12{fill-rule:evenodd;clip-rule:evenodd;fill:#DDDDDC;}
	.st13{fill-rule:evenodd;clip-rule:evenodd;fill:#DFBDA5;}
	.st14{fill-rule:evenodd;clip-rule:evenodd;fill:#FFFFFF;}
	.st15{fill:#8B6651;}
	.st16{fill:#734D60;}
	.st17{fill:#594165;}
	.st18{fill:#9075A0;}
	.st19{fill:#C3987B;}
	.st20{fill-rule:evenodd;clip-rule:evenodd;fill:#9DA1A2;}
	.st21{fill:#785D88;}
	.st22{fill:#A688BA;}
	.st23{fill-rule:evenodd;clip-rule:evenodd;fill:#9075A0;}
	.st24{fill:#E8CAB6;}
	.st25{fill:#2B2B2B;}
</style>
<polygon class="st0" points="162.6,331.6 166.9,324.5 162.3,312.7 158.2,318.7 159.6,331.6 "/>
<polygon class="st0" points="216.6,331.4 219.1,322 215.8,315.9 211.9,312.4 209.7,319.6 213.1,331.4 "/>
<polygon class="st1" points="200.9,229 246.2,275 211.4,208.5 203.6,214 "/>
<polygon class="st2" points="203.6,226.2 246.2,275 220.7,304.8 207.5,262.5 "/>
<polygon class="st3" points="128.3,298 220.7,304.8 212.7,284.4 147.4,273.9 "/>
<polygon class="st4" points="173.2,311.8 174.3,282.4 152.2,282.4 162.3,312.7 169.9,319.5 "/>
<polygon class="st4" points="221.9,310 216.8,288.4 195.9,288.4 211.9,312.4 219.5,321.6 "/>
<polygon class="st5" points="216.8,288.4 200.9,284.2 191.9,282.4 200.1,294.7 "/>
<polygon class="st5" points="173.4,307.7 159.6,304.7 161.3,309.7 "/>
<polygon class="st6" points="211.9,312.4 221.9,310 243.8,331.4 223.2,331.4 "/>
<polygon class="st6" points="162.3,312.7 173.2,311.8 183.7,331.6 162.6,331.6 "/>
<polygon class="st7" points="187.7,174.8 203.6,226.2 211.4,208.5 214,167.6 "/>
<polygon class="st8" points="102.2,58.3 91.1,86.6 67.6,117.8 75.4,65.3 "/>
<polygon class="st9" points="94.7,175.8 69.9,158.5 93,151.6 101.8,154.8 "/>
<polygon class="st9" points="102.2,58.3 67.6,117.8 100.6,107.7 "/>
<polygon class="st10" points="133.6,133.7 94.7,175.8 91.1,118.7 "/>
<polygon class="st11" points="67.6,117.8 91.1,105.7 108.9,112 125.3,121.7 133.6,133.7 "/>
<polygon class="st10" points="91.1,105.7 122.9,122.5 109.4,101.5 "/>
<polygon class="st6" points="152.2,220.2 185.9,217.8 201.9,232 216.8,288.4 174.3,282.4 "/>
<polygon class="st12" points="176.6,139.1 192.2,178.4 214,167.6 214.4,162 192.2,136.6 "/>
<polygon class="st13" points="178.7,42.2 184.3,46.2 207.5,110.8 182,122 172,153.8 147.4,140.4 116.2,102.9 107.2,50.9 159.3,27.3 
	"/>
<polygon class="st4" points="172,153.8 176.4,145.4 174.6,145.4 162.4,133.8 136.5,68.7 127.1,60.6 107.2,106.4 122.9,122.5 
	127.2,124.9 133.6,133.7 147.4,147.9 158.4,153.8 "/>
<polygon class="st5" points="152.2,135.1 174.6,145.4 174.6,145.4 180.2,135 182,122 "/>
<polygon class="st8" points="127.1,60.6 155.4,50.5 164.4,40.5 159.8,24.7 104.3,49.4 114.2,64.2 "/>
<polygon class="st5" points="122.9,122.5 127.5,116.1 133.6,133.7 "/>
<polygon class="st13" points="122.9,122.5 130.3,112.1 113.1,92.8 107.2,106.4 "/>
<polygon class="st5" points="115,100 121.7,108.2 110.6,106.1 "/>
<polygon class="st14" points="134.6,116.4 131.2,119.8 124,112.6 127.6,109 "/>
<polygon class="st15" points="184.7,91.6 182.1,96.8 175.7,94.9 "/>
<polygon class="st16" points="143.7,72 148.5,71.1 151.6,67.3 158.4,67.3 149.3,65.1 "/>
<polygon class="st16" points="173.9,62.8 177.5,61.6 180,55.9 185.2,55.9 178.2,53.9 "/>
<polygon class="st17" points="161.9,109.5 171.3,107 179.5,109.5 174.6,104.2 171.5,105.1 169.8,103.5 "/>
<polygon class="st18" points="162.4,109.4 167.5,111.2 176.6,108.6 171.3,107 "/>
<polygon class="st19" points="191.9,80.1 182.7,86.6 180.1,82.2 "/>
<polygon class="st19" points="151.1,94.9 174.2,91.2 174.1,84.7 "/>
<polygon class="st19" points="145.7,80.1 165.1,79.9 162.7,73.9 "/>
<polygon class="st19" points="187.4,64.9 182,73.5 179.5,67.7 "/>
<polygon class="st9" points="159.8,24.7 155.4,50.5 178.7,42.2 "/>
<polygon class="st11" points="113.1,92.8 127.6,109 133.6,100.1 118.3,80.8 127.1,60.6 104.3,49.4 91.1,105.7 102.2,106.2 
	107.2,106.4 "/>
<polygon class="st1" points="153.5,168.1 151,179.5 170.7,189.1 177.7,185.6 164.5,169.1 164.5,169.1 "/>
<polygon class="st1" points="175.7,141.9 196.9,176 205.2,151.6 "/>
<polygon class="st2" points="192.2,136.6 220,117.5 245.5,121.9 214.4,162 "/>
<polygon class="st20" points="245.5,121.9 248.2,86.7 238.3,79.5 220,117.5 "/>
<polygon class="st1" points="236.2,55.9 228.1,34.5 220.1,36.7 224.2,58.2 215.8,88.6 222.7,94.3 239.1,89.8 255.4,85.3 258.4,76.8 
	"/>
<polygon class="st21" points="255.5,77.5 243.5,66.2 222.9,72.2 218.7,87.7 223.3,91.5 253.5,83.2 "/>
<polygon class="st13" points="234.5,57.7 239.6,45.8 251.1,63.3 249.9,68.8 243.5,66.3 "/>
<polygon class="st4" points="226.6,55.7 235.1,68.7 243.5,66.3 239.6,45.8 "/>
<rect x="224.5" y="84.5" transform="matrix(0.4209 -0.9071 0.9071 0.4209 52.8145 254.99)" class="st22" width="3.2" height="3.2"/>
<rect x="224.2" y="80.5" transform="matrix(0.4217 -0.9067 0.9067 0.4217 56.4206 250.8653)" class="st22" width="1.4" height="1.4"/>
<rect x="229.4" y="84.2" transform="matrix(0.4215 -0.9068 0.9068 0.4215 56.1357 257.7881)" class="st22" width="1.4" height="1.4"/>
<rect x="229.4" y="80.2" transform="matrix(0.4215 -0.9068 0.9068 0.4215 59.7787 255.4699)" class="st22" width="1.4" height="1.4"/>
<polygon class="st23" points="176.4,223 216.8,288.2 203.6,226.2 190.5,221.9 "/>
<polygon class="st0" points="196,194.3 192.2,178.4 173.4,184.7 176.4,222.8 176.6,223 203.6,226.2 "/>
<polygon class="st17" points="113.1,92.8 110,100 107.2,90.7 140.2,77.6 143.7,86.4 "/>
<polygon class="st24" points="184.7,91.6 175.7,94.9 165.1,68.6 174.2,65.3 "/>
<path class="st17" d="M181.7,83.8l22.8-8.3L197.1,57l-56.9,20.7l7.5,18.5l24.8-9l-5.8-14.7l9.1-3.3L181.7,83.8z M150,90.8L145.7,80
	l17-6.2l4.3,10.8L150,90.8z M199,73L184,78.4l-4.4-10.7l15-5.4L199,73z"/>
<polygon class="st12" points="147.4,147.9 166.3,172 170.7,189.1 176.4,223 173.4,307.7 128.3,298 157.4,217.8 128.3,167 "/>
<polygon class="st2" points="176.4,223 128.3,298 152.2,220.2 165.1,217.8 "/>
<polygon class="st3" points="177.7,185.6 158.4,189.1 144.1,202.3 152.2,220.2 176.4,223 176.4,223 177.7,185.6 "/>
<polygon class="st1" points="147.4,147.9 143.1,171.5 166.3,172 159.7,160.7 "/>
<polygon class="st23" points="172,153.8 167.1,162 160.9,165.2 147.4,147.9 "/>
<polygon class="st0" points="172,153.8 172,153.8 160.9,165.2 166.3,172 173.9,165.6 "/>
<polygon class="st20" points="128.3,167 144.1,202.3 196.9,176 182,171.5 166.3,172 "/>
<polygon class="st2" points="196.9,176 192.2,136.6 186.5,129.8 179.5,129.8 166.3,172 "/>
<polygon class="st4" points="179.5,129.8 185.7,109.7 196.6,114.4 201.9,123.3 192.2,136.6 "/>
<polygon class="st4" points="185.7,109.7 200.2,105.3 207.5,110.8 198.6,114.1 "/>
<polygon class="st13" points="185.7,109.7 207.5,110.8 208.9,120.8 201.9,123.3 "/>
<circle class="st25" cx="160.5" cy="81.8" r="2.5"/>
<circle class="st25" cx="188.6" cy="71.4" r="2.5"/>
</svg>
