<?xml version="1.0" encoding="utf-8"?>
<!-- Generator: Adobe Illustrator 27.3.0, SVG Export Plug-In . SVG Version: 6.00 Build 0)  -->
<svg version="1.1" id="Layer_1" xmlns="http://www.w3.org/2000/svg" xmlns:xlink="http://www.w3.org/1999/xlink" x="0px" y="0px"
	 viewBox="0 0 350 350" style="enable-background:new 0 0 350 350;" xml:space="preserve">
<style type="text/css">
	.st0{fill-rule:evenodd;clip-rule:evenodd;fill:#DFBDA5;}
	.st1{fill-rule:evenodd;clip-rule:evenodd;fill:#8B6651;}
	.st2{fill-rule:evenodd;clip-rule:evenodd;fill:#C3987B;}
	.st3{fill-rule:evenodd;clip-rule:evenodd;fill:#E8CAB6;}
	.st4{fill-rule:evenodd;clip-rule:evenodd;fill:#369496;}
	.st5{fill-rule:evenodd;clip-rule:evenodd;fill:#4F5253;}
	.st6{fill-rule:evenodd;clip-rule:evenodd;fill:#72CBCC;}
	.st7{fill-rule:evenodd;clip-rule:evenodd;fill:#8CE0DC;}
	.st8{fill-rule:evenodd;clip-rule:evenodd;fill:#27788C;}
	.st9{fill-rule:evenodd;clip-rule:evenodd;fill:#318FA6;}
	.st10{fill-rule:evenodd;clip-rule:evenodd;fill:#2B2B2B;}
	.st11{fill-rule:evenodd;clip-rule:evenodd;fill:#6F7173;}
	.st12{fill-rule:evenodd;clip-rule:evenodd;fill:#50A9AA;}
	.st13{fill-rule:evenodd;clip-rule:evenodd;fill:#1C7678;}
	.st14{fill-rule:evenodd;clip-rule:evenodd;fill:#FFFFFF;}
	.st15{fill-rule:evenodd;clip-rule:evenodd;fill:#5EC0D9;}
	.st16{fill-rule:evenodd;clip-rule:evenodd;fill:#3AA0BA;}
	.st17{fill-rule:evenodd;clip-rule:evenodd;fill:#73CFE5;}
</style>
<path class="st0" d="M195,280.4L172.1,304l-10.2,6.5l1-8l5-17.8L195,280.4L195,280.4z"/>
<path class="st1" d="M184.5,291.3l10.5-10.9h-13.5l-13.5,4.3L184.5,291.3z"/>
<path class="st0" d="M230.9,274.7l-4.7,32.3l-8.4,3.5l-0.2-5.1l-10.7-26.9L230.9,274.7L230.9,274.7z"/>
<path class="st1" d="M210.2,287l20.7-12.3H216l-9.1,3.8L210.2,287z"/>
<path class="st0" d="M139.8,185.5l-27.1,12.6l-1.1,5.2l2.8,4.7l37.2-1.3L139.8,185.5z"/>
<path class="st2" d="M114.4,208l-10.7,5l-3.1-6v-11.9l12.1,3L114.4,208z"/>
<path class="st1" d="M100.6,195.1l-14.5,7.7l4.8,10.2h12.8L100.6,195.1z"/>
<path class="st3" d="M112.7,198.1l-12.1-5l-7,5.7l0.6,3l7.2-2l6.1,3.4l6.1-0.4L112.7,198.1z"/>
<path class="st1" d="M139.8,185.5l3,21.5l8.8-0.3l-5.1-8.5L139.8,185.5L139.8,185.5z"/>
<path class="st4" d="M168.4,163.7l-28.6,21.8l9.2,18.1l6.1,7.6l6.6-7.4l6.7-22.5L168.4,163.7L168.4,163.7z"/>
<path class="st5" d="M103.7,112l-8.3,17.6l20.2,7.9l-4.5-13.7L103.7,112z"/>
<path class="st6" d="M166.5,72.3l2.8-7.7l-0.8-15.8L109,57.4l3.7,15l5.5,10l27.5-2L166.5,72.3z"/>
<path class="st7" d="M109,57.4L85.3,91.2l18.4,20.8l10.1-14.5l4.4-15.1L109,57.4z"/>
<path class="st4" d="M168.5,48.8l14.7,31.8l-9.9-3.8l-6.8-4.5L168.5,48.8L168.5,48.8z"/>
<path class="st8" d="M110.8,62.5l2.4-0.4l2.3,5.9l5.6-1l1.6,3.9l-5.8,1.2l2.1,5.5l-2.4,0.6l-3.9-5.8L110.8,62.5L110.8,62.5z"/>
<path class="st9" d="M110.8,62.5l-1.5,2.5l1.8,5.2l-3.1,5l2,3.1l2.7-4l2.3,5.9l1.6-2L110.8,62.5z"/>
<path class="st6" d="M191.3,155.5l19.7,2.6l2.6,16.5l-1.1,14.5l-50.8,14.7l3.5-18.8L191.3,155.5z"/>
<path class="st0" d="M103.7,112l27.9,59.5l30.1-12.8l21.3,15.7l7.9-40.3l6-24.4l-14.1,0.9l0.7,11l-27.2-24.8l-12.4,0.3l-15.5,5
	L103.7,112L103.7,112z"/>
<path class="st2" d="M156.3,96.8l24.4,53.5l-19,8.4l8.7,1.7l1.8,6.1l10.8,7.9l8.3-18.9l5.6-45.8l-14.1,0.9l0.7,11l-10.1-13.7
	L156.3,96.8L156.3,96.8z M117.3,123.5l18.9,7.5l8.9,3.4l4.6-24.7L117.3,123.5z"/>
<path class="st3" d="M136.5,115.2l8.6,19.2l-6.2,2.9l-8.5-19.4L136.5,115.2z"/>
<path class="st1" d="M138.9,137.3l4.9,2.2l1.3-5.1L138.9,137.3L138.9,137.3z M161.7,158.7l10.5,7.8l14.1-18.8L161.7,158.7z
	 M187.4,126.1l6.8,5.9l0.8-6.4L187.4,126.1L187.4,126.1z M187.9,122.2l-0.2-8.1l5-0.2L187.9,122.2z"/>
<path class="st5" d="M134.2,103.2l-10.2-9l-5.8-11.8l48.3-10.1l32,15.9L178.7,93l-22.4,3.8l-9.6,2.8L134.2,103.2L134.2,103.2z"/>
<path class="st10" d="M156.3,96.8l27.2,24.8l-0.7-11l14.1-0.9l1.6-21.5L156.3,96.8z"/>
<path class="st11" d="M118.2,82.4L103.7,112l30.5-8.8L118.2,82.4z"/>
<path class="st5" d="M136.5,115.2l-1.8-4.2l15-1.3L136.5,115.2z M130.4,117.9l-13.1,5.6l11.1-9.7L130.4,117.9L130.4,117.9z"/>
<path class="st12" d="M158.1,139.9l-8.8,12.7l-14.4-2.6l12.8-1.5L158.1,139.9L158.1,139.9z"/>
<path class="st13" d="M153.6,143.6l-8.1,0.1l-5.3,5.7l7.5-0.9L153.6,143.6L153.6,143.6z"/>
<path class="st14" d="M183,174.4l19,4.7l-10.7-23.6L183,174.4z"/>
<path class="st14" d="M168.4,163.7l-3.2,21.3l17.8-10.6L168.4,163.7L168.4,163.7z"/>
<path class="st12" d="M212.5,189.1l5.1,11.7l19,19.5l-22.5,11.6l-28.2,1.3l-6.4-14.1l-17.8-15.3L212.5,189.1z"/>
<path class="st4" d="M185.9,233.2l19.8,22.1l25.2,19.4l5.7-54.4L185.9,233.2z"/>
<path class="st12" d="M185.9,233.2L168,284.7l62.9-10L185.9,233.2z"/>
<path class="st4" d="M230.9,274.7l-54.2-15.1l-8.7,25.1L230.9,274.7z"/>
<path class="st8" d="M192.1,227.6l14-1.2l-3.9-4.8l-4.8,1.7L192.1,227.6z"/>
<path class="st13" d="M227.5,210.9l-19.3,9.1l-2.1,6.4l2.6,13.4l5.4,4.6l0.2,6.1l-25.6,30.9l-16-10.1l16-46.6l9-10.7l23.7-9.3
	L227.5,210.9L227.5,210.9z"/>
<path class="st15" d="M149,203.6l8.4,10.4l2.8-2.2l-6.1-7.6l4.5-3.7l6.2,7.5l2.7-2.2l-8.4-10.4L149,203.6z"/>
<path class="st16" d="M218.1,241.1l-35.2,28.6L142,220.9l36.5-28.5L218.1,241.1z"/>
<path class="st9" d="M182.9,269.7l-3.4,0.1l-39.6-48.7l3.4-0.1L182.9,269.7z"/>
<path class="st17" d="M143.3,221l35.2-28.6l-4.1,0.6l-34.5,28.1L143.3,221z"/>
<path class="st0" d="M212.5,189.1l-11.2,18.3l2.1,4.8l3.5,2.9l32-16.7l-15.2-6L212.5,189.1L212.5,189.1z"/>
<path class="st3" d="M201.3,207.4h-10.6l4.6,8.9l6.9,5.3l4.7-6.5L201.3,207.4z"/>
<path class="st2" d="M190.7,207.4l-7.3,14.4l8.7,5.8l10.1-6L190.7,207.4z"/>
<path class="st12" d="M211,158.1l27.9,40.3l-26.4-9.3L211,158.1z"/>
<polygon class="st8" points="226.8,303 231.5,318.1 221.2,319.7 210.9,318.1 216,301.6 "/>
<polygon class="st16" points="225.1,312.1 217.5,312.1 210.9,318.1 210.9,320.6 231.5,320.6 231.5,318.1 "/>
<polygon class="st8" points="162.9,302.5 154.3,310.4 162.6,319.6 172.7,318.2 172,304 "/>
<polygon class="st16" points="154.3,310.4 165.4,318.2 172.7,318.2 172.7,320.6 143.2,320.6 143.2,315.2 "/>
<circle cx="127.9" cy="128.9" r="3"/>
<circle cx="146.7" cy="121" r="3"/>
</svg>
