<?xml version="1.0" encoding="utf-8"?>
<!-- Generator: Adobe Illustrator 27.3.0, SVG Export Plug-In . SVG Version: 6.00 Build 0)  -->
<svg version="1.1" id="Layer_1" xmlns="http://www.w3.org/2000/svg" xmlns:xlink="http://www.w3.org/1999/xlink" x="0px" y="0px"
	 viewBox="0 0 350 350" style="enable-background:new 0 0 350 350;" xml:space="preserve">
<style type="text/css">
	.st0{fill-rule:evenodd;clip-rule:evenodd;fill:#DFBDA5;}
	.st1{fill-rule:evenodd;clip-rule:evenodd;fill:#C3987B;}
	.st2{fill-rule:evenodd;clip-rule:evenodd;fill:#8B6651;}
	.st3{fill-rule:evenodd;clip-rule:evenodd;fill:#BF8F00;}
	.st4{fill-rule:evenodd;clip-rule:evenodd;fill:#E5C828;}
	.st5{fill-rule:evenodd;clip-rule:evenodd;fill:#CCAD14;}
	.st6{fill-rule:evenodd;clip-rule:evenodd;fill:#474747;}
	.st7{fill-rule:evenodd;clip-rule:evenodd;fill:#856400;}
	.st8{fill:#474747;}
	.st9{fill:#802D00;}
	.st10{fill:#A84000;}
	.st11{fill:#CC4E00;}
	.st12{fill:#ED8600;}
	.st13{fill:#FF9B01;}
	.st14{fill:#F4D75D;}
	.st15{fill:#9E7700;}
	.st16{fill-rule:evenodd;clip-rule:evenodd;fill:#9E7700;}
	.st17{fill-rule:evenodd;clip-rule:evenodd;fill:#B58B00;}
	.st18{fill-rule:evenodd;clip-rule:evenodd;fill:#8F8F8F;}
	.st19{fill-rule:evenodd;clip-rule:evenodd;fill:#755800;}
	.st20{fill:#B58B00;}
	.st21{fill-rule:evenodd;clip-rule:evenodd;fill:#E8CAB6;}
	.st22{fill:#2B2B2B;}
	.st23{fill-rule:evenodd;clip-rule:evenodd;fill:#2B2B2B;}
</style>
<polygon class="st0" points="203.5,327 204.4,337.7 217.3,337.7 221.5,333.6 225.1,330.1 213.8,318.6 208.2,318.5 "/>
<polygon class="st1" points="204.4,337.7 203.7,328.9 211.2,336.7 229.7,326.4 238,337.7 "/>
<polygon class="st0" points="156.8,318.5 162.5,325.7 164.4,337.1 154.3,337.1 149.5,333 144.5,327 148.4,320.2 "/>
<polygon class="st1" points="145,326.4 134.8,337.1 164.4,337.1 163.1,329.4 157.8,337.1 "/>
<polygon class="st2" points="210.9,315.8 206.4,316.2 202.7,318.3 203.5,327 213.8,318.6 "/>
<polygon class="st2" points="161,317.1 157.4,314.8 151.5,315 148.4,320.2 162.5,325.7 "/>
<polygon class="st3" points="214.2,248.7 195.2,256.4 176.5,267 188.2,298.4 206.3,294.6 223.9,287.8 "/>
<polygon class="st4" points="188.2,298.4 192.4,310.2 208.5,300.3 223.9,287.8 "/>
<polygon class="st5" points="192.4,310.2 223.9,287.8 230.1,310 211.3,311.8 "/>
<polygon class="st4" points="192.4,310.2 196.5,320.1 230.1,310 "/>
<polygon class="st3" points="176.5,267 173.9,297.3 155.2,295.3 133.1,290.3 136.3,250.4 160,258.6 "/>
<polygon class="st4" points="133.1,290.3 153.9,302.3 172.9,310.2 173.9,297.3 "/>
<polygon class="st5" points="133.1,290.3 131.1,310.4 153.9,311.4 172.9,310.2 "/>
<polygon class="st4" points="172.9,310.2 131.1,310.4 171.9,319.5 "/>
<polygon class="st6" points="194.8,156.6 203.3,159.4 208,163.9 214.1,163.1 225.7,174.9 222.4,185.7 213.9,198.3 140.2,200.2 
	131.3,192.7 124.6,183.6 141.2,162.9 147.5,162 150.7,158.8 160.2,154.7 174.9,165.3 "/>
<polygon class="st7" points="214.2,248.7 176.5,267 136.3,250.4 140.2,200.2 146.4,193 152.7,189.5 201.8,186.8 207.6,189.9 
	213.9,198.3 "/>
<polygon class="st4" points="111.4,181.9 71.2,187.9 58.3,222.3 76.6,251.1 113.2,264 149.6,255.9 146.2,221.5 120.3,216.5 "/>
<polygon class="st1" points="102.1,199.5 97.6,203.9 91.3,207.8 100.2,221.9 110.1,213.6 104.9,205.7 "/>
<polygon class="st2" points="107,216.2 103.7,206.4 91.3,207.8 102.1,199.5 110.1,213.6 "/>
<polygon class="st0" points="103.7,206.4 91.3,207.8 87.8,221.1 91.6,223.3 "/>
<rect x="74.7" y="198.7" transform="matrix(0.3446 -0.9387 0.9387 0.3446 -138.7464 206.9392)" class="st8" width="8.3" height="8.3"/>
<rect x="69.7" y="212.4" transform="matrix(0.3446 -0.9387 0.9387 0.3446 -154.8425 211.2635)" class="st9" width="8.3" height="8.3"/>
<rect x="74.7" y="227.7" transform="matrix(0.3448 -0.9387 0.9387 0.3448 -165.9861 225.9616)" class="st10" width="8.3" height="8.3"/>
<rect x="87.3" y="238.1" transform="matrix(0.3446 -0.9387 0.9387 0.3446 -167.4113 244.6056)" class="st11" width="8.3" height="8.3"/>
<rect x="101.4" y="243.3" transform="matrix(0.3448 -0.9387 0.9387 0.3448 -163.0616 261.2265)" class="st12" width="8.3" height="8.3"/>
<rect x="117.4" y="243.6" transform="matrix(0.3446 -0.9387 0.9387 0.3446 -152.9694 276.4529)" class="st13" width="8.3" height="8.3"/>
<rect x="131.5" y="235.6" transform="matrix(0.3446 -0.9387 0.9387 0.3446 -136.1664 284.4118)" class="st14" width="8.3" height="8.3"/>
<polygon class="st0" points="140.2,200.2 120.3,216.5 114.8,195.2 124.6,183.6 "/>
<polygon class="st0" points="241.9,188.7 225.7,174.9 213.9,198.3 225.8,202.3 236.7,198.5 "/>
<polygon class="st3" points="214.1,163.1 213.9,198.3 201.8,186.8 203.3,159.4 "/>
<polygon class="st3" points="150.7,158.8 152.7,189.5 140.2,200.2 141.2,162.9 "/>
<rect x="160.6" y="198.8" class="st15" width="33.1" height="33.8"/>
<polygon class="st16" points="214,216.6 210.3,213.9 206.6,220.8 211.6,219.9 214.1,226 "/>
<polygon class="st5" points="192.3,236.7 186.9,241.1 187.7,245.4 194.8,250.6 197.5,239.6 "/>
<polygon class="st5" points="160.6,229.1 169.3,226.2 168.5,219.1 172.6,217.5 170.1,210.6 167.8,211.5 168,214.8 162.7,214.4 
	160.6,219.5 159.8,223.8 "/>
<polygon class="st16" points="177.6,239 172.2,237.6 173.4,243.4 177.4,242.7 "/>
<polygon class="st17" points="160.6,219.5 153.5,220.6 156.9,229.1 160.6,229.1 "/>
<polygon class="st2" points="103.7,206.4 100.2,221.9 96.6,216.2 "/>
<polygon class="st5" points="96.6,216.2 91.6,223.3 100.2,221.9 "/>
<polygon class="st1" points="225.8,202.3 254.7,177.4 264.3,176.9 262.6,188.2 246.5,209 "/>
<polygon class="st2" points="254.7,177.4 262.6,188.2 269.9,185.6 264.1,170.6 "/>
<polygon class="st1" points="276.4,166.3 285.5,179.4 283.5,182.2 270.7,176.9 260.9,165.3 "/>
<polygon class="st6" points="229.2,141.6 267.1,182.5 271.2,179.2 273.6,174.8 "/>
<polygon class="st7" points="283.5,182.2 286.5,194.1 275.4,191.5 279.1,186.1 "/>
<polygon class="st18" points="262.2,177.2 275.4,191.5 283.5,182.2 273.6,174.8 "/>
<polygon class="st0" points="259.2,183.6 262.2,177.2 271.3,178.3 273.6,174.8 260.9,165.3 254.7,177.4 "/>
<polygon class="st5" points="122.9,91.7 167.5,80.9 213.9,67.2 213.3,60.6 209.5,50.8 165.3,70.8 "/>
<polygon class="st4" points="209.5,50.8 162.4,62.5 114.8,77.7 116.8,83.8 122.9,91.7 "/>
<polygon class="st19" points="157.2,52.6 152.9,66.9 171.7,61.5 "/>
<polygon class="st19" points="209.5,50.8 217,53.3 225.2,59.3 215.6,74.4 213.5,70.1 213.9,67.2 "/>
<polygon class="st5" points="209.5,50.8 208.5,43.1 210.4,33.1 220,47.4 225.2,59.3 "/>
<polygon class="st3" points="210.4,33.1 235.7,48.8 225.2,59.3 "/>
<polygon class="st7" points="209.5,50.8 210.4,33.1 210.9,23.4 192.6,42.6 193,55.5 "/>
<polygon class="st3" points="205.1,30 184.3,16.3 180.7,25.7 179.4,33.1 186.7,39.5 193.7,43 "/>
<polygon class="st5" points="193.7,43 179.4,33.1 174.9,44.3 171.7,61.5 193,55.5 "/>
<polygon class="st5" points="184.3,16.3 155.3,31.7 171.2,33.4 179.4,33.1 "/>
<polygon class="st3" points="179.4,33.1 155.3,31.7 160.4,43.2 171.7,61.5 "/>
<polygon class="st19" points="110.5,97.5 128.8,101.6 126,95.2 122.9,91.7 116.9,93.1 "/>
<polygon class="st5" points="171.7,61.5 157.9,53.9 149.4,50.3 144.2,46.4 146.3,38 149.8,31.2 152,25.5 155.3,31.7 "/>
<polygon class="st3" points="144.2,46.4 136.3,43.8 128.3,37.6 126.7,29.4 149.8,31.2 "/>
<polygon class="st7" points="144.2,46.4 128.3,37.6 120.4,48.2 125.7,58.6 134.7,72 142,56 "/>
<polygon class="st7" points="107.6,79.8 104,100.7 122.9,91.7 114.8,77.7 111.3,77.5 "/>
<polygon class="st3" points="120.4,48.2 113.2,56.4 110.6,62.6 119.2,66.3 134.7,72 "/>
<polygon class="st5" points="120.4,48.2 95.1,56.7 110.6,62.6 "/>
<polygon class="st5" points="110.6,62.6 96.7,83.1 114.8,77.7 134.7,72 "/>
<polygon class="st3" points="144.2,46.4 134.7,72 145.4,85.6 152.9,66.9 157.9,53.9 "/>
<polygon class="st0" points="213.9,67.2 229.5,131.1 201.2,141.2 197.4,147.9 194.8,156.6 182.6,165 172.5,175.5 154.9,143 
	142.9,125.3 133.3,109.1 131.2,101.1 122.9,91.7 "/>
<polygon class="st2" points="150.9,115.8 146.1,107.7 138.2,111.8 145,115 "/>
<polygon class="st1" points="159,82 183.6,147.3 193.7,147.3 194.8,156.6 172.5,175.5 157.1,149.4 155.3,143.8 152.5,141.6 
	142.9,125.3 157.7,116.5 152.8,107.2 161,102.5 150.6,84.2 "/>
<polygon class="st1" points="173.7,91.5 182.4,91.5 192.3,104.9 190.4,89.1 184.9,81 "/>
<polygon class="st1" points="196.3,77.7 200.2,98.7 204.3,84.1 211.5,79.7 "/>
<polygon class="st7" points="184.9,81 171.4,86.1 173.7,91.5 "/>
<polygon class="st7" points="196.3,77.7 210.2,73.9 211.5,79.7 "/>
<polygon class="st19" points="189.7,119.8 200.7,112.4 212.4,113.2 203,120.2 "/>
<polygon class="st17" points="215.7,111.1 202.6,119.5 185.2,120 203.8,124.6 "/>
<polygon class="st7" points="150.6,84.2 161,102.5 152.8,107.2 148.6,100.3 133.3,109.1 122.9,91.7 "/>
<polygon class="st2" points="201.2,141.2 177.3,149.5 194.8,156.6 "/>
<polygon class="st2" points="157.6,121.5 154,135.8 146.4,127.5 "/>
<polygon class="st2" points="168.8,131.9 157.1,149.4 152.5,141.6 157.9,135.8 "/>
<path class="st19" d="M159.1,115.7l9.7,16.3l-16.3,9.7l-9.7-16.3L159.1,115.7z M148.7,126.8l5.3,9l9-5.3l-5.3-9L148.7,126.8z"/>
<rect x="148.4" y="112.8" transform="matrix(0.8597 -0.5108 0.5108 0.8597 -40.16 93.8343)" class="st20" width="4.6" height="14.5"/>
<polygon class="st21" points="196.3,77.7 184.9,81 192.3,104.9 203.5,101.6 "/>
<polygon class="st2" points="203.5,101.6 199.6,108.8 192.3,104.9 "/>
<circle class="st22" cx="183.1" cy="98.1" r="3.5"/>
<path class="st23" d="M210.1,90.4c0,1.9-1.6,3.5-3.5,3.5c-1.9,0-3.5-1.6-3.5-3.5s1.6-3.5,3.5-3.5c0,0,0,0,0,0
	C208.5,86.9,210.1,88.4,210.1,90.4C210.1,90.4,210.1,90.4,210.1,90.4z"/>
</svg>
