<?xml version="1.0" encoding="utf-8"?>
<!-- Generator: Adobe Illustrator 27.3.0, SVG Export Plug-In . SVG Version: 6.00 Build 0)  -->
<svg version="1.1" id="Layer_1" xmlns="http://www.w3.org/2000/svg" xmlns:xlink="http://www.w3.org/1999/xlink" x="0px" y="0px"
	 viewBox="0 0 350 350" style="enable-background:new 0 0 350 350;" xml:space="preserve">
<style type="text/css">
	.st0{fill-rule:evenodd;clip-rule:evenodd;fill:#ECECEB;stroke:#9DA1A2;stroke-width:4;stroke-miterlimit:10;}
	.st1{fill:#8F8F8F;}
	.st2{fill-rule:evenodd;clip-rule:evenodd;fill:#CECECD;}
	.st3{fill-rule:evenodd;clip-rule:evenodd;fill:#A3A3A3;}
	.st4{fill-rule:evenodd;clip-rule:evenodd;fill:#ECECEB;}
	.st5{fill-rule:evenodd;clip-rule:evenodd;fill:#9DA1A2;}
	.st6{opacity:0.1;fill:#2B2B2B;enable-background:new    ;}
	.st7{fill:#27788C;}
	.st8{fill:#4F5253;}
	.st9{fill:#6F7173;}
	.st10{fill:#318FA6;}
	.st11{fill:#474747;}
	.st12{fill:#3AA0BA;}
	.st13{fill:#DFBDA5;}
	.st14{fill:#C3987B;}
	.st15{fill:#8B6651;}
	.st16{fill:#E8CAB6;}
	.st17{fill:#DDDDDC;}
	.st18{fill:#C4C4C4;}
	.st19{fill:#9DA1A2;}
	.st20{fill:#737373;}
	.st21{fill:#1C7678;}
	.st22{fill:#369496;}
	.st23{fill:#72CBCC;}
	.st24{fill:#2B2B2B;}
</style>
<path class="st0" d="M142.9,54.3c0,3.3-2.6,5.9-5.9,5.9s-5.9-2.6-5.9-5.9s2.6-5.9,5.9-5.9l0,0C140.3,48.4,142.9,51,142.9,54.3z"/>
<path class="st1" d="M133.3,75.3c3-2.2,3.9-3,3.9-3.9c-0.1-0.6-0.6-1-1.2-1c-0.7,0-1.5,0.3-2,0.8l-0.9-1c0.7-0.8,1.7-1.2,2.8-1.2
	c1.6,0,2.8,0.9,2.8,2.3s-1,2.3-3,3.7h3.1v1.4h-5.5L133.3,75.3L133.3,75.3z"/>
<path class="st2" d="M153.3,41.1h27.3v87h-27.3V41.1z"/>
<path class="st3" d="M153.3,82.3h27.3v45.8h-27.3V82.3z"/>
<path class="st4" d="M161.8,91.6h10.3v29.3h-10.3V91.6z"/>
<path class="st5" d="M161.8,115.8h10.3v5.1h-10.3V115.8z"/>
<path class="st0" d="M172.9,54.3c0,3.3-2.6,5.9-5.9,5.9s-5.9-2.6-5.9-5.9s2.6-5.9,5.9-5.9l0,0C170.3,48.4,172.9,51,172.9,54.3z"/>
<path class="st1" d="M163.9,74.5c0.5,0.5,1.3,0.8,2,0.8c0.9,0,1.4-0.4,1.4-0.9s-0.5-0.9-1.5-0.9h-0.9v-1.4h0.9
	c0.8,0,1.4-0.3,1.4-0.8s-0.6-0.9-1.4-0.9c-0.7,0-1.4,0.3-1.9,0.8l-0.8-1c0.7-0.8,1.7-1.2,2.8-1.2c1.7,0,2.8,0.8,2.8,2
	c-0.1,0.9-0.7,1.6-1.6,1.7c0.9,0.1,1.6,0.9,1.7,1.8c0,1.3-1.1,2.2-2.9,2.2c-1.1,0.1-2.2-0.4-2.9-1.2L163.9,74.5z"/>
<path class="st4" d="M191.8,91.6h10.3v29.3h-10.3V91.6z"/>
<path class="st5" d="M191.8,115.8h10.3v5.1h-10.3V115.8z"/>
<path class="st0" d="M202.9,54.3c0,3.3-2.6,5.9-5.9,5.9s-5.9-2.6-5.9-5.9s2.6-5.9,5.9-5.9l0,0C200.3,48.4,202.9,51,202.9,54.3z"/>
<path class="st1" d="M196.6,75.1h-3.5v-1.2l2.9-4.6h2.2v4.4h0.9v1.4h-0.9v1.5h-1.6V75.1z M194.6,73.7h2v-3.1L194.6,73.7z"/>
<path class="st2" d="M123.3,163.1h27.3v87h-27.3V163.1z"/>
<path class="st3" d="M123.3,204.3h27.3v45.8h-27.3V204.3z"/>
<path class="st4" d="M131.8,213.6h10.3v29.3h-10.3V213.6z"/>
<path class="st5" d="M131.8,237.8h10.3v5.1h-10.3V237.8z"/>
<path class="st0" d="M142.9,176.3c0,3.3-2.6,5.9-5.9,5.9s-5.9-2.6-5.9-5.9c0-3.3,2.6-5.9,5.9-5.9l0,0
	C140.3,170.4,142.9,173,142.9,176.3z"/>
<path class="st1" d="M134.7,194.8c-0.8-0.3-1.5-0.8-1.5-1.7c0-1.4,1.5-1.9,2.8-1.9s2.8,0.6,2.8,1.9c0,0.9-0.6,1.6-1.5,1.7
	c0.9,0.2,1.5,1,1.6,1.9c0,1.4-1.4,2-2.9,2s-2.9-0.7-2.9-2C133.3,195.8,133.9,195.1,134.7,194.8z M136.1,195.5
	c-0.5,0.1-1.4,0.4-1.4,1s0.6,0.9,1.4,0.9s1.4-0.3,1.4-0.9S136.6,195.5,136.1,195.5L136.1,195.5z M136.1,192.5
	c-0.7,0-1.2,0.3-1.2,0.8s0.8,0.8,1.2,0.9c0.5-0.1,1.2-0.3,1.2-0.9S136.8,192.5,136.1,192.5L136.1,192.5z"/>
<path class="st2" d="M153.3,163.1h27.3v87h-27.3V163.1z"/>
<path class="st3" d="M153.3,204.3h27.3v45.8h-27.3V204.3z"/>
<path class="st4" d="M161.8,213.6h10.3v29.3h-10.3V213.6z"/>
<path class="st5" d="M161.8,237.8h10.3v5.1h-10.3V237.8z"/>
<path class="st0" d="M172.9,176.3c0,3.3-2.6,5.9-5.9,5.9s-5.9-2.6-5.9-5.9c0-3.3,2.6-5.9,5.9-5.9l0,0
	C170.3,170.4,172.9,173,172.9,176.3z"/>
<path class="st1" d="M164.2,196.8c0.7,0.8,1.9,0.8,2.7,0.1c0.4-0.4,0.7-1,0.6-1.6v-0.2c-0.5,0.6-1.2,0.9-1.9,0.9
	c-1.3,0.1-2.4-0.9-2.5-2.2c0-0.1,0-0.2,0-0.2c0-1.4,1.2-2.5,2.6-2.5c0.1,0,0.1,0,0.2,0c2.2,0,3.2,1.7,3.2,3.8s-1.2,3.8-3.4,3.8
	c-0.8,0-1.6-0.3-2.2-0.8L164.2,196.8z M166,192.5c-0.7,0-1.2,0.4-1.3,1.1c0,0.8,0.6,1.1,1.4,1.1c0.6,0,1.1-0.3,1.4-0.7
	C167.5,193.2,166.8,192.5,166,192.5L166,192.5z"/>
<path class="st4" d="M191.8,213.6h10.3v29.3h-10.3V213.6z"/>
<path class="st5" d="M191.8,237.8h10.3v5.1h-10.3V237.8z"/>
<path class="st0" d="M202.9,176.3c0,3.3-2.6,5.9-5.9,5.9s-5.9-2.6-5.9-5.9c0-3.3,2.6-5.9,5.9-5.9l0,0
	C200.3,170.4,202.9,173,202.9,176.3z"/>
<path class="st1" d="M192.7,193.3l-1.2,1.2l-0.9-0.9l2.3-2.3h1.4v7.3h-1.6L192.7,193.3L192.7,193.3z M198.4,191.1c2.1,0,3,1.9,3,3.8
	s-0.9,3.8-3,3.8s-3-1.9-3-3.8S196.3,191.1,198.4,191.1z M198.4,192.5c-1.1,0-1.5,1-1.5,2.4s0.4,2.4,1.5,2.4s1.4-1.1,1.4-2.4
	S199.4,192.5,198.4,192.5L198.4,192.5z"/>
<path class="st1" d="M223.8,193.3l-1.2,1.2l-0.9-0.9l2.3-2.3h1.4v7.3h-1.6L223.8,193.3L223.8,193.3z M228.3,193.3l-1.2,1.2l-0.9-0.9
	l2.3-2.3h1.4v7.3h-1.6V193.3z"/>
<path class="st0" d="M262.9,176.3c0,3.3-2.6,5.9-5.9,5.9c-3.3,0-5.9-2.6-5.9-5.9c0-3.3,2.6-5.9,5.9-5.9
	C260.3,170.4,262.9,173,262.9,176.3z"/>
<polygon class="st6" points="107.4,325.3 187.4,319.4 263.2,325.5 190.8,334.5 "/>
<polygon class="st7" points="177.3,325 194.3,325.2 194.3,321.5 163.4,318.2 173.7,326.1 "/>
<polygon class="st7" points="155.4,319.8 149.3,324.3 149.3,328 177.4,328.7 177.3,325 "/>
<polygon class="st8" points="184.8,237 190.7,234.7 210.5,236.1 194.5,276.4 177.4,290.9 165.2,288.7 166,257 "/>
<polygon class="st9" points="194.5,276.4 182.1,306.5 175.2,309.2 165.2,312.3 174.1,281.2 "/>
<polygon class="st10" points="182.1,306.5 194.3,321.5 167.1,321.5 167,315.6 170,308 "/>
<polygon class="st9" points="177.9,258.7 174.1,281.2 157.7,295 145.4,280.4 139.4,253.1 158.8,241.2 "/>
<polygon class="st11" points="204.1,227.7 210.5,236.1 182.6,252.6 169.9,236.4 "/>
<polygon class="st8" points="174.1,281.2 170,308 162.8,315.3 152.3,311 145.4,280.4 "/>
<polygon class="st12" points="170,308 177.3,325 149.3,324.3 152.3,311 "/>
<polygon class="st13" points="202.1,31.9 178.3,36.8 164.5,42.8 152.6,38.8 135.6,38.8 139.9,47.6 147.2,51.2 142.9,62 144.1,72.8 
	148.1,86.1 155.6,96.8 152.3,97.2 149.7,99.8 147.7,93.8 142.6,84.5 133.6,86.4 127.9,90 136.7,104.9 143,112.6 143.2,118.1 
	147.4,125.2 150.1,128.4 149.7,131.8 160.6,138.6 177.7,145.4 182.4,140.6 184.6,134.8 184.6,124 216.6,117.2 211.2,79.9 
	212.7,72.7 210,60 207,56.4 "/>
<polygon class="st14" points="150,40.8 157.5,66.1 162.5,89.6 171.4,126.6 184.6,124 183.4,129.2 184.6,134.8 177.7,145.4 
	149.7,131.8 142.8,117.5 138.4,104.9 149.7,99.8 146.8,93.8 146.1,88.2 150.7,89.9 144.1,72.8 144.1,62.6 147.2,51.2 140.9,46.3 
	135.6,38.8 144.8,39.3 "/>
<polygon class="st15" points="138.4,104.9 149.7,99.8 142.8,117.5 138.7,110.3 "/>
<polygon class="st15" points="184.6,124 165.9,127.6 177.7,145.4 182.9,140.4 184.6,134.8 "/>
<polygon class="st14" points="166.7,83 167.7,72.6 177.9,70.1 182.8,80.9 162.5,89.6 183.6,87.4 187.7,91 181.9,61.4 164.4,70.7 
	162.5,77.2 "/>
<polygon class="st14" points="199.7,75.8 199.9,66.7 209.1,63.7 211.7,65.1 211.2,77 194.7,83.1 195.3,86.5 211.2,79.9 214.1,69.8 
	210.7,58 193.9,62.8 195.3,76.2 "/>
<polygon class="st15" points="187.7,91 192.5,94.6 195.9,89.6 "/>
<polygon class="st16" points="183.2,67.2 191.3,65.4 195.9,89.6 187.7,91 "/>
<polygon class="st7" points="183.2,67.2 181.4,64.3 181.9,61.4 190.1,59.8 192.5,62.4 191.3,65.4 "/>
<path class="st10" d="M181.9,61.4l-24.4,4.7l0.9,8.9l2.2,5.4l1.9,9.2l23.9-5l-3.2-17.4L181.9,61.4z M164.4,70.7L164.4,70.7l13.1-2.6
	l2.4,12.2L166.8,83L164.4,70.7z"/>
<path class="st10" d="M190.1,59.7l23.9-4.7l4.4,23.3l-23.7,4.7l-3.4-17.8L190.1,59.7z M197.4,64.4L197.4,64.4l2.2,11.4l11.4-2
	l-2.3-11.6L197.4,64.4z"/>
<polygon class="st15" points="179.8,106 203.6,101.3 204,103.2 180.2,108 "/>
<polygon class="st15" points="143.9,97.8 139.1,88.5 134.1,90.7 "/>
<polygon class="st17" points="202.1,31.9 156.9,26.5 159.9,36.4 164.5,42.8 "/>
<polygon class="st18" points="135.6,38.8 125.8,43.5 123.4,62.9 134.6,59.7 147.2,51.2 "/>
<polygon class="st17" points="123.4,62.9 119,96 133.6,86.4 145.2,75.7 147.2,51.2 "/>
<polygon class="st19" points="145.9,77.1 152.8,91 146.8,93.8 142.3,83.9 129.7,90.6 138.1,104.5 142.8,117.5 119.4,95.6 126,90.4 
	"/>
<polygon class="st18" points="164.5,42.8 156.9,26.5 135.6,38.8 "/>
<polygon class="st7" points="157.5,66.1 126,90.4 129.5,98.9 129.7,90.6 159.7,76.3 "/>
<polygon class="st15" points="148.3,81.7 159.7,76.3 160,77.5 160.6,80.4 149.5,84.3 "/>
<polygon class="st20" points="142.6,84.5 148.3,81.7 149.5,84.3 143.4,86.5 "/>
<polygon class="st17" points="149.7,131.8 147.1,142.6 171,155.8 180.8,159 188.1,150.8 192.1,140.5 184.6,134.8 177.7,145.4 "/>
<polygon class="st18" points="192.1,140.5 202.8,143.8 194.3,160.6 184.3,174.2 159.1,162.7 137.8,149.7 147.1,142.6 180.8,159 "/>
<polygon class="st21" points="137.8,149.7 174.4,169 178.9,170.3 184.3,174.2 159.7,202.9 137.9,166.1 "/>
<polygon class="st21" points="184.3,174.2 186.3,168.7 190.7,163.6 202.8,143.8 214.4,170.2 206.8,190 195.7,203.6 189,211.4 
	181.5,192.9 "/>
<polygon class="st8" points="177.7,145.4 171.8,154.6 180.8,159 186.5,149.8 "/>
<polygon class="st20" points="180.8,159 174.4,169 184.3,174.2 190.7,163.6 "/>
<polygon class="st1" points="136.2,165.8 184.3,174.2 194.5,176 189,211.4 195.7,219.2 185.1,237 181.6,259.2 123.1,250.3 "/>
<polygon class="st9" points="185.1,237 125.6,234.6 127.2,223.9 165.6,227.5 173.9,231.4 179.2,232.8 "/>
<polygon class="st22" points="206.8,190 189,211.4 188.1,217.6 195.7,220.2 192.1,226.7 185.1,237 210.7,236.1 "/>
<polygon class="st23" points="137.8,149.7 138.4,202.6 114.2,221.6 118.7,160.8 "/>
<polygon class="st22" points="138.4,201.4 164.5,210.7 167.1,212.1 171.1,212.7 168.7,230.2 164.6,228.6 160.7,228.9 114.2,221.6 
	"/>
<polygon class="st17" points="164.5,210.7 171.1,212.7 170.9,220.8 168.7,230.2 160.7,228.9 "/>
<polygon class="st14" points="171.1,212.7 180.2,208.6 188.9,212 188.4,215.7 181.5,215.7 "/>
<polygon class="st22" points="202.8,143.8 225.7,178.2 217.3,185.6 206.8,190 "/>
<polygon class="st23" points="206.8,190 225.7,178.2 241.1,168.2 243.9,168.1 246.3,164.8 253,170.6 251.5,178.7 251.3,184 
	222.7,206.3 "/>
<polygon class="st17" points="246.3,164.8 252.9,171.7 256.6,179.8 251.3,184 241.1,168.2 "/>
<polygon class="st1" points="261.6,135.8 266.5,124.4 268.7,136.6 264.6,137.6 "/>
<polygon class="st15" points="250.9,171.3 256.6,179.8 261.4,176.8 259.9,161.3 "/>
<polygon class="st8" points="261.6,135.8 268.7,136.6 262.8,188.2 255.7,187.4 256.6,179.8 261,173.3 258.9,159.3 "/>
<path class="st24" d="M176.3,73.8c0,1.4-1,2.5-2.4,2.5c-1.4,0-2.5-1-2.5-2.4c0-1.4,1-2.5,2.4-2.5c0,0,0.1,0,0.1,0
	C175.2,71.4,176.3,72.5,176.3,73.8z"/>
<path class="st24" d="M206.7,68.2c0,1.3-1,2.4-2.3,2.4c0,0-0.1,0-0.1,0c-1.3,0-2.4-1.1-2.4-2.4s1.1-2.4,2.4-2.4c0,0,0,0,0,0
	C205.6,65.8,206.7,66.8,206.7,68.2C206.7,68.1,206.7,68.2,206.7,68.2z"/>
<polygon class="st14" points="258.3,158.2 271.1,162 264,180.7 256.6,179.8 258.2,163.8 "/>
<polygon class="st13" points="246.3,164.8 259.3,156 263.1,169.2 257.6,170 256,165.8 252.2,173.3 "/>
<polygon class="st13" points="171.1,212.7 188.4,215.7 189.6,222.8 191.6,227.4 188.6,231.6 185.1,237 168.7,230.2 "/>
<polygon class="st14" points="188.4,215.7 185.1,237 190.2,233.2 195.7,220.2 "/>
<polygon class="st11" points="177.9,258.7 141.6,263.4 139.3,252.7 "/>
</svg>
