<?xml version="1.0" encoding="utf-8"?>
<!-- Generator: Adobe Illustrator 27.3.0, SVG Export Plug-In . SVG Version: 6.00 Build 0)  -->
<svg version="1.1" id="Layer_1" xmlns="http://www.w3.org/2000/svg" xmlns:xlink="http://www.w3.org/1999/xlink" x="0px" y="0px"
	 viewBox="0 0 350 350" style="enable-background:new 0 0 350 350;" xml:space="preserve">
<style type="text/css">
	.st0{fill-rule:evenodd;clip-rule:evenodd;fill:#4F5253;}
	.st1{fill-rule:evenodd;clip-rule:evenodd;fill:#858686;}
	.st2{fill-rule:evenodd;clip-rule:evenodd;fill:#6F7173;}
	.st3{fill-rule:evenodd;clip-rule:evenodd;fill:#856400;}
	.st4{fill-rule:evenodd;clip-rule:evenodd;fill:#9E7700;}
	.st5{fill-rule:evenodd;clip-rule:evenodd;fill:#755800;}
	.st6{fill-rule:evenodd;clip-rule:evenodd;fill:#BC8F2D;}
	.st7{fill-rule:evenodd;clip-rule:evenodd;fill:#B58B00;}
	.st8{fill-rule:evenodd;clip-rule:evenodd;fill:#BF8F00;}
	.st9{fill-rule:evenodd;clip-rule:evenodd;fill:#E5C828;}
	.st10{opacity:0.2;fill-rule:evenodd;clip-rule:evenodd;fill:#2B2B2B;enable-background:new    ;}
	.st11{fill-rule:evenodd;clip-rule:evenodd;fill:#CCAD14;}
	.st12{fill-rule:evenodd;clip-rule:evenodd;fill:#DFBDA5;}
	.st13{fill-rule:evenodd;clip-rule:evenodd;fill:#C3987B;}
	.st14{opacity:0.15;fill-rule:evenodd;clip-rule:evenodd;fill:#2B2B2B;enable-background:new    ;}
	.st15{fill-rule:evenodd;clip-rule:evenodd;fill:#8B6651;}
	.st16{fill:#8B6651;}
	.st17{fill-rule:evenodd;clip-rule:evenodd;fill:#474747;}
	.st18{fill:#2B2B2B;}
	.st19{fill-rule:evenodd;clip-rule:evenodd;fill:#E8CAB6;}
	.st20{fill:#CCAD14;}
	.st21{fill:#4F5253;}
</style>
<polygon class="st0" points="113,124.4 120.5,120.7 130.5,141.3 123.2,145 "/>
<polygon class="st1" points="134.6,117.8 102,133.6 103.3,151.5 141.4,133.8 "/>
<polygon class="st2" points="103.3,151.5 113,152.9 147.9,137.5 143.6,132.7 139.7,132.8 "/>
<polygon class="st0" points="145.5,172.2 130.5,141.3 123.2,145 137.9,175.8 "/>
<polygon class="st2" points="134.6,117.8 138.5,117.6 144,117.6 147.9,137.5 139.7,132.8 "/>
<polygon class="st3" points="218.3,236.5 210.7,256 203.3,265.1 201.9,278.7 197,295.9 188.1,295.6 177,298.6 181.6,260.6 "/>
<polygon class="st4" points="179.1,290 199.4,287.3 197,295.9 187.3,298.6 177,298.6 177,295 "/>
<polygon class="st5" points="197,295.9 213.6,314.9 181.7,314.9 177,298.6 "/>
<polygon class="st6" points="172.1,319.4 213.6,319.4 213.6,314.9 172,314.9 "/>
<polygon class="st4" points="205.3,261.3 195.8,260.2 190.9,279.6 201.9,278.7 205.2,270.2 "/>
<polygon class="st7" points="195.8,260.2 205.1,270.2 210.7,256 "/>
<polygon class="st4" points="185.3,264 177,298.6 171.1,300.8 149.2,304.9 144.9,251.2 "/>
<polygon class="st8" points="218.3,236.5 185.3,264 144.9,251.2 167.5,245.3 "/>
<polygon class="st9" points="153.8,149.9 188.1,157.9 208.7,214.9 213.7,225.2 157.4,228.3 144.2,231.9 143.5,221.4 "/>
<polygon class="st8" points="139.4,159 153.8,149.9 163.3,191.4 155,192 144.7,172.9 "/>
<polygon class="st8" points="143.5,221.4 183.9,193.7 205.5,202.4 214.3,225.8 157.7,229.8 144.2,231.9 "/>
<polygon class="st10" points="181,212.6 194.2,220.6 212.9,222.1 210.2,214.9 186.3,199.9 164.6,209.4 143.5,221.4 "/>
<polygon class="st11" points="210.8,175.9 216.9,178.9 213.4,187.4 205.5,202.4 205.3,184.5 206.2,177.7 "/>
<polygon class="st0" points="181.5,187.4 194.2,220.6 210.2,214.9 197.4,181.2 "/>
<polygon class="st3" points="214.3,225.8 197.4,226.6 192.7,231.1 187.3,227.1 165.4,228.1 165.4,237 166.8,246.6 189.1,242.2 
	192.7,238.5 199.1,240.3 218.3,236.5 "/>
<polygon class="st11" points="187.3,227.1 189.1,242.2 199.1,240.3 197.4,226.6 "/>
<polygon class="st12" points="213.7,81.8 215.9,108.8 214,134.6 192.8,141 182.7,151.8 166.9,152.2 153.8,149.9 145.3,130 
	138.5,117.6 131.5,103.2 128.5,80.1 150.5,88 181.3,85.1 188.4,74.8 197,82.5 "/>
<polygon class="st13" points="157.4,88.1 160.8,115.1 155,119.3 148.8,116.5 146.1,105.6 151.6,105.2 150.5,88.9 "/>
<polygon class="st13" points="185.1,112.3 175.3,97.6 157.4,88.1 183.5,83.1 "/>
<polygon class="st13" points="198.7,106.9 203.1,92.7 211.6,82 193.5,80.9 "/>
<polygon class="st13" points="215.9,108.8 138.5,117.6 153.8,149.9 164.5,152.4 173.7,153.9 188.1,157.9 191,147.5 194,141.7 
	218.3,138.6 "/>
<polygon class="st13" points="160.8,115.1 164.7,145.1 172.2,147.5 174.9,155.4 172.6,164.1 153.8,149.9 142.9,127 142.4,122.5 
	138.5,117.6 148.8,116.5 "/>
<polygon class="st14" points="160.8,115.1 164.7,145.1 172.2,147.5 174.9,155.4 172.6,164.1 153.8,149.9 142.9,127 142.4,122.5 
	138.5,117.6 148.8,116.5 "/>
<polygon class="st15" points="194,141.7 160.9,145.6 172.6,164.1 188.1,157.9 "/>
<polygon class="st15" points="148.8,116.5 142.9,127 138.5,117.6 "/>
<rect x="182.3" y="110.7" transform="matrix(0.1297 -0.9916 0.9916 0.1297 34.5382 291.7856)" class="st16" width="2.4" height="31.1"/>
<polygon class="st15" points="185.1,112.3 192.9,116.5 199.1,110.7 192.1,110.8 "/>
<polygon class="st17" points="157.4,88.1 182.7,92.5 182,85.6 172.2,85.8 "/>
<polygon class="st17" points="197.3,91.4 196.5,83.5 203.1,81.8 211.6,82 "/>
<rect x="170.7" y="92.7" transform="matrix(0.1092 -0.994 0.994 0.1092 55.2454 258.7771)" class="st18" width="2.5" height="11.7"/>
<polygon class="st17" points="150.5,88.9 151.6,105.2 146.1,105.6 144,97.8 131.5,103.2 121,81 137.7,81.6 "/>
<polygon class="st15" points="136,105.4 140.8,103.5 144,112.7 "/>
<polygon class="st4" points="148,59.6 137.4,60 128,62.2 123.9,70.6 121,81 138.4,68.7 "/>
<polygon class="st3" points="128,62.2 155.1,47.4 179.2,37.4 209.5,53.6 175.9,58.5 148,59.6 139.2,60.7 "/>
<polygon class="st8" points="179.2,37.4 136.2,40.9 128,62.2 "/>
<polygon class="st4" points="128,62.2 114.9,49.9 98.5,64.8 112.4,64.7 "/>
<polygon class="st8" points="98.5,64.8 74.3,87.2 109.9,71.4 128,62.2 "/>
<polygon class="st5" points="74.3,87.2 121,81 128,62.2 "/>
<polygon class="st9" points="148,59.6 224,52.2 226.7,80.4 196.5,83.5 188.4,74.8 182,85.6 150.5,88.9 147.9,72.1 "/>
<polygon class="st17" points="156.7,65.6 184.6,62.9 176.4,78.3 158,80.1 "/>
<polygon class="st17" points="218,59.6 190.1,62.2 201.1,75.8 219.5,74 "/>
<polygon class="st11" points="150.5,88.9 121,81 148,59.6 "/>
<path class="st18" d="M206.5,96.5c0,1.9-1.5,3.4-3.4,3.4s-3.4-1.5-3.4-3.4s1.5-3.4,3.4-3.4S206.5,94.6,206.5,96.5
	C206.5,96.5,206.5,96.5,206.5,96.5z"/>
<polygon class="st19" points="188.4,74.8 196.5,83.5 199.1,110.7 185.1,112.3 182.1,85.6 "/>
<polygon class="st11" points="131.2,195.4 118.7,169.6 139.4,159 155,192 146.7,199.3 "/>
<polygon class="st9" points="163.9,211.3 143.5,221.4 131.2,195.4 155,192 163.2,200.9 "/>
<polygon class="st12" points="181.5,187.4 155,192 163.9,211.3 186.3,199.9 187.3,193.7 "/>
<polygon class="st13" points="186.3,199.9 205.5,202.4 201.2,187.9 197.4,181.2 190.7,181.5 181.5,187.4 "/>
<polygon class="st15" points="205.5,202.4 211.1,190.9 210.8,175.9 204,176.7 197.4,181.2 "/>
<polygon class="st3" points="177,298.6 181.7,314.9 148.8,314.9 149.2,304.9 "/>
<rect x="148.8" y="314.9" class="st20" width="32.9" height="4.6"/>
<polygon class="st8" points="179.1,290 148.4,294.3 149.2,304.9 177,298.6 "/>
<polygon class="st11" points="165.4,228.1 157.4,228.3 159.4,260.2 163.2,295 171.5,291 "/>
<polygon class="st11" points="135.2,248 142.5,256.9 157.4,228.3 136.3,234.3 "/>
<polygon class="st0" points="132,210.5 136.7,212.8 134,222.1 128.5,225.8 128.5,218.1 "/>
<polygon class="st0" points="109.5,214 115.1,214.2 123.2,225.8 115.2,226.6 "/>
<polygon class="st1" points="134,222.1 151.6,250.2 150.3,255.1 136,238.6 129.3,223.6 "/>
<polygon class="st2" points="116.7,225 121.4,221.9 126.2,218.8 118.9,207.8 132,210.5 129.3,223.6 150.3,255.1 145.6,258.2 
	140.9,261.3 119.9,229.8 106.8,227.1 109.5,214 "/>
<polygon class="st9" points="163.2,295 129.3,293.3 124.9,237.5 142.5,255.5 157.4,228.3 "/>
<polygon class="st13" points="234.2,181.4 243.8,174 243.8,162.9 235.6,171 "/>
<polygon class="st2" points="172.6,164.1 234.7,139.6 239.7,150.8 243.8,162.9 181.5,187.4 "/>
<polygon class="st0" points="234.7,139.6 244.8,144.9 247.2,149.1 248.1,153.3 243.8,162.9 "/>
<polygon class="st17" points="244.8,144.9 253.6,141.3 253.8,146.3 252.1,151.7 248.1,153.3 "/>
<polygon class="st2" points="253.6,141.3 260.9,138.4 261.3,142.9 259.4,148.7 252.1,151.7 "/>
<polygon class="st17" points="260.9,138.4 268.2,135.5 267.8,140.4 266.6,145.8 259.4,148.7 "/>
<polygon class="st2" points="268.2,135.5 275.1,132.7 275,137.4 273.6,143 266.6,145.8 "/>
<polygon class="st17" points="275.1,132.7 282.1,129.9 281.8,134.6 280.5,140.2 273.7,143 "/>
<polygon class="st2" points="282.1,129.9 288.6,127.3 286.9,137.6 280.5,140.2 "/>
<polygon class="st13" points="205.5,202.4 220.1,172.2 232,170.7 234.2,181.4 227.7,206.9 "/>
<polygon class="st15" points="220.1,172.2 231.5,166.9 243.8,162.9 234.2,181.4 "/>
<polygon class="st12" points="220.1,172.2 223.6,157.4 238.7,149.9 243.8,162.9 "/>
<rect x="181.1" y="165.3" transform="matrix(0.9345 -0.3559 0.3559 0.9345 -46.8811 78.2431)" class="st21" width="16.1" height="2.4"/>
<rect x="182.7" y="169.4" transform="matrix(0.9345 -0.3559 0.3559 0.9345 -48.2234 79.0606)" class="st21" width="16.1" height="2.4"/>
<rect x="184.2" y="173.4" transform="matrix(0.9345 -0.3559 0.3559 0.9345 -49.5597 79.8721)" class="st21" width="16.1" height="2.4"/>
</svg>
