<svg width="41" height="41" viewBox="0 0 41 41" fill="none" xmlns="http://www.w3.org/2000/svg">
<path fill-rule="evenodd" clip-rule="evenodd" d="M20.5 36.5C29.3366 36.5 36.5 29.3366 36.5 20.5C36.5 11.6634 29.3366 4.5 20.5 4.5C11.6634 4.5 4.5 11.6634 4.5 20.5C4.5 29.3366 11.6634 36.5 20.5 36.5ZM27.9142 17.9142C28.6953 17.1332 28.6953 15.8668 27.9142 15.0858C27.1332 14.3047 25.8668 14.3047 25.0858 15.0858L18.5 21.6716L15.9142 19.0858C15.1332 18.3047 13.8668 18.3047 13.0858 19.0858C12.3047 19.8668 12.3047 21.1332 13.0858 21.9142L17.0858 25.9142C17.8668 26.6953 19.1332 26.6953 19.9142 25.9142L27.9142 17.9142Z" fill="white"/>
</svg>
