<svg width="34" height="34" viewBox="0 0 34 34" fill="none" xmlns="http://www.w3.org/2000/svg">
<path fill-rule="evenodd" clip-rule="evenodd" d="M2.90154 14.4035C1.59894 12.2845 -0.00549117 8.02722 0.566514 0.301148C0.588895 -0.00116789 0.969084 -0.108923 1.15021 0.132403C4.73943 4.91455 5.19456 5.26708 9.12637 8.04608C11.353 6.53184 14.0326 5.64842 16.916 5.64842C19.8362 5.64842 22.5475 6.55463 24.7909 8.1046C28.7993 5.27178 29.2356 4.94791 32.8499 0.132403C33.031 -0.108923 33.4112 -0.00116789 33.4335 0.301148C34.0056 8.02722 32.4011 12.2845 31.0985 14.4035C30.7809 14.8809 30.5165 15.2783 30.2818 15.6139C30.6896 16.9441 30.9093 18.3582 30.9093 19.8242C30.9093 27.6533 24.6443 34 16.916 34C9.18767 34 2.92264 27.6533 2.92264 19.8242C2.92264 18.2967 3.16114 16.8255 3.6025 15.447C3.39703 15.1484 3.16786 14.8039 2.90154 14.4035ZM18.4316 14.1816C18.4316 13.3909 17.7907 12.75 17 12.75C16.2094 12.75 15.5684 13.3909 15.5684 14.1816V18.4763H11.2737C10.4831 18.4763 9.84212 19.1173 9.84212 19.9079C9.84212 20.6985 10.4831 21.3395 11.2737 21.3395H15.5684V25.6342C15.5684 26.4249 16.2094 27.0658 17 27.0658C17.7907 27.0658 18.4316 26.4249 18.4316 25.6342V21.3395H22.7263C23.517 21.3395 24.1579 20.6985 24.1579 19.9079C24.1579 19.1173 23.517 18.4763 22.7263 18.4763L18.4316 18.4763V14.1816Z" fill="url(#paint0_linear_153_302)"/>
<defs>
<linearGradient id="paint0_linear_153_302" x1="33.3572" y1="3.00978e-06" x2="1.69027" y2="35.1206" gradientUnits="userSpaceOnUse">
<stop stop-color="#D20033"/>
<stop offset="0.898958" stop-color="#7C0087"/>
</linearGradient>
</defs>
</svg>
