<svg width="29" height="28" viewBox="0 0 29 28" fill="none" xmlns="http://www.w3.org/2000/svg">
<path d="M3.66372 28C2.80817 28 2.07576 27.6954 1.4665 27.0861C0.857242 26.4769 0.552612 25.7444 0.552612 24.8889V3.11111C0.552612 2.25556 0.857242 1.52315 1.4665 0.913889C2.07576 0.30463 2.80817 0 3.66372 0H17.6637V3.11111H3.66372V24.8889H25.4415V10.8889H28.5526V24.8889C28.5526 25.7444 28.248 26.4769 27.6387 27.0861C27.0295 27.6954 26.2971 28 25.4415 28H3.66372ZM22.3304 9.33333V6.22222H19.2193V3.11111H22.3304V0H25.4415V3.11111H28.5526V6.22222H25.4415V9.33333H22.3304ZM5.21928 21.7778H23.8859L18.0526 14L13.3859 20.2222L9.88595 15.5556L5.21928 21.7778Z" fill="white"/>
</svg>
