<svg width="34" height="35" viewBox="0 0 34 35" fill="none" xmlns="http://www.w3.org/2000/svg">
<path fill-rule="evenodd" clip-rule="evenodd" d="M2.45414 14.644C1.15155 12.5251 -0.452886 8.26779 0.119119 0.541721C0.1415 0.239405 0.521689 0.131651 0.702815 0.372976C4.29203 5.15513 4.74717 5.50765 8.67898 8.28665C10.9056 6.77242 13.5852 5.88899 16.4686 5.88899C19.3888 5.88899 22.1001 6.7952 24.3435 8.34517C28.3519 5.51235 28.7882 5.18849 32.4025 0.372976C32.5836 0.131651 32.9638 0.239405 32.9861 0.541721C33.5582 8.26779 31.9537 12.5251 30.6511 14.644C30.3335 15.1214 30.0691 15.5189 29.8344 15.8545C30.2422 17.1847 30.4619 18.5987 30.4619 20.0648C30.4619 27.8939 24.1969 34.2406 16.4686 34.2406C8.74027 34.2406 2.47524 27.8939 2.47524 20.0648C2.47524 18.5372 2.71374 17.0661 3.15511 15.6875C2.94964 15.3889 2.72047 15.0444 2.45414 14.644ZM17.9842 14.4222C17.9842 13.6315 17.3433 12.9906 16.5526 12.9906C15.762 12.9906 15.121 13.6315 15.121 14.4222V18.7169H10.8263C10.0357 18.7169 9.39473 19.3578 9.39473 20.1485C9.39473 20.9391 10.0357 21.58 10.8263 21.58H15.121V25.8748C15.121 26.6654 15.762 27.3064 16.5526 27.3064C17.3433 27.3064 17.9842 26.6654 17.9842 25.8748V21.58H22.2789C23.0696 21.58 23.7105 20.9391 23.7105 20.1485C23.7105 19.3578 23.0696 18.7169 22.2789 18.7169L17.9842 18.7169V14.4222Z" fill="white"/>
</svg>
