<svg width="41" height="41" viewBox="0 0 41 41" fill="none" xmlns="http://www.w3.org/2000/svg">
<path fill-rule="evenodd" clip-rule="evenodd" d="M20.5 36.5C29.3366 36.5 36.5 29.3366 36.5 20.5C36.5 11.6634 29.3366 4.5 20.5 4.5C11.6634 4.5 4.5 11.6634 4.5 20.5C4.5 29.3366 11.6634 36.5 20.5 36.5ZM17.9142 15.0858C17.1332 14.3047 15.8668 14.3047 15.0858 15.0858C14.3047 15.8668 14.3047 17.1332 15.0858 17.9142L17.6716 20.5L15.0858 23.0858C14.3047 23.8668 14.3047 25.1332 15.0858 25.9142C15.8668 26.6953 17.1332 26.6953 17.9142 25.9142L20.5 23.3284L23.0858 25.9142C23.8668 26.6953 25.1332 26.6953 25.9142 25.9142C26.6953 25.1332 26.6953 23.8668 25.9142 23.0858L23.3284 20.5L25.9142 17.9142C26.6953 17.1332 26.6953 15.8668 25.9142 15.0858C25.1332 14.3047 23.8668 14.3047 23.0858 15.0858L20.5 17.6716L17.9142 15.0858Z" fill="white"/>
</svg>
