<svg width="12" height="12" viewBox="0 0 12 12" fill="none" xmlns="http://www.w3.org/2000/svg">
<path fill-rule="evenodd" clip-rule="evenodd" d="M3.41421 0.585787C2.63317 -0.195262 1.36684 -0.195262 0.585787 0.585787C-0.195262 1.36683 -0.195262 2.63317 0.585787 3.41421L3.17157 6L0.585787 8.58578C-0.195262 9.36683 -0.195262 10.6332 0.585787 11.4142C1.36683 12.1953 2.63317 12.1953 3.41421 11.4142L6 8.82843L8.58579 11.4142C9.36683 12.1953 10.6332 12.1953 11.4142 11.4142C12.1953 10.6332 12.1953 9.36683 11.4142 8.58579L8.82843 6L11.4142 3.41421C12.1953 2.63317 12.1953 1.36683 11.4142 0.585787C10.6332 -0.195262 9.36683 -0.195262 8.58579 0.585787L6 3.17157L3.41421 0.585787Z" fill="white"/>
</svg>
