<svg width="32" height="28" viewBox="0 0 32 28" fill="none" xmlns="http://www.w3.org/2000/svg">
<path d="M2 0C0.89543 0 0 0.89543 0 2C0 3.10457 0.89543 4 2 4H24C25.1046 4 26 3.10457 26 2C26 0.89543 25.1046 0 24 0H2Z" fill="white"/>
<path d="M2 8C0.89543 8 0 8.89543 0 10C0 11.1046 0.89543 12 2 12H16C17.1046 12 18 11.1046 18 10C18 8.89543 17.1046 8 16 8H2Z" fill="white"/>
<path d="M2 16C0.89543 16 0 16.8954 0 18C0 19.1046 0.89543 20 2 20H10C11.1046 20 12 19.1046 12 18C12 16.8954 11.1046 16 10 16H2Z" fill="white"/>
<path d="M26 10C26 8.89543 25.1046 8 24 8C22.8954 8 22 8.89543 22 10L22 21.1716L19.4142 18.5858C18.6332 17.8047 17.3668 17.8047 16.5858 18.5858C15.8047 19.3668 15.8047 20.6332 16.5858 21.4142L22.5858 27.4142C22.9609 27.7893 23.4696 28 24 28C24.5304 28 25.0391 27.7893 25.4142 27.4142L31.4142 21.4142C32.1953 20.6332 32.1953 19.3668 31.4142 18.5858C30.6332 17.8047 29.3668 17.8047 28.5858 18.5858L26 21.1716L26 10Z" fill="white"/>
</svg>
