<svg width="73" height="79" viewBox="0 0 73 79" fill="none" xmlns="http://www.w3.org/2000/svg">
    <title>findmyenemy-logo</title>
    <path fill-rule="evenodd" clip-rule="evenodd" d="M2.20115 0.913033C1.13653 16.7868 4.51355 25.5885 7.26336 30.0039C7.8815 30.9212 8.40574 31.6992 8.87381 32.3663C8.01672 35.167 7.55556 38.1408 7.55556 41.2222C7.55556 46.8238 9.08399 52.0749 11.7411 56.5738L2.21297 66.1019C-0.737657 69.0525 -0.737657 73.8364 2.21297 76.787C5.1636 79.7377 9.94751 79.7377 12.8981 76.787L22.4263 67.2589C26.9251 69.916 32.1762 71.4444 37.7778 71.4444C54.469 71.4444 68 57.9135 68 41.2222C68 37.9384 67.4763 34.7769 66.5078 31.8167C66.8764 31.2806 67.281 30.6803 67.7366 30.0042C70.4864 25.5887 73.8636 16.7868 72.799 0.913033C72.7379 0.00265408 71.5862 -0.330628 71.0331 0.395051C63.8779 9.78296 62.688 10.7495 54.8074 16.2512C49.9581 12.9377 44.0942 11 37.7778 11C31.3397 11 25.3718 13.0131 20.4692 16.4441C12.3389 10.7707 11.205 9.89165 3.96704 0.395051C3.41395 -0.330628 2.26221 0.00265408 2.20115 0.913033ZM37.7778 26.1111C29.4321 26.1111 22.6667 32.8766 22.6667 41.2222C22.6667 45.3971 24.3498 49.1645 27.0926 51.9074C29.8355 54.6502 33.6029 56.3333 37.7778 56.3333C46.1234 56.3333 52.8889 49.5679 52.8889 41.2222C52.8889 32.8766 46.1234 26.1111 37.7778 26.1111Z" fill="url(#paint0_linear_123_183)"/>
    <defs>
        <linearGradient id="paint0_linear_123_183" x1="72.5691" y1="4.15087e-06" x2="-1.30764" y2="77.7576" gradientUnits="userSpaceOnUse">
            <stop stop-color="#D20033"/>
            <stop offset="0.898958" stop-color="#7C0087"/>
        </linearGradient>
    </defs>
</svg>

