<svg width="15" height="16" viewBox="0 0 15 16" fill="none" xmlns="http://www.w3.org/2000/svg">
<path fill-rule="evenodd" clip-rule="evenodd" d="M2.55261 7V5C2.55261 2.23858 4.79119 0 7.55261 0C10.314 0 12.5526 2.23858 12.5526 5V7C13.6572 7 14.5526 7.89543 14.5526 9V14C14.5526 15.1046 13.6572 16 12.5526 16H2.55261C1.44804 16 0.552612 15.1046 0.552612 14V9C0.552612 7.89543 1.44804 7 2.55261 7ZM10.5526 5V7H4.55261V5C4.55261 3.34315 5.89576 2 7.55261 2C9.20947 2 10.5526 3.34315 10.5526 5Z" fill="white"/>
</svg>
