<svg width="144" height="78" viewBox="0 0 144 78" fill="none" xmlns="http://www.w3.org/2000/svg">
<title>findmyenemy-logo-lettering</title>
<path d="M5.12 29.6C4.82667 29.6 4.58667 29.5067 4.4 29.32C4.21333 29.1333 4.12 28.8933 4.12 28.6V13.52H1C0.706667 13.52 0.466667 13.4267 0.28 13.24C0.0933333 13.0533 0 12.8133 0 12.52V9.8C0 9.50667 0.0933333 9.26667 0.28 9.08C0.466667 8.89333 0.706667 8.8 1 8.8H4.12V7.36C4.12 5.65333 4.44 4.25333 5.08 3.16C5.72 2.06667 6.65333 1.26667 7.88 0.76C9.10667 0.253333 10.6133 0 12.4 0H21.6C21.8667 0 22.0933 0.0933329 22.28 0.279999C22.4667 0.466666 22.56 0.706666 22.56 0.999999V3.72C22.56 4.01333 22.4667 4.25333 22.28 4.44C22.0933 4.62667 21.8667 4.72 21.6 4.72H12.64C11.6533 4.72 10.96 4.96 10.56 5.44C10.1867 5.92 10 6.62667 10 7.56V8.8H21.6C21.8667 8.8 22.0933 8.89333 22.28 9.08C22.4667 9.26667 22.56 9.50667 22.56 9.8V28.6C22.56 28.8933 22.4667 29.1333 22.28 29.32C22.0933 29.5067 21.8667 29.6 21.6 29.6H17.68C17.3867 29.6 17.1467 29.5067 16.96 29.32C16.7733 29.1333 16.68 28.8933 16.68 28.6V13.52H10V28.6C10 28.8933 9.90667 29.1333 9.72 29.32C9.53333 29.5067 9.30667 29.6 9.04 29.6H5.12Z" fill="white"/>
<path d="M29.5578 29.6C29.2911 29.6 29.0645 29.5067 28.8778 29.32C28.6911 29.1333 28.5978 28.8933 28.5978 28.6V9.8C28.5978 9.50667 28.6911 9.26667 28.8778 9.08C29.0645 8.89333 29.2911 8.8 29.5578 8.8H33.4778C33.7711 8.8 34.0111 8.89333 34.1978 9.08C34.3845 9.26667 34.4778 9.50667 34.4778 9.8V11.36C35.1711 10.5067 36.0645 9.8 37.1578 9.24C38.2511 8.68 39.5845 8.4 41.1578 8.4C42.7311 8.4 44.1045 8.76 45.2778 9.48C46.4778 10.1733 47.4111 11.2 48.0778 12.56C48.7711 13.8933 49.1178 15.52 49.1178 17.44V28.6C49.1178 28.8933 49.0111 29.1333 48.7978 29.32C48.6111 29.5067 48.3845 29.6 48.1178 29.6H43.8778C43.5845 29.6 43.3445 29.5067 43.1578 29.32C42.9711 29.1333 42.8778 28.8933 42.8778 28.6V17.68C42.8778 16.2667 42.5311 15.1733 41.8378 14.4C41.1711 13.6 40.1845 13.2 38.8778 13.2C37.6245 13.2 36.6245 13.6 35.8778 14.4C35.1311 15.1733 34.7578 16.2667 34.7578 17.68V28.6C34.7578 28.8933 34.6645 29.1333 34.4778 29.32C34.2911 29.5067 34.0645 29.6 33.7978 29.6H29.5578Z" fill="white"/>
<path d="M61.6303 30C60.297 30 59.1103 29.7867 58.0703 29.36C57.0303 28.9067 56.1503 28.2667 55.4303 27.44C54.7103 26.5867 54.1636 25.5867 53.7903 24.44C53.417 23.2667 53.1903 21.9733 53.1103 20.56C53.0836 20.0533 53.0703 19.6 53.0703 19.2C53.0703 18.7733 53.0836 18.32 53.1103 17.84C53.1636 16.4533 53.377 15.1867 53.7503 14.04C54.1503 12.8933 54.697 11.9067 55.3903 11.08C56.1103 10.2267 56.9903 9.57333 58.0303 9.12C59.097 8.64 60.297 8.4 61.6303 8.4C63.017 8.4 64.2036 8.64 65.1903 9.12C66.177 9.57333 66.9903 10.1733 67.6303 10.92V2.2C67.6303 1.90667 67.7236 1.66667 67.9103 1.48C68.097 1.29333 68.337 1.2 68.6303 1.2H72.7503C73.017 1.2 73.2436 1.29333 73.4303 1.48C73.617 1.66667 73.7103 1.90667 73.7103 2.2V28.6C73.7103 28.8933 73.617 29.1333 73.4303 29.32C73.2436 29.5067 73.017 29.6 72.7503 29.6H68.9103C68.6437 29.6 68.417 29.5067 68.2303 29.32C68.0436 29.1333 67.9503 28.8933 67.9503 28.6V27.24C67.2837 28.04 66.4436 28.7067 65.4303 29.24C64.417 29.7467 63.1503 30 61.6303 30ZM63.4703 25.2C64.457 25.2 65.2436 24.9733 65.8303 24.52C66.4436 24.0667 66.8836 23.4933 67.1503 22.8C67.4436 22.1067 67.6036 21.36 67.6303 20.56C67.6836 20.0533 67.7103 19.5467 67.7103 19.04C67.7103 18.5333 67.6836 18.04 67.6303 17.56C67.6036 16.8133 67.4436 16.12 67.1503 15.48C66.857 14.8133 66.4036 14.2667 65.7903 13.84C65.2036 13.4133 64.4303 13.2 63.4703 13.2C62.457 13.2 61.657 13.4267 61.0703 13.88C60.4836 14.3067 60.057 14.88 59.7903 15.6C59.5503 16.32 59.4036 17.1067 59.3503 17.96C59.2703 18.7867 59.2703 19.6133 59.3503 20.44C59.4036 21.2933 59.5503 22.08 59.7903 22.8C60.057 23.52 60.4836 24.1067 61.0703 24.56C61.657 24.9867 62.457 25.2 63.4703 25.2Z" fill="white"/>
<path d="M88.5813 29.6C88.3146 29.6 88.0879 29.5067 87.9013 29.32C87.7146 29.1333 87.6212 28.8933 87.6212 28.6V9.8C87.6212 9.50667 87.7146 9.26667 87.9013 9.08C88.0879 8.89333 88.3146 8.8 88.5813 8.8H92.3012C92.5679 8.8 92.7946 8.89333 92.9812 9.08C93.1946 9.26667 93.3013 9.50667 93.3013 9.8V11.16C93.8346 10.4133 94.5679 9.77333 95.5013 9.24C96.4613 8.70667 97.5946 8.42667 98.9013 8.4C101.995 8.34667 104.115 9.52 105.261 11.92C105.875 10.88 106.755 10.04 107.901 9.4C109.075 8.73333 110.355 8.4 111.741 8.4C113.128 8.4 114.381 8.72 115.501 9.36C116.621 9.97333 117.501 10.9333 118.141 12.24C118.808 13.52 119.141 15.1733 119.141 17.2V28.6C119.141 28.8933 119.048 29.1333 118.861 29.32C118.675 29.5067 118.448 29.6 118.181 29.6H114.221C113.955 29.6 113.728 29.5067 113.541 29.32C113.355 29.1333 113.261 28.8933 113.261 28.6V17.52C113.261 16.4267 113.101 15.5733 112.781 14.96C112.461 14.32 112.035 13.8667 111.501 13.6C110.995 13.3333 110.421 13.2 109.781 13.2C109.221 13.2 108.675 13.3333 108.141 13.6C107.635 13.8667 107.208 14.32 106.861 14.96C106.541 15.5733 106.381 16.4267 106.381 17.52V28.6C106.381 28.8933 106.288 29.1333 106.101 29.32C105.915 29.5067 105.675 29.6 105.381 29.6H101.461C101.168 29.6 100.928 29.5067 100.741 29.32C100.555 29.1333 100.461 28.8933 100.461 28.6V17.52C100.461 16.4267 100.301 15.5733 99.9812 14.96C99.6612 14.32 99.2346 13.8667 98.7012 13.6C98.1946 13.3333 97.6346 13.2 97.0212 13.2C96.4612 13.2 95.9146 13.3467 95.3812 13.64C94.8479 13.9067 94.4079 14.3467 94.0612 14.96C93.7412 15.5733 93.5813 16.4133 93.5813 17.48V28.6C93.5813 28.8933 93.4879 29.1333 93.3013 29.32C93.1146 29.5067 92.8879 29.6 92.6213 29.6H88.5813Z" fill="white"/>
<path d="M127.085 37.2C126.872 37.2 126.672 37.12 126.485 36.96C126.325 36.8 126.245 36.6 126.245 36.36C126.245 36.3067 126.259 36.2267 126.285 36.12C126.312 36.04 126.352 35.9333 126.405 35.8L129.525 28.32L121.845 10.2C121.765 9.98667 121.725 9.81333 121.725 9.68C121.752 9.44 121.845 9.24 122.005 9.08C122.165 8.89333 122.365 8.8 122.605 8.8H126.485C126.832 8.8 127.085 8.89333 127.245 9.08C127.405 9.24 127.525 9.41333 127.605 9.6L132.565 22L137.645 9.6C137.752 9.38667 137.885 9.2 138.045 9.04C138.205 8.88 138.459 8.8 138.805 8.8H142.605C142.845 8.8 143.045 8.89333 143.205 9.08C143.392 9.24 143.485 9.42667 143.485 9.64C143.485 9.77333 143.432 9.96 143.325 10.2L132.005 36.4C131.925 36.6133 131.792 36.8 131.605 36.96C131.445 37.12 131.192 37.2 130.845 37.2H127.085Z" fill="white"/>
<path d="M11.556 69.6555C8.14095 69.6555 5.42379 68.7052 3.40448 66.8047C1.41486 64.9042 0.360665 62.1425 0.241882 58.5196C0.241882 58.282 0.241882 57.9702 0.241882 57.5842C0.241882 57.1684 0.241882 56.8418 0.241882 56.6042C0.360665 54.3176 0.880341 52.3577 1.80091 50.7245C2.72148 49.0615 4.01324 47.7994 5.67621 46.9383C7.33917 46.0474 9.28424 45.6019 11.5114 45.6019C14.0059 45.6019 16.0846 46.1216 17.7475 47.161C19.4402 48.1706 20.7023 49.5663 21.5337 51.3481C22.3949 53.1001 22.8255 55.1194 22.8255 57.406V58.4305C22.8255 58.7275 22.7067 58.9799 22.4692 59.1878C22.2613 59.3956 22.0089 59.4996 21.7119 59.4996H7.14615C7.14615 59.5293 7.14615 59.5886 7.14615 59.6777C7.14615 59.7371 7.14615 59.7965 7.14615 59.8559C7.17584 60.8062 7.35402 61.6822 7.68067 62.484C8.03702 63.2561 8.527 63.8797 9.15061 64.3548C9.80392 64.8299 10.576 65.0675 11.4669 65.0675C12.2093 65.0675 12.818 64.9636 13.2932 64.7557C13.7683 64.5478 14.1543 64.2954 14.4513 63.9985C14.778 63.7015 15.0155 63.4491 15.164 63.2412C15.4313 62.9443 15.6391 62.7661 15.7876 62.7067C15.9658 62.6176 16.233 62.5731 16.5894 62.5731H21.2219C21.5189 62.5731 21.7565 62.6622 21.9346 62.8403C22.1425 62.9888 22.2316 63.2115 22.2019 63.5085C22.1722 63.9836 21.9198 64.5775 21.4447 65.2902C20.9992 65.9732 20.3311 66.6562 19.4402 67.3392C18.5493 67.9925 17.4357 68.5419 16.0994 68.9874C14.7928 69.4328 13.2783 69.6555 11.556 69.6555ZM7.14615 55.4461H15.8767V55.357C15.8767 54.288 15.6985 53.3674 15.3422 52.5953C15.0155 51.7935 14.5255 51.1699 13.8722 50.7245C13.2189 50.279 12.432 50.0563 11.5114 50.0563C10.5909 50.0563 9.80392 50.279 9.15061 50.7245C8.4973 51.1699 7.99248 51.7935 7.63613 52.5953C7.30947 53.3674 7.14615 54.288 7.14615 55.357V55.4461Z" fill="white"/>
<path d="M28.3472 69.2101C28.0502 69.2101 27.7978 69.1061 27.5899 68.8983C27.3821 68.6904 27.2781 68.4231 27.2781 68.0965V47.161C27.2781 46.8343 27.3821 46.5671 27.5899 46.3592C27.7978 46.1513 28.0502 46.0474 28.3472 46.0474H32.7125C33.0391 46.0474 33.3064 46.1513 33.5142 46.3592C33.7221 46.5671 33.826 46.8343 33.826 47.161V48.8982C34.5981 47.9479 35.5929 47.161 36.8105 46.5374C38.028 45.9137 39.5128 45.6019 41.2648 45.6019C43.0169 45.6019 44.5462 46.0028 45.8528 46.8046C47.1891 47.5767 48.2285 48.72 48.9709 50.2345C49.743 51.7193 50.129 53.5307 50.129 55.6688V68.0965C50.129 68.4231 50.0102 68.6904 49.7727 68.8983C49.5648 69.1061 49.3124 69.2101 49.0154 69.2101H44.2938C43.9671 69.2101 43.6999 69.1061 43.492 68.8983C43.2841 68.6904 43.1802 68.4231 43.1802 68.0965V55.9361C43.1802 54.3622 42.7942 53.1447 42.0221 52.2835C41.2797 51.3926 40.1809 50.9472 38.7258 50.9472C37.3301 50.9472 36.2166 51.3926 35.3851 52.2835C34.5536 53.1447 34.1378 54.3622 34.1378 55.9361V68.0965C34.1378 68.4231 34.0339 68.6904 33.826 68.8983C33.6182 69.1061 33.3658 69.2101 33.0688 69.2101H28.3472Z" fill="white"/>
<path d="M65.8 69.6555C62.385 69.6555 59.6678 68.7052 57.6485 66.8047C55.6589 64.9042 54.6047 62.1425 54.4859 58.5196C54.4859 58.282 54.4859 57.9702 54.4859 57.5842C54.4859 57.1684 54.4859 56.8418 54.4859 56.6042C54.6047 54.3176 55.1244 52.3577 56.045 50.7245C56.9655 49.0615 58.2573 47.7994 59.9203 46.9383C61.5832 46.0474 63.5283 45.6019 65.7555 45.6019C68.2499 45.6019 70.3286 46.1216 71.9916 47.161C73.6842 48.1706 74.9463 49.5663 75.7778 51.3481C76.639 53.1001 77.0696 55.1194 77.0696 57.406V58.4305C77.0696 58.7275 76.9508 58.9799 76.7132 59.1878C76.5053 59.3956 76.2529 59.4996 75.956 59.4996H61.3902C61.3902 59.5293 61.3902 59.5886 61.3902 59.6777C61.3902 59.7371 61.3902 59.7965 61.3902 59.8559C61.4199 60.8062 61.5981 61.6822 61.9247 62.484C62.2811 63.2561 62.7711 63.8797 63.3947 64.3548C64.048 64.8299 64.8201 65.0675 65.7109 65.0675C66.4533 65.0675 67.0621 64.9636 67.5372 64.7557C68.0124 64.5478 68.3984 64.2954 68.6954 63.9985C69.022 63.7015 69.2596 63.4491 69.4081 63.2412C69.6753 62.9443 69.8832 62.7661 70.0317 62.7067C70.2098 62.6176 70.4771 62.5731 70.8335 62.5731H75.466C75.7629 62.5731 76.0005 62.6622 76.1787 62.8403C76.3866 62.9888 76.4756 63.2115 76.4459 63.5085C76.4163 63.9836 76.1638 64.5775 75.6887 65.2902C75.2433 65.9732 74.5751 66.6562 73.6842 67.3392C72.7934 67.9925 71.6798 68.5419 70.3435 68.9874C69.0369 69.4328 67.5224 69.6555 65.8 69.6555ZM61.3902 55.4461H70.1208V55.357C70.1208 54.288 69.9426 53.3674 69.5862 52.5953C69.2596 51.7935 68.7696 51.1699 68.1163 50.7245C67.463 50.279 66.676 50.0563 65.7555 50.0563C64.8349 50.0563 64.048 50.279 63.3947 50.7245C62.7414 51.1699 62.2365 51.7935 61.8802 52.5953C61.5535 53.3674 61.3902 54.288 61.3902 55.357V55.4461Z" fill="white"/>
<path d="M82.5912 69.2101C82.2943 69.2101 82.0419 69.1061 81.834 68.8983C81.6261 68.6904 81.5222 68.4231 81.5222 68.0965V47.161C81.5222 46.8343 81.6261 46.5671 81.834 46.3592C82.0419 46.1513 82.2943 46.0474 82.5912 46.0474H86.7338C87.0307 46.0474 87.2832 46.1513 87.491 46.3592C87.7286 46.5671 87.8474 46.8343 87.8474 47.161V48.6755C88.4413 47.844 89.2579 47.1313 90.2973 46.5374C91.3663 45.9434 92.6284 45.6316 94.0835 45.6019C97.5282 45.5426 99.889 46.8492 101.166 49.5218C101.849 48.3636 102.829 47.4282 104.106 46.7155C105.412 45.9731 106.838 45.6019 108.382 45.6019C109.926 45.6019 111.322 45.9583 112.569 46.671C113.816 47.354 114.796 48.423 115.509 49.8781C116.251 51.3035 116.623 53.1447 116.623 55.4015V68.0965C116.623 68.4231 116.519 68.6904 116.311 68.8983C116.103 69.1061 115.85 69.2101 115.554 69.2101H111.144C110.847 69.2101 110.594 69.1061 110.386 68.8983C110.179 68.6904 110.075 68.4231 110.075 68.0965V55.7579C110.075 54.5404 109.896 53.5901 109.54 52.9071C109.184 52.1944 108.709 51.6896 108.115 51.3926C107.551 51.0957 106.912 50.9472 106.199 50.9472C105.576 50.9472 104.967 51.0957 104.373 51.3926C103.809 51.6896 103.334 52.1944 102.948 52.9071C102.591 53.5901 102.413 54.5404 102.413 55.7579V68.0965C102.413 68.4231 102.309 68.6904 102.101 68.8983C101.893 69.1061 101.626 69.2101 101.3 69.2101H96.9343C96.6076 69.2101 96.3404 69.1061 96.1325 68.8983C95.9246 68.6904 95.8207 68.4231 95.8207 68.0965V55.7579C95.8207 54.5404 95.6425 53.5901 95.2862 52.9071C94.9298 52.1944 94.4547 51.6896 93.8608 51.3926C93.2965 51.0957 92.6729 50.9472 91.9899 50.9472C91.3663 50.9472 90.7576 51.1105 90.1636 51.4372C89.5697 51.7341 89.0797 52.2241 88.6937 52.9071C88.3374 53.5901 88.1592 54.5255 88.1592 55.7133V68.0965C88.1592 68.4231 88.0552 68.6904 87.8474 68.8983C87.6395 69.1061 87.3871 69.2101 87.0901 69.2101H82.5912Z" fill="white"/>
<path d="M125.469 77.6734C125.231 77.6734 125.009 77.5843 124.801 77.4061C124.623 77.2279 124.534 77.0052 124.534 76.7379C124.534 76.6786 124.548 76.5895 124.578 76.4707C124.608 76.3816 124.652 76.2628 124.712 76.1143L128.186 67.7847L119.634 47.6064C119.545 47.3688 119.5 47.1758 119.5 47.0273C119.53 46.7601 119.634 46.5374 119.812 46.3592C119.99 46.1513 120.213 46.0474 120.48 46.0474H124.801C125.187 46.0474 125.469 46.1513 125.647 46.3592C125.825 46.5374 125.959 46.7304 126.048 46.9383L131.571 60.7468L137.229 46.9383C137.347 46.7007 137.496 46.4928 137.674 46.3146C137.852 46.1365 138.134 46.0474 138.52 46.0474H142.752C143.019 46.0474 143.242 46.1513 143.42 46.3592C143.628 46.5374 143.732 46.7452 143.732 46.9828C143.732 47.1313 143.672 47.3391 143.554 47.6064L130.948 76.7825C130.859 77.0201 130.71 77.2279 130.502 77.4061C130.324 77.5843 130.042 77.6734 129.656 77.6734H125.469Z" fill="white"/>
</svg>
