<svg width="36" height="36" viewBox="0 0 36 36" fill="none" xmlns="http://www.w3.org/2000/svg">
<path d="M21.182 1.31802L34.682 14.818C36.4393 16.5754 36.4393 19.4246 34.682 21.182L21.182 34.682C19.4246 36.4393 16.5754 36.4393 14.818 34.682C13.0607 32.9246 13.0607 30.0754 14.818 28.318L20.636 22.5H4.5C2.01472 22.5 0 20.4853 0 18C0 15.5147 2.01472 13.5 4.5 13.5L20.636 13.5L14.818 7.68198C13.0607 5.92462 13.0607 3.07538 14.818 1.31802C16.5754 -0.43934 19.4246 -0.43934 21.182 1.31802Z" fill="url(#paint0_linear_128_94)"/>
<defs>
<linearGradient id="paint0_linear_128_94" x1="35.7875" y1="1.89153e-06" x2="2.36162" y2="38.0733" gradientUnits="userSpaceOnUse">
<stop stop-color="#D20033"/>
<stop offset="1" stop-color="#7C0087"/>
</linearGradient>
</defs>
</svg>
