<svg width="20" height="20" viewBox="0 0 20 20" fill="none" xmlns="http://www.w3.org/2000/svg">
<path fill-rule="evenodd" clip-rule="evenodd" d="M3.42279 3.17336C3.2183 6.18736 3.86696 7.85857 4.39513 8.69695C4.51387 8.87112 4.61456 9.01883 4.70447 9.14549C4.53984 9.67729 4.45126 10.2419 4.45126 10.827C4.45126 11.8906 4.74484 12.8876 5.25521 13.7419L3.42506 15.551C2.85831 16.1112 2.85831 17.0196 3.42506 17.5798C3.99182 18.1401 4.9107 18.1401 5.47745 17.5798L7.3076 15.7707C8.17173 16.2752 9.18035 16.5654 10.2563 16.5654C13.4623 16.5654 16.0613 13.9962 16.0613 10.827C16.0613 10.2035 15.9607 9.60321 15.7747 9.04114C15.8455 8.93935 15.9232 8.82537 16.0107 8.697C16.5389 7.85862 17.1876 6.18736 16.9831 3.17336C16.9714 3.0005 16.7502 2.93722 16.6439 3.07501C15.2696 4.85752 15.041 5.04104 13.5273 6.08567C12.5959 5.45653 11.4695 5.08861 10.2563 5.08861C9.01968 5.08861 7.87337 5.47084 6.93169 6.12231C5.37003 5.04507 5.15224 4.87816 3.76198 3.07501C3.65575 2.93722 3.43452 3.0005 3.42279 3.17336ZM10.2563 7.56307C8.45695 7.56307 6.96113 9.04502 6.96113 10.827C6.96113 12.6088 8.4985 14.0909 10.2563 14.0909C12.0556 14.0909 13.5515 12.609 13.5515 10.827C13.5515 9.04502 12.0556 7.56307 10.2563 7.56307Z" fill="white"/>
</svg>
