<svg width="33" height="29" viewBox="0 0 33 29" fill="none" xmlns="http://www.w3.org/2000/svg">
<path d="M2.55261 0.240601C1.44804 0.240601 0.552612 1.13603 0.552612 2.2406C0.552612 3.34517 1.44804 4.2406 2.55261 4.2406H24.5526C25.6572 4.2406 26.5526 3.34517 26.5526 2.2406C26.5526 1.13603 25.6572 0.240601 24.5526 0.240601H2.55261Z" fill="white"/>
<path d="M2.55261 8.2406C1.44804 8.2406 0.552612 9.13603 0.552612 10.2406C0.552612 11.3452 1.44804 12.2406 2.55261 12.2406H16.5526C17.6572 12.2406 18.5526 11.3452 18.5526 10.2406C18.5526 9.13603 17.6572 8.2406 16.5526 8.2406H2.55261Z" fill="white"/>
<path d="M2.55261 16.2406C1.44804 16.2406 0.552612 17.136 0.552612 18.2406C0.552612 19.3452 1.44804 20.2406 2.55261 20.2406H10.5526C11.6572 20.2406 12.5526 19.3452 12.5526 18.2406C12.5526 17.136 11.6572 16.2406 10.5526 16.2406H2.55261Z" fill="white"/>
<path d="M26.5526 10.2406C26.5526 9.13603 25.6572 8.2406 24.5526 8.2406C23.448 8.2406 22.5526 9.13603 22.5526 10.2406L22.5526 21.4122L19.9668 18.8264C19.1858 18.0453 17.9194 18.0453 17.1384 18.8264C16.3574 19.6074 16.3574 20.8738 17.1384 21.6548L23.1384 27.6548C23.5135 28.0299 24.0222 28.2406 24.5526 28.2406C25.083 28.2406 25.5918 28.0299 25.9668 27.6548L31.9668 21.6548C32.7479 20.8738 32.7479 19.6074 31.9668 18.8264C31.1858 18.0453 29.9194 18.0453 29.1384 18.8264L26.5526 21.4122L26.5526 10.2406Z" fill="white"/>
</svg>
