<svg width="15" height="15" viewBox="0 0 15 15" fill="none" xmlns="http://www.w3.org/2000/svg">
<path d="M6.6016 0.690983C6.90095 -0.230328 8.20436 -0.230327 8.50371 0.690983L9.57328 3.98278C9.70716 4.3948 10.0911 4.67376 10.5243 4.67376H13.9855C14.9543 4.67376 15.357 5.91338 14.5733 6.48278L11.7732 8.51722C11.4227 8.77187 11.276 9.22323 11.4099 9.63526L12.4795 12.9271C12.7788 13.8484 11.7243 14.6145 10.9406 14.0451L8.14044 12.0106C7.78996 11.756 7.31536 11.756 6.96487 12.0106L4.1647 14.0451C3.38099 14.6145 2.32651 13.8484 2.62586 12.9271L3.69543 9.63526C3.82931 9.22323 3.68265 8.77187 3.33216 8.51722L0.53199 6.48278C-0.251723 5.91338 0.151052 4.67376 1.11978 4.67376H4.58098C5.0142 4.67376 5.39816 4.3948 5.53203 3.98278L6.6016 0.690983Z" fill="white"/>
</svg>
