<svg width="19" height="15" viewBox="0 0 19 15" fill="none" xmlns="http://www.w3.org/2000/svg">
<path d="M8.55261 3.2406C8.55261 4.89745 7.20947 6.2406 5.55261 6.2406C3.89576 6.2406 2.55261 4.89745 2.55261 3.2406C2.55261 1.58375 3.89576 0.240601 5.55261 0.240601C7.20947 0.240601 8.55261 1.58375 8.55261 3.2406Z" fill="white"/>
<path d="M16.5526 3.2406C16.5526 4.89745 15.2095 6.2406 13.5526 6.2406C11.8958 6.2406 10.5526 4.89745 10.5526 3.2406C10.5526 1.58375 11.8958 0.240601 13.5526 0.240601C15.2095 0.240601 16.5526 1.58375 16.5526 3.2406Z" fill="white"/>
<path d="M12.4817 14.2406C12.5285 13.914 12.5526 13.5801 12.5526 13.2406C12.5526 11.6054 11.992 10.1012 11.0524 8.90967C11.7879 8.48415 12.6418 8.2406 13.5526 8.2406C16.3141 8.2406 18.5526 10.4792 18.5526 13.2406V14.2406H12.4817Z" fill="white"/>
<path d="M5.55261 8.2406C8.31404 8.2406 10.5526 10.4792 10.5526 13.2406V14.2406H0.552612V13.2406C0.552612 10.4792 2.79119 8.2406 5.55261 8.2406Z" fill="white"/>
</svg>
